<svg width="20" height="21" viewBox="0 0 20 21" fill="none" xmlns="http://www.w3.org/2000/svg">
<path d="M8.57465 3.6519L1.51632 15.4352C1.37079 15.6872 1.29379 15.973 1.29298 16.264C1.29216 16.555 1.36756 16.8412 1.51167 17.094C1.65579 17.3468 1.86359 17.5575 2.11441 17.7051C2.36523 17.8527 2.65032 17.932 2.94132 17.9352H17.058C17.349 17.932 17.6341 17.8527 17.8849 17.7051C18.1357 17.5575 18.3435 17.3468 18.4876 17.094C18.6317 16.8412 18.7071 16.555 18.7063 16.264C18.7055 15.973 18.6285 15.6872 18.483 15.4352L11.4247 3.6519C11.2761 3.40698 11.0669 3.2045 10.8173 3.06397C10.5677 2.92344 10.2861 2.84961 9.99965 2.84961C9.71321 2.84961 9.43159 2.92344 9.18199 3.06397C8.93238 3.2045 8.72321 3.40698 8.57465 3.6519Z" stroke="#FF0099" stroke-width="1.5" stroke-linecap="round" stroke-linejoin="round"/>
<path d="M10 7.93555V11.2689" stroke="#FF0099" stroke-width="1.5" stroke-linecap="round" stroke-linejoin="round"/>
<path d="M10 14.6025H10.0083" stroke="#FF0099" stroke-width="1.5" stroke-linecap="round" stroke-linejoin="round"/>
</svg>
