<svg width="30" height="31" viewBox="0 0 30 31" fill="none" xmlns="http://www.w3.org/2000/svg">
<path d="M21.25 3.13281H8.75C5.29822 3.13281 2.5 5.93103 2.5 9.38281V21.8828C2.5 25.3346 5.29822 28.1328 8.75 28.1328H21.25C24.7018 28.1328 27.5 25.3346 27.5 21.8828V9.38281C27.5 5.93103 24.7018 3.13281 21.25 3.13281Z" stroke="#999999" stroke-width="2" stroke-linecap="round" stroke-linejoin="round"/>
<path d="M20 14.8457C20.1543 15.886 19.9766 16.9485 19.4922 17.882C19.0078 18.8155 18.2414 19.5725 17.302 20.0453C16.3626 20.5181 15.2981 20.6827 14.2597 20.5156C13.2214 20.3485 12.2622 19.8583 11.5185 19.1146C10.7749 18.371 10.2847 17.4118 10.1176 16.3735C9.9505 15.3351 10.1151 14.2706 10.5879 13.3312C11.0607 12.3918 11.8177 11.6254 12.7512 11.141C13.6847 10.6566 14.7472 10.4789 15.7875 10.6332C16.8487 10.7905 17.8311 11.285 18.5896 12.0436C19.3482 12.8021 19.8426 13.7845 20 14.8457Z" stroke="#999999" stroke-width="2" stroke-linecap="round" stroke-linejoin="round"/>
<path d="M21.875 8.75781H21.887" stroke="#999999" stroke-width="2" stroke-linecap="round" stroke-linejoin="round"/>
</svg>
