<svg width="30" height="31" viewBox="0 0 30 31" fill="none" xmlns="http://www.w3.org/2000/svg">
<path d="M28.175 8.65781C28.0265 8.06457 27.7241 7.52103 27.2983 7.08207C26.8725 6.64311 26.3384 6.32429 25.75 6.15781C23.6 5.63281 15 5.63281 15 5.63281C15 5.63281 6.39998 5.63281 4.24998 6.20781C3.66154 6.37429 3.12745 6.69311 2.70167 7.13207C2.27588 7.57103 1.97347 8.11457 1.82498 8.70781C1.4315 10.8898 1.23903 13.1032 1.24998 15.3203C1.23596 17.5541 1.42844 19.7844 1.82498 21.9828C1.98868 22.5576 2.29787 23.0805 2.72266 23.5009C3.14746 23.9213 3.67351 24.2251 4.24998 24.3828C6.39998 24.9578 15 24.9578 15 24.9578C15 24.9578 23.6 24.9578 25.75 24.3828C26.3384 24.2163 26.8725 23.8975 27.2983 23.4586C27.7241 23.0196 28.0265 22.4761 28.175 21.8828C28.5654 19.7173 28.7579 17.5207 28.75 15.3203C28.764 13.0865 28.5715 10.8562 28.175 8.65781V8.65781Z" stroke="#999999" stroke-width="2" stroke-linecap="round" stroke-linejoin="round"/>
<path d="M12.1875 19.4074L19.375 15.3199L12.1875 11.2324V19.4074Z" stroke="#999999" stroke-width="2" stroke-linecap="round" stroke-linejoin="round"/>
</svg>
