<svg width="328" height="30" viewBox="0 0 328 30" fill="none" xmlns="http://www.w3.org/2000/svg">
<rect x="6" width="322" height="30" rx="5" fill="#298CFF"/>
<path d="M22.5508 10.8594H17.2441V11.8369H21.3511C21.3066 12.4844 21.1987 13.1001 21.0146 13.6777L16.6729 13.957L16.8379 15.0107L20.6274 14.6616C19.9165 16.1089 18.6533 17.334 16.6094 18.3242L17.2568 19.2637C21.4336 17.2261 22.5444 14.2109 22.5508 10.8594ZM24.6582 21.0791H25.877V9.7041H24.6582V21.0791ZM36.7731 9.7168H35.5543V17.4482H33.0407V18.3623H35.5543V21.0791H36.7731V9.7168ZM27.2135 15.6328L27.3786 16.6357C28.2545 16.6357 29.2448 16.623 30.2858 16.585V20.7236H31.4918V16.5278C32.5836 16.458 33.7072 16.3438 34.7926 16.1533L34.7291 15.2646C32.2345 15.6138 29.3717 15.6201 27.2135 15.6328ZM28.0514 12.5098C28.0578 13.8809 29.2511 14.7632 30.9586 14.7695C32.6408 14.7632 33.8405 13.8809 33.8405 12.5098C33.8405 11.1641 32.6408 10.2373 30.9586 10.2373C29.2511 10.2373 28.0578 11.1641 28.0514 12.5098ZM29.194 12.5098C29.1876 11.71 29.9113 11.1704 30.9586 11.1641C31.9743 11.1704 32.6915 11.71 32.6979 12.5098C32.6915 13.3223 31.9679 13.8491 30.9586 13.8428C29.9113 13.8491 29.1876 13.3223 29.194 12.5098ZM47.3264 15.0996H40.5979V11.71H47.2249V10.7197H39.4046V16.0898H47.3264V15.0996ZM38.1096 19.5811H48.5198V18.5781H38.1096V19.5811ZM59.3525 14.9219H48.9423V15.8486H59.3525V14.9219ZM50.1738 17.5117H56.8769V18.3496H50.1864V20.9395H58.4257V20.0889H51.3925V19.1494H58.0702V16.6484H50.1738V17.5117ZM50.2499 10.8467H56.8388V11.6592H50.2753V14.1729H58.2353V13.3223H51.4687V12.459H58.0448V9.99609H50.2499V10.8467ZM72.0168 9.7041H70.8107V15.8105H72.0168V9.7041ZM62.8127 12.8652C62.819 14.4204 64.1013 15.5059 65.8469 15.4932C67.5861 15.5059 68.8684 14.4204 68.8684 12.8652C68.8684 11.3037 67.5861 10.2183 65.8469 10.2246C64.1013 10.2183 62.819 11.3037 62.8127 12.8652ZM63.9934 12.8652C63.987 11.894 64.7678 11.2339 65.8469 11.2402C66.9133 11.2339 67.6877 11.894 67.6877 12.8652C67.6877 13.8491 66.9133 14.5029 65.8469 14.5029C64.7678 14.5029 63.987 13.8491 63.9934 12.8652ZM64.5773 20.9395H72.0168V16.3564H70.8234V17.6387H65.758V16.3564H64.5773V20.9395ZM65.758 19.9492V18.5908H70.8234V19.9492H65.758ZM78.8504 10.3896H73.8866V11.3545H77.6444V12.7891H73.8993V16.2549H74.7245C76.9906 16.2485 78.1585 16.2104 79.5487 15.9756L79.4344 14.998C78.1522 15.2329 77.0731 15.2773 75.0926 15.2773V13.7031H78.8504V10.3896ZM75.1942 18.2607H81.7069V21.0918H82.9129V17.2832H75.1942V18.2607ZM79.5741 14.7061H81.7069V16.7119H82.9129V9.7168H81.7069V11.3672H79.5741V12.332H81.7069V13.7412H79.5741V14.7061ZM93.1362 9.7041H91.9428V21.0791H93.1362V15.3154H94.9643V14.3125H93.1362V9.7041ZM84.2114 12.4717H90.9526V11.4814H88.2231V9.85645H87.0171V11.4814H84.2114V12.4717ZM84.7954 15.9502C84.7954 17.5117 85.9887 18.5972 87.6264 18.6035C89.2578 18.5972 90.4511 17.5117 90.4575 15.9502C90.4511 14.4014 89.2578 13.3096 87.6264 13.3096C85.9887 13.3096 84.7954 14.4014 84.7954 15.9502ZM85.9507 15.9502C85.9443 14.979 86.6553 14.3062 87.6264 14.2998C88.5913 14.3062 89.2959 14.979 89.3022 15.9502C89.2959 16.9404 88.5913 17.6006 87.6264 17.5879C86.6553 17.6006 85.9443 16.9404 85.9507 15.9502ZM104.324 10.7959H96.212V11.7734H103.118V11.9131C103.112 13.2778 103.112 14.8901 102.674 17.0928L103.893 17.2197C104.318 14.8901 104.318 13.3159 104.324 11.9131V10.7959ZM95.1202 19.543H105.492V18.54H100.262V14.5283H99.0685V18.54H95.1202V19.543ZM113.028 14.9854H114.335C114.202 13.7983 113.244 13.0176 111.707 13.0176C110.108 13.0176 109.041 13.8618 109.041 15.0869C109.041 16.0391 109.689 16.7056 110.933 16.9785L112.012 17.207C112.742 17.3784 113.072 17.6641 113.079 18.1084C113.072 18.686 112.507 19.0542 111.631 19.0479C110.812 19.0542 110.343 18.7432 110.222 18.1211H108.838C109.01 19.4033 109.987 20.1396 111.644 20.1396C113.402 20.1396 114.456 19.251 114.462 18.0068C114.456 17.0293 113.84 16.4263 112.571 16.1406L111.479 15.8867C110.717 15.709 110.393 15.417 110.4 15.0107C110.393 14.4839 110.946 14.084 111.72 14.084C112.469 14.084 112.901 14.4395 113.028 14.9854ZM115.393 22.5898H116.751V18.9209H116.827C117.075 19.3716 117.57 20.1333 118.82 20.1396C120.49 20.1333 121.702 18.7939 121.702 16.5723C121.702 14.3252 120.477 13.0176 118.808 13.0176C117.532 13.0176 117.068 13.792 116.827 14.2236H116.713V13.1064H115.393V22.5898ZM116.726 16.5469C116.726 15.1123 117.348 14.1665 118.516 14.1729C119.728 14.1665 120.331 15.1885 120.331 16.5469C120.331 17.9307 119.709 18.978 118.516 18.9844C117.36 18.978 116.726 17.9941 116.726 16.5469ZM122.341 18.0576C122.334 19.4033 123.356 20.1523 124.664 20.1523C125.806 20.1523 126.441 19.5747 126.708 19.0605H126.758V20H128.079V15.417C128.072 13.4175 126.473 13.0176 125.375 13.0176C123.743 13.0176 122.677 13.8428 122.556 14.9854H123.902C124.042 14.4775 124.524 14.1094 125.324 14.1094C126.244 14.1094 126.727 14.5601 126.72 15.3408L126.727 15.8931C126.409 15.9058 125.375 15.9629 124.918 15.9883C123.674 16.0771 122.334 16.4834 122.341 18.0576ZM123.661 18.0703C123.661 17.3911 124.219 17.0547 125.108 16.9912C125.432 16.9722 126.416 16.9023 126.727 16.8833L126.733 17.5117C126.733 18.3306 126.073 19.0669 124.968 19.0732C124.207 19.0669 123.661 18.7305 123.661 18.0703ZM132.246 20.1396C133.871 20.1396 134.931 19.1558 135.077 17.8164H133.757C133.586 18.5591 133.014 18.9907 132.246 18.9844C131.11 18.9907 130.38 18.0576 130.38 16.5469C130.38 15.0806 131.129 14.1538 132.246 14.1475C133.103 14.1538 133.618 14.6934 133.757 15.3408H135.077C134.931 13.9443 133.795 13.0176 132.221 13.0176C130.279 13.0176 129.015 14.4839 129.022 16.585C129.015 18.6606 130.234 20.1396 132.246 20.1396ZM138.94 20.1396C140.457 20.1396 141.518 19.3906 141.822 18.2734H140.451C140.223 18.6924 139.721 19.0225 138.953 19.0225C137.823 19.0225 137.049 18.2798 137.011 16.9658H141.911V16.4834C141.911 13.9888 140.419 13.0176 138.852 13.0176C136.928 13.0176 135.659 14.4775 135.665 16.5977C135.659 18.7368 136.909 20.1396 138.94 20.1396ZM137.017 15.9502C137.074 14.979 137.779 14.1284 138.864 14.1348C139.899 14.1284 140.578 14.9028 140.578 15.9502H137.017ZM152.858 14.9219H142.448V15.8486H152.858V14.9219ZM143.679 17.5117H150.382V18.3496H143.692V20.9395H151.931V20.0889H144.898V19.1494H151.576V16.6484H143.679V17.5117ZM143.755 10.8467H150.344V11.6592H143.781V14.1729H151.741V13.3223H144.974V12.459H151.55V9.99609H143.755V10.8467ZM165.319 13.4492H158.616V10.2627H157.41V14.4268H165.319V13.4492ZM156.09 16.9912H160.647V21.0791H161.841V16.9912H166.5V16.001H156.09V16.9912ZM177.345 18.6924H166.935V19.6826H177.345V18.6924ZM168.179 11.5195H174.882V13.1191H168.205V16.7246H176.342V15.7598H169.398V14.0967H176.076V10.542H168.179V11.5195ZM183.582 10.6689H178.301V16.0518H183.582V15.0615H186.058V18.0068H187.264V9.7168H186.058V11.6338H183.582V10.6689ZM179.494 15.0996V11.6465H182.402V15.0996H179.494ZM179.837 20.8379H187.518V19.8604H181.056V17.2451H179.837V20.8379ZM183.582 14.0713V12.624H186.058V14.0713H183.582ZM196.399 10.9736H191.841V18.3369H192.603C194.418 18.3369 195.523 18.2861 196.856 18.0449L196.754 17.0547C195.555 17.2578 194.539 17.3086 192.997 17.3213V14.9219H196.208V13.9697H192.997V11.9385H196.399V10.9736ZM197.516 20.5205H198.671V15.2012H200.042V21.0791H201.198V9.7041H200.042V14.2236H198.671V9.91992H197.516V20.5205ZM211.269 10.8594H203.372V11.8496H210.075V12.0781C210.075 13.5127 210.075 15.1821 209.618 17.4609L210.85 17.5752C211.269 15.144 211.269 13.5508 211.269 12.0781V10.8594ZM202.255 19.4668H212.627V18.4639H202.255V19.4668ZM221.962 9.7041H220.756V21.0664H221.962V15.2393H223.726V14.2363H221.962V9.7041ZM213.113 18.0322L213.786 18.9717C217.531 17.1245 218.978 14.1855 218.991 10.8975H213.684V11.9004H217.759C217.512 14.5537 215.963 16.6104 213.113 18.0322ZM230.69 13.0557V11.8496H233.166V10.8467H226.933V11.8496H229.497V13.0557C229.491 14.979 228.24 17.1245 226.514 17.9561L227.225 18.9082C228.52 18.2607 229.586 16.8579 230.106 15.2393C230.621 16.7246 231.636 18.0068 232.912 18.6162L233.598 17.6768C231.871 16.8579 230.684 14.8521 230.69 13.0557ZM234.385 21.0791H235.591V15.2266H237.419V14.2109H235.591V9.7041H234.385V21.0791ZM247.96 15.2393H243.351V14.0332H246.754V13.0684H240.063V11.1768H246.677V10.2246H238.87V14.0332H242.183V15.2393H237.575V16.2041H247.96V15.2393ZM238.806 19.0098C238.806 20.3301 240.285 21.0728 242.755 21.0791C245.205 21.0728 246.671 20.3301 246.677 19.0098C246.671 17.6895 245.205 16.9468 242.755 16.9404C240.285 16.9468 238.806 17.6895 238.806 19.0098ZM240.025 19.0098C240.019 18.2925 241.015 17.8799 242.755 17.8799C244.468 17.8799 245.471 18.2925 245.471 19.0098C245.471 19.7397 244.468 20.1396 242.755 20.127C241.015 20.1396 240.019 19.7397 240.025 19.0098ZM254.683 11.8877V10.415H253.515V11.8877C253.515 13.1509 252.689 14.5981 251.153 15.2646L251.813 16.2041C252.918 15.728 253.692 14.814 254.111 13.7603C254.518 14.6934 255.26 15.4678 256.32 15.874L256.955 14.9473C255.476 14.3887 254.683 13.1318 254.683 11.8877ZM253.248 18.9971C253.235 20.292 254.714 21.0601 257.095 21.0537C259.469 21.0601 260.96 20.292 260.967 18.9971C260.96 17.7021 259.469 16.9341 257.095 16.9277C254.714 16.9341 253.235 17.7021 253.248 18.9971ZM254.441 18.9971C254.429 18.2671 255.438 17.8481 257.095 17.8545C258.745 17.8481 259.754 18.2671 259.761 18.9971C259.754 19.7207 258.745 20.1396 257.095 20.127C255.438 20.1396 254.429 19.7207 254.441 18.9971ZM257.31 16.3564H258.428V13.665H259.761V16.7119H260.903V9.7168H259.761V12.6748H258.428V9.91992H257.31V16.3564ZM266.086 11.4053V10.3389H264.893V11.4561C264.88 13.1636 263.827 14.6807 262.011 15.3027L262.659 16.2676C264.036 15.7725 265.026 14.7505 265.515 13.4492C266.01 14.5918 266.931 15.4678 268.181 15.9248L268.841 14.9854C267.115 14.4204 266.08 12.9985 266.086 11.4053ZM263.878 18.9082C263.871 20.2793 265.331 21.0601 267.724 21.0537C270.105 21.0601 271.565 20.2793 271.571 18.9082C271.565 17.5308 270.105 16.731 267.724 16.7373C265.331 16.731 263.871 17.5308 263.878 18.9082ZM265.071 18.9082C265.065 18.1274 266.055 17.6768 267.724 17.6768C269.381 17.6768 270.371 18.1274 270.378 18.9082C270.371 19.6636 269.381 20.1079 267.724 20.1016C266.055 20.1079 265.065 19.6636 265.071 18.9082ZM267.927 13.0049H270.327V16.4199H271.533V9.7041H270.327V12.0146H267.927V13.0049ZM272.755 17.6895L272.92 18.6924C274.444 18.686 276.843 18.6289 278.709 18.3115L278.646 17.4355C277.966 17.5181 277.186 17.5688 276.399 17.6069V15.4932H278.29V14.5156H274.507V11.7988H278.189V10.8213H273.326V15.4932H275.243V17.6514C274.329 17.6768 273.453 17.6895 272.755 17.6895ZM279.154 20.4951H280.271V15.3535H281.515V21.0791H282.67V9.7041H281.515V14.376H280.271V9.93262H279.154V20.4951ZM294.15 18.6543H291.662V15.6582C292.576 15.144 293.122 14.3379 293.122 13.335C293.122 11.5449 291.364 10.3706 288.92 10.3643C286.482 10.3706 284.724 11.5449 284.73 13.335C284.724 14.3569 285.295 15.1694 286.228 15.6836V18.6543H283.74V19.6572H294.15V18.6543ZM285.898 13.335C285.898 12.1099 287.136 11.3291 288.92 11.3291C290.691 11.3291 291.948 12.1099 291.954 13.335C291.948 14.5537 290.691 15.3472 288.92 15.3535C287.136 15.3472 285.898 14.5537 285.898 13.335ZM287.422 18.6543V16.1279C287.879 16.2358 288.387 16.293 288.92 16.293C289.466 16.293 289.98 16.2358 290.443 16.1279V18.6543H287.422ZM298.664 20.0889C299.153 20.0825 299.559 19.6826 299.566 19.1875C299.559 18.6924 299.153 18.2861 298.664 18.2861C298.169 18.2861 297.756 18.6924 297.763 19.1875C297.756 19.6826 298.169 20.0825 298.664 20.0889ZM297.776 14.1729C297.769 14.668 298.182 15.0679 298.677 15.0742C299.166 15.0679 299.572 14.668 299.578 14.1729C299.572 13.6777 299.166 13.2715 298.677 13.2715C298.182 13.2715 297.769 13.6777 297.776 14.1729ZM303.416 16.1914C303.416 13.938 302.813 12.0654 301.677 10.4658H300.432C301.315 11.6528 302.013 14.0586 302.019 16.1914C302.013 18.3242 301.315 20.7363 300.432 21.917H301.677C302.813 20.3174 303.416 18.4448 303.416 16.1914Z" fill="white"/>
<path d="M6 14.9923L6 24.5654C6 20.5639 2.33619 17.2994 0.360205 15.8252C-0.120069 15.4614 -0.120069 14.5136 0.360205 14.1499C2.33619 12.6852 6 9.42075 6 5.41918L6 14.9923Z" fill="#298CFF"/>
</svg>
