<svg width="372" height="156" viewBox="0 0 372 156" fill="none" xmlns="http://www.w3.org/2000/svg">
<path d="M0 16C0 7.16344 7.16344 0 16 0H356C364.837 0 372 7.16344 372 16V140C372 148.837 364.837 156 356 156H16C7.16345 156 0 148.837 0 140V16Z" fill="#BDBEC1"/>
<path d="M240.943 110.556C241.393 107.797 243.759 105.755 246.556 105.72C258.696 105.558 289.606 105.28 291.265 106.595C293.331 108.236 294.41 109.076 294.249 111.677C294.101 114.067 291.493 155.363 291.493 155.363H233.646L240.947 110.556H240.943Z" fill="#455A64"/>
<path d="M284.903 155.384C284.903 155.384 284.896 155.342 284.885 155.261C284.878 155.169 284.868 155.053 284.854 154.902C284.829 154.575 284.797 154.115 284.752 153.524C284.706 152.927 284.66 152.196 284.632 151.342C284.601 150.491 284.548 149.521 284.548 148.449C284.541 147.911 284.534 147.352 284.53 146.766C284.527 146.179 284.544 145.57 284.551 144.941C284.555 143.68 284.625 142.333 284.685 140.917C284.843 138.084 285.114 134.977 285.546 131.733C285.996 128.489 286.565 125.42 287.17 122.647C287.49 121.266 287.785 119.951 288.115 118.732C288.277 118.123 288.421 117.529 288.583 116.967C288.744 116.405 288.903 115.863 289.05 115.35C289.338 114.317 289.648 113.396 289.904 112.584C290.157 111.769 290.396 111.076 290.6 110.514C290.801 109.959 290.955 109.523 291.064 109.213C291.117 109.073 291.159 108.96 291.191 108.876C291.219 108.802 291.236 108.764 291.24 108.764C291.24 108.764 291.233 108.806 291.208 108.883C291.18 108.971 291.145 109.083 291.099 109.224C290.997 109.533 290.853 109.973 290.667 110.535C290.474 111.101 290.242 111.797 289.999 112.616C289.753 113.431 289.451 114.352 289.17 115.385C289.026 115.902 288.871 116.44 288.713 117.006C288.555 117.568 288.414 118.162 288.256 118.77C287.929 119.986 287.644 121.304 287.328 122.682C286.734 125.452 286.172 128.517 285.722 131.754C285.289 134.994 285.015 138.098 284.847 140.924C284.783 142.337 284.709 143.683 284.695 144.941C284.685 145.57 284.664 146.179 284.664 146.762C284.664 147.345 284.667 147.908 284.671 148.442C284.664 149.514 284.709 150.481 284.727 151.331C284.745 152.182 284.78 152.913 284.815 153.514C284.843 154.104 284.864 154.565 284.882 154.892C284.885 155.043 284.892 155.159 284.896 155.25C284.896 155.331 284.896 155.373 284.896 155.373L284.903 155.384Z" fill="#263238"/>
<path d="M252.373 126.503C252.373 126.503 252.402 126.485 252.461 126.467C252.521 126.453 252.612 126.443 252.732 126.453C252.967 126.471 253.315 126.608 253.579 126.952C253.853 127.293 253.92 127.88 253.663 128.394C253.54 128.65 253.351 128.889 253.097 129.072C252.844 129.255 252.528 129.364 252.201 129.385C251.874 129.406 251.54 129.332 251.277 129.146C251.01 128.966 250.852 128.675 250.799 128.394C250.7 127.821 250.932 127.304 251.242 127.009C251.892 126.453 252.468 126.436 252.454 126.489C252.454 126.496 252.423 126.489 252.366 126.506C252.31 126.52 252.226 126.545 252.124 126.59C251.92 126.678 251.618 126.826 251.337 127.104C251.069 127.378 250.869 127.863 250.967 128.362C251.017 128.608 251.157 128.85 251.382 129.002C251.604 129.16 251.899 129.223 252.191 129.205C252.486 129.188 252.771 129.089 252.996 128.928C253.224 128.766 253.4 128.552 253.512 128.323C253.748 127.863 253.706 127.346 253.474 127.033C253.249 126.71 252.936 126.566 252.721 126.527C252.503 126.485 252.377 126.527 252.373 126.506V126.503Z" fill="#263238"/>
<path d="M261.445 121.255C261.445 121.29 260.848 121.181 259.892 121.273C258.946 121.357 257.624 121.698 256.426 122.534C255.227 123.374 254.458 124.499 254.057 125.36C253.646 126.228 253.547 126.826 253.512 126.815C253.502 126.815 253.519 126.664 253.575 126.397C253.635 126.134 253.748 125.754 253.941 125.304C254.321 124.415 255.094 123.244 256.324 122.383C257.554 121.522 258.918 121.192 259.885 121.143C260.37 121.114 260.767 121.139 261.034 121.174C261.304 121.209 261.449 121.245 261.449 121.255H261.445Z" fill="#263238"/>
<path d="M244.669 132C244.669 132 244.704 131.887 244.803 131.701C244.904 131.515 245.07 131.258 245.312 130.97C245.79 130.39 246.623 129.691 247.727 129.314C248.83 128.938 249.92 128.984 250.651 129.153C251.02 129.234 251.308 129.336 251.502 129.42C251.695 129.504 251.793 129.564 251.79 129.575C251.776 129.606 251.354 129.409 250.627 129.279C249.902 129.146 248.855 129.125 247.787 129.487C246.722 129.849 245.903 130.51 245.411 131.054C244.911 131.603 244.697 132.017 244.669 132Z" fill="#263238"/>
<path d="M255.86 133.437C255.86 133.437 255.607 133.307 255.266 133.008C254.925 132.71 254.493 132.242 254.117 131.659C253.741 131.072 253.498 130.488 253.368 130.053C253.238 129.617 253.203 129.336 253.224 129.332C253.28 129.314 253.526 130.415 254.271 131.56C255.002 132.713 255.902 133.395 255.86 133.441V133.437Z" fill="#263238"/>
<path d="M271.909 126.991C271.909 126.991 271.937 126.974 271.996 126.956C272.056 126.942 272.148 126.931 272.267 126.942C272.499 126.96 272.851 127.097 273.114 127.441C273.388 127.782 273.455 128.369 273.198 128.882C273.075 129.139 272.886 129.378 272.633 129.561C272.38 129.743 272.063 129.852 271.736 129.873C271.409 129.894 271.076 129.821 270.812 129.634C270.545 129.455 270.387 129.163 270.334 128.882C270.236 128.309 270.467 127.793 270.777 127.497C271.427 126.942 272.003 126.924 271.989 126.977C271.989 126.984 271.958 126.977 271.902 126.995C271.845 127.009 271.761 127.033 271.659 127.079C271.455 127.167 271.153 127.315 270.872 127.592C270.605 127.866 270.404 128.351 270.503 128.851C270.552 129.097 270.692 129.339 270.917 129.49C271.139 129.648 271.434 129.712 271.726 129.694C272.021 129.677 272.306 129.578 272.531 129.416C272.759 129.255 272.935 129.04 273.047 128.812C273.283 128.351 273.241 127.835 273.009 127.522C272.784 127.199 272.471 127.055 272.257 127.016C272.039 126.974 271.912 127.016 271.909 126.995V126.991Z" fill="#263238"/>
<path d="M280.98 121.744C280.98 121.779 280.383 121.67 279.427 121.761C278.481 121.846 277.16 122.187 275.961 123.023C274.763 123.863 273.993 124.988 273.592 125.849C273.181 126.717 273.082 127.311 273.047 127.304C273.037 127.304 273.054 127.153 273.111 126.886C273.17 126.622 273.283 126.243 273.476 125.793C273.856 124.903 274.629 123.733 275.859 122.872C277.089 122.011 278.453 121.68 279.42 121.631C279.905 121.603 280.302 121.624 280.569 121.663C280.84 121.698 280.984 121.733 280.984 121.744H280.98Z" fill="#263238"/>
<path d="M264.204 132.488C264.204 132.488 264.239 132.376 264.338 132.19C264.44 132.003 264.605 131.747 264.847 131.459C265.325 130.879 266.158 130.179 267.262 129.803C268.366 129.427 269.455 129.473 270.186 129.641C270.555 129.722 270.844 129.824 271.037 129.909C271.23 129.993 271.329 130.053 271.325 130.063C271.311 130.095 270.889 129.898 270.162 129.768C269.438 129.634 268.39 129.613 267.322 129.975C266.257 130.341 265.438 130.998 264.946 131.543C264.447 132.091 264.232 132.506 264.204 132.488V132.488Z" fill="#263238"/>
<path d="M275.399 133.926C275.399 133.926 275.146 133.796 274.805 133.497C274.464 133.198 274.031 132.731 273.655 132.147C273.279 131.56 273.037 130.977 272.907 130.541C272.777 130.105 272.741 129.824 272.763 129.821C272.819 129.803 273.065 130.903 273.81 132.049C274.541 133.202 275.441 133.884 275.399 133.929V133.926Z" fill="#263238"/>
<path d="M182.981 66.3082L183.03 67.2572C183.167 67.1272 183.346 67.0428 183.547 67.0323C183.997 67.0077 184.38 67.3557 184.404 67.8091C184.429 68.2625 184.084 68.6491 183.635 68.6737C183.434 68.6842 183.244 68.621 183.097 68.505L183.146 69.4575C183.283 69.3275 183.462 69.2431 183.663 69.2326C184.113 69.208 184.496 69.5559 184.52 70.0093C184.545 70.4627 184.2 70.8494 183.751 70.874C183.55 70.8845 183.36 70.8212 183.213 70.7053L183.262 71.6578C183.399 71.5277 183.578 71.4434 183.779 71.4328C184.229 71.4082 184.612 71.7562 184.636 72.2096C184.661 72.663 184.316 73.0496 183.866 73.0742C183.666 73.0848 183.476 73.0215 183.329 72.9055L183.378 73.858C183.515 73.728 183.694 73.6436 183.895 73.6331C184.345 73.6085 184.728 73.9564 184.752 74.4099C184.777 74.8633 184.432 75.2499 183.982 75.2745C183.782 75.285 183.592 75.2218 183.445 75.1058L183.494 76.0583C183.631 75.9282 183.81 75.8439 184.011 75.8333C184.46 75.8087 184.844 76.1567 184.868 76.6101C184.893 77.0635 184.548 77.4501 184.098 77.4748C183.898 77.4853 183.708 77.422 183.561 77.306L183.61 78.2586C183.747 78.1285 183.926 78.0441 184.127 78.0336C184.576 78.009 184.96 78.357 184.984 78.8104C185.009 79.2638 184.664 79.6504 184.214 79.675C184.014 79.6856 183.824 79.6223 183.677 79.5063L183.708 80.0968L209.046 79.4887L207.764 64.7301L182.97 66.3082H182.981Z" fill="#EBEBEB"/>
<path d="M182.418 65.7002L182.467 66.6492C182.605 66.5192 182.784 66.4348 182.984 66.4243C183.434 66.3997 183.817 66.7476 183.842 67.201C183.866 67.6544 183.522 68.0411 183.072 68.0657C182.872 68.0762 182.682 68.013 182.534 67.897L182.583 68.8495C182.721 68.7194 182.9 68.6351 183.1 68.6245C183.55 68.5999 183.933 68.9479 183.958 69.4013C183.982 69.8547 183.638 70.2413 183.188 70.2659C182.988 70.2765 182.798 70.2132 182.65 70.0972L182.699 71.0497C182.837 70.9197 183.016 70.8353 183.216 70.8248C183.666 70.8002 184.049 71.1482 184.074 71.6016C184.098 72.055 183.754 72.4416 183.304 72.4662C183.104 72.4767 182.914 72.4135 182.766 72.2975L182.815 73.25C182.953 73.12 183.132 73.0356 183.332 73.025C183.782 73.0004 184.165 73.3484 184.19 73.8018C184.214 74.2552 183.87 74.6419 183.42 74.6665C183.22 74.677 183.03 74.6137 182.882 74.4978L182.931 75.4503C183.068 75.3202 183.248 75.2359 183.448 75.2253C183.898 75.2007 184.281 75.5487 184.306 76.0021C184.33 76.4555 183.986 76.8421 183.536 76.8667C183.336 76.8773 183.146 76.814 182.998 76.698L183.047 77.6505C183.184 77.5205 183.364 77.4361 183.564 77.4256C184.014 77.401 184.397 77.7489 184.422 78.2023C184.446 78.6558 184.102 79.0424 183.652 79.067C183.452 79.0775 183.262 79.0143 183.114 78.8983L183.146 79.4888L208.48 78.1321L207.742 64.3435L182.408 65.7002H182.418Z" fill="#F5F5F5"/>
<path d="M207.9 67.071C207.9 67.1202 202.235 67.4646 195.24 67.8407C188.242 68.2168 182.569 68.4769 182.569 68.4277C182.569 68.3785 188.235 68.034 195.233 67.6579C202.228 67.2854 207.9 67.0218 207.904 67.071H207.9Z" fill="#E0E0E0"/>
<path d="M208.017 69.2782C208.017 69.3275 202.351 69.6719 195.356 70.048C188.358 70.4241 182.686 70.6842 182.686 70.635C182.686 70.5858 188.351 70.2413 195.349 69.8652C202.344 69.4926 208.017 69.229 208.02 69.2782H208.017Z" fill="#E0E0E0"/>
<path d="M208.136 71.4855C208.136 71.5347 202.47 71.8792 195.476 72.2553C188.478 72.6313 182.805 72.8914 182.805 72.8422C182.805 72.793 188.471 72.4486 195.468 72.0725C202.463 71.6999 208.136 71.4363 208.139 71.4855H208.136Z" fill="#E0E0E0"/>
<path d="M208.252 73.6894C208.252 73.7386 202.586 74.083 195.592 74.4591C188.594 74.8352 182.921 75.0953 182.921 75.0461C182.921 74.9969 188.587 74.6524 195.585 74.2764C202.579 73.9038 208.252 73.6402 208.256 73.6894H208.252Z" fill="#E0E0E0"/>
<path d="M208.372 75.8967C208.372 75.9459 202.706 76.2903 195.711 76.6664C188.713 77.0425 183.041 77.3026 183.041 77.2534C183.041 77.2042 188.706 76.8597 195.704 76.4836C202.699 76.1111 208.372 75.8474 208.375 75.8967H208.372Z" fill="#E0E0E0"/>
<path d="M186.03 65.5084L185.854 65.5178L186.591 79.3043L186.767 79.2949L186.03 65.5084Z" fill="#E8505B"/>
<path d="M188.974 79.176C188.924 79.176 188.717 76.0935 188.513 72.287C188.309 68.4805 188.186 65.391 188.235 65.3875C188.285 65.3839 188.492 68.4699 188.696 72.2765C188.9 76.083 189.023 79.1725 188.974 79.176V79.176Z" fill="#E0E0E0"/>
<path d="M184.464 79.4184C184.415 79.4184 184.207 76.336 184.003 72.5294C183.799 68.7229 183.676 65.6334 183.726 65.6299C183.775 65.6299 183.982 68.7124 184.186 72.5189C184.39 76.3254 184.513 79.4149 184.464 79.4184V79.4184Z" fill="#E0E0E0"/>
<path d="M191.444 79.0423C191.395 79.0423 191.188 75.9599 190.984 72.1533C190.78 68.3468 190.657 65.2573 190.706 65.2538C190.755 65.2538 190.963 68.3363 191.167 72.1428C191.37 75.9493 191.493 79.0388 191.444 79.0423V79.0423Z" fill="#E0E0E0"/>
<path d="M193.915 78.9123C193.866 78.9123 193.658 75.8298 193.455 72.0233C193.251 68.2168 193.128 65.1273 193.177 65.1238C193.226 65.1238 193.433 68.2063 193.637 72.0128C193.841 75.8193 193.964 78.9088 193.915 78.9123V78.9123Z" fill="#E0E0E0"/>
<path d="M196.386 78.7788C196.337 78.7788 196.13 75.6963 195.926 71.8898C195.722 68.0833 195.599 64.9937 195.648 64.9902C195.697 64.9902 195.905 68.0727 196.108 71.8792C196.312 75.6858 196.435 78.7753 196.386 78.7788V78.7788Z" fill="#E0E0E0"/>
<path d="M198.853 78.6488C198.804 78.6488 198.597 75.5663 198.393 71.7598C198.189 67.9532 198.066 64.8637 198.115 64.8602C198.165 64.8602 198.372 67.9427 198.576 71.7492C198.78 75.5558 198.903 78.6453 198.853 78.6488V78.6488Z" fill="#E0E0E0"/>
<path d="M201.324 78.5151C201.275 78.5151 201.068 75.4326 200.864 71.6261C200.66 67.8196 200.537 64.7301 200.586 64.7266C200.635 64.7231 200.843 67.809 201.046 71.6156C201.25 75.4221 201.373 78.5116 201.324 78.5151V78.5151Z" fill="#E0E0E0"/>
<path d="M203.795 78.3816C203.746 78.3816 203.539 75.2991 203.335 71.4926C203.131 67.686 203.008 64.5965 203.057 64.593C203.106 64.5895 203.314 67.6755 203.518 71.482C203.722 75.2885 203.845 78.378 203.795 78.3816V78.3816Z" fill="#E0E0E0"/>
<path d="M206.263 78.2516C206.213 78.2516 206.006 75.1691 205.802 71.3626C205.598 67.556 205.475 64.4665 205.524 64.463C205.574 64.463 205.781 67.5455 205.985 71.352C206.189 75.1585 206.312 78.248 206.263 78.2516V78.2516Z" fill="#E0E0E0"/>
<path d="M205.957 69.9003C205.957 69.9003 205.894 69.9144 205.778 69.9285C205.637 69.939 205.468 69.9566 205.261 69.9741C204.783 70.0058 204.14 70.0515 203.356 70.1042C201.746 70.2026 199.525 70.3291 197.068 70.4486C194.611 70.5717 192.386 70.663 190.773 70.7158C189.163 70.765 188.162 70.772 188.165 70.7158C189.125 70.6666 192.386 70.5014 197.057 70.2659C199.5 70.1534 201.711 70.048 203.349 69.9741C204.133 69.946 204.779 69.9214 205.258 69.9039C205.465 69.9003 205.637 69.8968 205.778 69.8933C205.897 69.8933 205.96 69.8933 205.96 69.9039L205.957 69.9003Z" fill="#263238"/>
<path d="M206.47 72.4205C206.47 72.4697 202.386 72.6981 197.342 72.9301C192.298 73.1621 188.207 73.3097 188.204 73.257C188.204 73.2078 192.288 72.9793 197.332 72.7474C202.375 72.5154 206.467 72.3678 206.467 72.4205H206.47Z" fill="#263238"/>
<path d="M206.741 74.6278C206.741 74.677 202.656 74.9054 197.613 75.1374C192.569 75.3694 188.478 75.517 188.474 75.4643C188.474 75.4151 192.558 75.1866 197.602 74.9546C202.646 74.7227 206.737 74.575 206.737 74.6278H206.741Z" fill="#263238"/>
<path d="M185.255 67.1448C185.367 67.6931 185.603 68.2484 186.063 68.5648C186.587 68.9268 187.35 68.8846 187.831 68.4699C188.313 68.0551 188.464 67.3065 188.186 66.7335C187.905 66.1641 187.22 65.8267 186.598 65.9533" fill="#E0E0E0"/>
<path d="M185.195 67.1413C185.23 67.7774 185.772 68.266 186.408 68.2309C187.044 68.1957 187.532 67.6544 187.497 67.0182C187.462 66.3821 186.921 65.8935 186.285 65.9287C185.649 65.9638 185.16 66.5051 185.195 67.1413Z" fill="#455A64"/>
<path d="M184.534 66.7159C184.555 67.0991 184.879 67.3908 185.262 67.3697C185.645 67.3486 185.937 67.0252 185.916 66.6421C185.895 66.259 185.571 65.9673 185.188 65.9884C184.805 66.0095 184.513 66.3363 184.534 66.7159Z" fill="#455A64"/>
<path d="M185.178 67.3557C185.185 67.3276 185.287 67.3381 185.427 67.2854C185.564 67.2362 185.747 67.1097 185.821 66.9023C185.891 66.6984 185.838 66.4805 185.768 66.3505C185.698 66.2169 185.617 66.1501 185.631 66.129C185.642 66.1079 185.758 66.1361 185.874 66.2802C185.989 66.4172 186.088 66.6844 185.993 66.9656C185.891 67.2467 185.634 67.3873 185.459 67.4119C185.276 67.4401 185.171 67.3768 185.178 67.3557V67.3557Z" fill="#263238"/>
<path d="M185.757 66.2556C185.782 66.2099 185.954 66.2626 186.148 66.2169C186.341 66.1747 186.474 66.0517 186.517 66.0798C186.562 66.1009 186.464 66.3259 186.19 66.3926C185.912 66.4524 185.726 66.2907 185.757 66.252V66.2556Z" fill="#263238"/>
<path d="M185.933 68.0059C185.88 68.0095 185.835 67.7915 185.652 67.6228C185.473 67.4506 185.255 67.4155 185.255 67.3627C185.244 67.3135 185.532 67.2608 185.778 67.4893C186.021 67.7212 185.982 68.013 185.933 68.0059Z" fill="#263238"/>
<path d="M204.73 66.3329C204.842 66.8812 205.078 67.4365 205.538 67.7529C206.062 68.1149 206.825 68.0727 207.306 67.658C207.788 67.2432 207.939 66.4946 207.661 65.9217C207.38 65.3523 206.695 65.0148 206.073 65.1414" fill="#E0E0E0"/>
<path d="M206.955 66.0201C206.987 66.6351 206.516 67.1588 205.9 67.1905C205.285 67.2221 204.762 66.7511 204.73 66.136C204.698 65.521 205.169 64.9972 205.784 64.9656C206.4 64.934 206.923 65.405 206.955 66.0201Z" fill="#E8505B"/>
<path d="M207.545 65.5421C207.566 65.9111 207.282 66.224 206.913 66.245C206.544 66.2661 206.231 65.9814 206.21 65.6124C206.189 65.2433 206.473 64.9305 206.842 64.9094C207.211 64.8883 207.524 65.173 207.545 65.5421Z" fill="#E8505B"/>
<path d="M206.994 66.2239C207.004 66.2415 206.909 66.3153 206.73 66.3083C206.558 66.3048 206.294 66.1958 206.168 65.9322C206.045 65.6721 206.115 65.4015 206.21 65.2609C206.308 65.1097 206.417 65.0746 206.431 65.0922C206.449 65.1132 206.379 65.1835 206.326 65.3206C206.273 65.4542 206.242 65.6651 206.333 65.8549C206.424 66.0447 206.611 66.1466 206.748 66.1817C206.888 66.2169 206.987 66.1993 206.994 66.2274V66.2239Z" fill="#263238"/>
<path d="M206.322 65.2257C206.357 65.2609 206.195 65.4366 205.921 65.4085C205.647 65.3734 205.531 65.1625 205.573 65.1379C205.612 65.1027 205.753 65.2082 205.942 65.2257C206.132 65.2503 206.294 65.1836 206.322 65.2257Z" fill="#263238"/>
<path d="M206.333 66.927C206.283 66.941 206.217 66.6633 206.428 66.4138C206.642 66.1678 206.927 66.1924 206.92 66.2416C206.927 66.2908 206.719 66.3505 206.565 66.5333C206.41 66.7126 206.382 66.927 206.333 66.927V66.927Z" fill="#263238"/>
<path d="M163.825 99.147L184.534 101.79L184.257 94.2087L163.825 99.147Z" fill="#E0E0E0"/>
<path d="M184.246 94.3618L164.365 92.7029L163.814 99.3018L183.695 100.961L184.246 94.3618Z" fill="#455A64"/>
<path d="M181.449 96.3386C181.445 96.3878 178.109 96.1523 174.001 95.8079C169.892 95.4634 166.563 95.1471 166.567 95.0944C166.57 95.0452 169.906 95.2807 174.015 95.6251C178.124 95.9696 181.452 96.2859 181.445 96.3386H181.449Z" fill="#263238"/>
<path d="M181.409 98.0609C181.406 98.1101 178.07 97.8746 173.962 97.5302C169.853 97.1857 166.524 96.8694 166.528 96.8167C166.531 96.7675 169.867 97.003 173.976 97.3474C178.084 97.6919 181.413 98.0082 181.406 98.0609H181.409Z" fill="#263238"/>
<path d="M170.257 92.2474L177.958 92.8906L177.554 93.2316L178.081 93.692L177.452 93.9802L178.014 94.4793L169.941 93.8045L170.444 93.3792L170.194 92.9223L170.626 92.7008L170.257 92.2474Z" fill="#EBEBEB"/>
<path d="M152.082 80.3042C152.159 80.4378 152.209 80.5924 152.209 80.7576C152.209 81.2532 151.808 81.6504 151.316 81.6504C150.824 81.6504 150.423 81.2497 150.423 80.7576C150.423 80.5924 150.469 80.4378 150.55 80.3042H149.513C149.59 80.4378 149.639 80.5924 149.639 80.7576C149.639 81.2532 149.239 81.6504 148.746 81.6504C148.254 81.6504 147.854 81.2497 147.854 80.7576C147.854 80.5924 147.899 80.4378 147.98 80.3042H146.943C147.021 80.4378 147.07 80.5924 147.07 80.7576C147.07 81.2532 146.669 81.6504 146.177 81.6504C145.685 81.6504 145.284 81.2497 145.284 80.7576C145.284 80.5924 145.33 80.4378 145.411 80.3042H144.374C144.451 80.4378 144.501 80.5924 144.501 80.7576C144.501 81.2532 144.1 81.6504 143.608 81.6504C143.116 81.6504 142.715 81.2497 142.715 80.7576C142.715 80.5924 142.761 80.4378 142.842 80.3042H141.805C141.882 80.4378 141.931 80.5924 141.931 80.7576C141.931 81.2532 141.531 81.6504 141.039 81.6504C140.546 81.6504 140.146 81.2497 140.146 80.7576C140.146 80.5924 140.191 80.4378 140.272 80.3042H139.235C139.316 80.4378 139.362 80.5924 139.362 80.7576C139.362 81.2532 138.961 81.6504 138.469 81.6504C137.977 81.6504 137.576 81.2497 137.576 80.7576C137.576 80.5924 137.622 80.4378 137.703 80.3042H137.053V98.8026L153.235 99.6883L152.462 80.3042H152.117H152.082Z" fill="#E0E0E0"/>
<mask id="mask0_307_1474" style="mask-type:alpha" maskUnits="userSpaceOnUse" x="136" y="79" width="17" height="20">
<path d="M151.847 79.7981C151.924 79.9317 151.973 80.0863 151.973 80.2515C151.973 80.7471 151.572 81.1443 151.08 81.1443C150.588 81.1443 150.188 80.7436 150.188 80.2515C150.188 80.0863 150.233 79.9317 150.314 79.7981H149.277C149.355 79.9317 149.404 80.0863 149.404 80.2515C149.404 80.7471 149.003 81.1443 148.511 81.1443C148.019 81.1443 147.618 80.7436 147.618 80.2515C147.618 80.0863 147.664 79.9317 147.745 79.7981H146.708C146.785 79.9317 146.835 80.0863 146.835 80.2515C146.835 80.7471 146.434 81.1443 145.942 81.1443C145.45 81.1443 145.049 80.7436 145.049 80.2515C145.049 80.0863 145.095 79.9317 145.176 79.7981H144.139C144.216 79.9317 144.265 80.0863 144.265 80.2515C144.265 80.7471 143.865 81.1443 143.372 81.1443C142.88 81.1443 142.48 80.7436 142.48 80.2515C142.48 80.0863 142.525 79.9317 142.606 79.7981H141.569C141.647 79.9317 141.696 80.0863 141.696 80.2515C141.696 80.7471 141.295 81.1443 140.803 81.1443C140.311 81.1443 139.91 80.7436 139.91 80.2515C139.91 80.0863 139.956 79.9317 140.037 79.7981H139C139.081 79.9317 139.127 80.0863 139.127 80.2515C139.127 80.7471 138.726 81.1443 138.234 81.1443C137.742 81.1443 137.341 80.7436 137.341 80.2515C137.341 80.0863 137.387 79.9317 137.468 79.7981H136.817V98.2965H152.226V79.7981H151.885H151.847Z" fill="white"/>
</mask>
<g mask="url(#mask0_307_1474)">
<path d="M151.847 79.7981C151.924 79.9317 151.973 80.0863 151.973 80.2515C151.973 80.7471 151.572 81.1443 151.08 81.1443C150.588 81.1443 150.188 80.7436 150.188 80.2515C150.188 80.0863 150.233 79.9317 150.314 79.7981H149.277C149.355 79.9317 149.404 80.0863 149.404 80.2515C149.404 80.7471 149.003 81.1443 148.511 81.1443C148.019 81.1443 147.618 80.7436 147.618 80.2515C147.618 80.0863 147.664 79.9317 147.745 79.7981H146.708C146.785 79.9317 146.835 80.0863 146.835 80.2515C146.835 80.7471 146.434 81.1443 145.942 81.1443C145.45 81.1443 145.049 80.7436 145.049 80.2515C145.049 80.0863 145.095 79.9317 145.176 79.7981H144.139C144.216 79.9317 144.265 80.0863 144.265 80.2515C144.265 80.7471 143.865 81.1443 143.372 81.1443C142.88 81.1443 142.48 80.7436 142.48 80.2515C142.48 80.0863 142.525 79.9317 142.606 79.7981H141.569C141.647 79.9317 141.696 80.0863 141.696 80.2515C141.696 80.7471 141.295 81.1443 140.803 81.1443C140.311 81.1443 139.91 80.7436 139.91 80.2515C139.91 80.0863 139.956 79.9317 140.037 79.7981H139C139.081 79.9317 139.127 80.0863 139.127 80.2515C139.127 80.7471 138.726 81.1443 138.234 81.1443C137.742 81.1443 137.341 80.7436 137.341 80.2515C137.341 80.0863 137.387 79.9317 137.468 79.7981H136.817V98.2965H152.226V79.7981H151.885H151.847Z" fill="#F5F5F5"/>
<path d="M138.315 99.1224C138.266 99.1224 138.178 94.6411 138.122 89.1123C138.065 83.5835 138.062 79.0986 138.111 79.0986C138.16 79.0986 138.248 83.58 138.304 89.1088C138.361 94.6375 138.364 99.1189 138.315 99.1224V99.1224Z" fill="#E0E0E0"/>
<path d="M139.542 99.1224C139.492 99.1224 139.404 94.6411 139.348 89.1123C139.292 83.5835 139.288 79.0986 139.338 79.0986C139.387 79.0986 139.475 83.58 139.531 89.1088C139.587 94.6375 139.591 99.1189 139.542 99.1224V99.1224Z" fill="#E0E0E0"/>
<path d="M142.041 99.1224C141.991 99.1224 141.903 94.6411 141.847 89.1123C141.791 83.5835 141.787 79.0986 141.837 79.0986C141.886 79.0986 141.974 83.58 142.03 89.1088C142.086 94.6375 142.09 99.1189 142.041 99.1224V99.1224Z" fill="#E0E0E0"/>
<path d="M144.54 99.1224C144.49 99.1224 144.402 94.6411 144.346 89.1123C144.29 83.5835 144.287 79.0986 144.336 79.0986C144.385 79.0986 144.473 83.58 144.529 89.1088C144.585 94.6375 144.589 99.1189 144.54 99.1224V99.1224Z" fill="#E0E0E0"/>
<path d="M147.042 99.1224C146.993 99.1224 146.905 94.6411 146.849 89.1123C146.792 83.5835 146.789 79.0986 146.838 79.0986C146.887 79.0986 146.975 83.58 147.031 89.1088C147.088 94.6375 147.091 99.1189 147.042 99.1224V99.1224Z" fill="#E0E0E0"/>
<path d="M149.411 99.1224C149.362 99.1224 149.274 94.6411 149.218 89.1123C149.162 83.5835 149.158 79.0986 149.207 79.0986C149.257 79.0986 149.344 83.58 149.401 89.1088C149.457 94.6375 149.46 99.1189 149.411 99.1224V99.1224Z" fill="#E0E0E0"/>
<path d="M151.783 99.1224C151.734 99.1224 151.646 94.6411 151.59 89.1123C151.534 83.5835 151.53 79.0986 151.579 79.0986C151.629 79.0986 151.716 83.58 151.773 89.1088C151.829 94.6375 151.832 99.1189 151.783 99.1224V99.1224Z" fill="#E0E0E0"/>
<path d="M140.786 99.0979C140.736 99.0979 140.649 94.6165 140.592 89.0877C140.536 83.559 140.533 79.0741 140.582 79.0741C140.631 79.0741 140.719 83.5555 140.775 89.0842C140.831 94.613 140.835 99.0944 140.786 99.0979V99.0979Z" fill="#E0E0E0"/>
<path d="M143.26 99.0732C143.211 99.0732 143.123 94.5919 143.067 89.0631C143.011 83.5343 143.007 79.0494 143.056 79.0494C143.106 79.0494 143.193 83.5308 143.25 89.0596C143.306 94.5883 143.309 99.0697 143.26 99.0732V99.0732Z" fill="#E0E0E0"/>
<path d="M145.734 99.0452C145.685 99.0452 145.597 94.5638 145.541 89.035C145.485 83.5062 145.481 79.0214 145.531 79.0214C145.58 79.0214 145.668 83.5027 145.724 89.0315C145.78 94.5603 145.784 99.0416 145.734 99.0452V99.0452Z" fill="#E0E0E0"/>
<path d="M148.206 99.0205C148.156 99.0205 148.069 94.5391 148.012 89.0104C147.956 83.4816 147.953 78.9967 148.002 78.9967C148.051 78.9967 148.139 83.4781 148.195 89.0068C148.251 94.5356 148.255 99.017 148.206 99.0205V99.0205Z" fill="#E0E0E0"/>
<path d="M150.578 99.1471C150.528 99.1471 150.441 94.6657 150.384 89.1369C150.328 83.6082 150.325 79.1233 150.374 79.1233C150.423 79.1233 150.511 83.6047 150.567 89.1334C150.623 94.6622 150.627 99.1436 150.578 99.1471V99.1471Z" fill="#E0E0E0"/>
<path d="M155.808 96.6234C155.808 96.6726 151.327 96.7605 145.798 96.8167C140.269 96.873 135.784 96.8765 135.784 96.8237C135.784 96.7745 140.266 96.6867 145.794 96.6339C151.323 96.5777 155.804 96.5742 155.808 96.6269V96.6234Z" fill="#E0E0E0"/>
<path d="M155.91 97.8888C155.91 97.938 151.429 98.0258 145.9 98.0821C140.371 98.1383 135.886 98.1418 135.886 98.0891C135.886 98.0399 140.368 97.952 145.896 97.8958C151.425 97.8396 155.907 97.836 155.91 97.8888Z" fill="#E0E0E0"/>
<path d="M155.783 94.149C155.783 94.1982 151.302 94.2861 145.773 94.3423C140.244 94.3986 135.759 94.4021 135.759 94.3494C135.759 94.2966 140.241 94.2123 145.769 94.156C151.298 94.0998 155.78 94.0963 155.783 94.149Z" fill="#E0E0E0"/>
<path d="M155.759 91.6781C155.759 91.7273 151.277 91.8151 145.749 91.8714C140.22 91.9276 135.735 91.9311 135.735 91.8784C135.735 91.8292 140.216 91.7413 145.745 91.6851C151.274 91.6289 155.755 91.6253 155.759 91.6781Z" fill="#E0E0E0"/>
<path d="M155.734 89.2037C155.734 89.2529 151.253 89.3408 145.724 89.397C140.195 89.4533 135.71 89.4568 135.71 89.404C135.71 89.3548 140.192 89.267 145.721 89.2107C151.249 89.1545 155.731 89.151 155.734 89.2037Z" fill="#E0E0E0"/>
<path d="M155.709 86.7292C155.709 86.7784 151.228 86.8663 145.699 86.9225C140.17 86.9788 135.686 86.9823 135.686 86.9296C135.686 86.8803 140.167 86.7925 145.696 86.7362C151.224 86.68 155.706 86.6765 155.709 86.7292Z" fill="#E0E0E0"/>
<path d="M155.685 84.2584C155.685 84.3076 151.204 84.3955 145.675 84.4517C140.146 84.5079 135.661 84.5115 135.661 84.4587C135.661 84.4095 140.142 84.3217 145.671 84.2654C151.2 84.2092 155.681 84.2057 155.685 84.2584Z" fill="#E0E0E0"/>
<path d="M155.661 81.7839C155.661 81.8331 151.179 81.921 145.65 81.9772C140.122 82.0334 135.637 82.037 135.637 81.9842C135.637 81.935 140.118 81.8472 145.647 81.7909C151.176 81.7347 155.657 81.7312 155.661 81.7839Z" fill="#E0E0E0"/>
<path d="M155.661 80.7928C155.661 80.842 151.179 80.9299 145.65 80.9862C140.122 81.0424 135.637 81.0459 135.637 80.9932C135.637 80.944 140.118 80.8561 145.647 80.8034C151.176 80.7471 155.657 80.7436 155.661 80.7964V80.7928Z" fill="#E0E0E0"/>
<path d="M155.661 83.0493C155.661 83.0985 151.179 83.1863 145.65 83.2391C140.122 83.2953 135.637 83.2988 135.637 83.2461C135.637 83.1969 140.118 83.109 145.647 83.0528C151.176 82.9965 155.657 82.993 155.661 83.0457V83.0493Z" fill="#E0E0E0"/>
<path d="M155.661 85.5026C155.661 85.5518 151.179 85.6397 145.65 85.6924C140.122 85.7487 135.637 85.7522 135.637 85.6995C135.637 85.6502 140.118 85.5624 145.647 85.5061C151.176 85.4499 155.657 85.4464 155.661 85.4991V85.5026Z" fill="#E0E0E0"/>
<path d="M155.661 87.9559C155.661 88.0051 151.179 88.093 145.65 88.1492C140.122 88.2055 135.637 88.209 135.637 88.1563C135.637 88.1071 140.118 88.0192 145.647 87.9665C151.176 87.9102 155.657 87.9067 155.661 87.9594V87.9559Z" fill="#E0E0E0"/>
<path d="M155.661 90.4093C155.661 90.4585 151.179 90.5464 145.65 90.6026C140.122 90.6588 135.637 90.6624 135.637 90.6096C135.637 90.5604 140.118 90.4726 145.647 90.4198C151.176 90.3636 155.657 90.3601 155.661 90.4128V90.4093Z" fill="#E0E0E0"/>
<path d="M155.661 92.8625C155.661 92.9117 151.179 92.9996 145.65 93.0558C140.122 93.1121 135.637 93.1156 135.637 93.0629C135.637 93.0137 140.118 92.9258 145.647 92.8731C151.176 92.8168 155.657 92.8133 155.661 92.8661V92.8625Z" fill="#E0E0E0"/>
<path d="M155.661 95.3159C155.661 95.3651 151.179 95.453 145.65 95.5092C140.122 95.5654 135.637 95.5689 135.637 95.5162C135.637 95.467 140.118 95.3791 145.647 95.3229C151.176 95.2667 155.657 95.2632 155.661 95.3159Z" fill="#E0E0E0"/>
</g>
<path d="M143.425 82.4763C143.538 83.0246 143.773 83.58 144.234 83.8963C144.757 84.2583 145.52 84.2161 146.002 83.8014C146.483 83.3867 146.634 82.638 146.357 82.0651C146.075 81.4957 145.39 81.1583 144.768 81.2848" fill="#E0E0E0"/>
<path d="M143.397 82.4728C143.432 83.109 143.974 83.5975 144.61 83.5624C145.246 83.5273 145.735 82.986 145.699 82.3498C145.664 81.7136 145.123 81.2251 144.487 81.2602C143.851 81.2954 143.362 81.8366 143.397 82.4728Z" fill="#E8505B"/>
<path d="M142.736 82.0475C142.758 82.4306 143.081 82.7223 143.464 82.7012C143.847 82.6801 144.139 82.3568 144.118 81.9737C144.097 81.5906 143.773 81.2988 143.39 81.3199C143.007 81.341 142.715 81.6644 142.736 82.0475Z" fill="#E8505B"/>
<path d="M143.38 82.6872C143.387 82.6591 143.489 82.6697 143.629 82.6169C143.766 82.5677 143.949 82.4412 144.023 82.2338C144.093 82.03 144.041 81.8121 143.97 81.682C143.9 81.5485 143.819 81.4817 143.833 81.4606C143.84 81.4395 143.96 81.4676 144.076 81.6117C144.192 81.7488 144.29 82.0159 144.195 82.2971C144.093 82.5783 143.837 82.7189 143.661 82.7435C143.478 82.7716 143.373 82.7083 143.38 82.6872V82.6872Z" fill="#263238"/>
<path d="M143.96 81.5871C143.984 81.5414 144.156 81.5941 144.35 81.5484C144.543 81.5063 144.677 81.3832 144.719 81.4114C144.764 81.4324 144.666 81.6574 144.392 81.7242C144.114 81.7839 143.928 81.6222 143.96 81.5836V81.5871Z" fill="#263238"/>
<path d="M144.139 83.3375C144.086 83.341 144.04 83.1231 143.857 82.9544C143.678 82.7822 143.46 82.747 143.46 82.6943C143.45 82.6451 143.738 82.5924 143.984 82.8208C144.226 83.0528 144.188 83.3445 144.139 83.3375Z" fill="#263238"/>
<path d="M150.462 86.406C150.462 86.4552 148.001 86.4973 144.972 86.4973C141.942 86.4973 139.481 86.4552 139.481 86.406C139.481 86.3568 141.938 86.3146 144.972 86.3146C148.005 86.3146 150.462 86.3568 150.462 86.406Z" fill="#263238"/>
<path d="M150.462 87.5482C150.462 87.5974 148.001 87.6396 144.972 87.6396C141.942 87.6396 139.481 87.5974 139.481 87.5482C139.481 87.499 141.938 87.4568 144.972 87.4568C148.005 87.4568 150.462 87.499 150.462 87.5482Z" fill="#263238"/>
<path d="M150.462 88.6905C150.462 88.7397 148.001 88.7819 144.972 88.7819C141.942 88.7819 139.481 88.7397 139.481 88.6905C139.481 88.6413 141.938 88.5991 144.972 88.5991C148.005 88.5991 150.462 88.6413 150.462 88.6905Z" fill="#263238"/>
<path d="M150.462 89.8328C150.462 89.882 148.001 89.9242 144.972 89.9242C141.942 89.9242 139.481 89.882 139.481 89.8328C139.481 89.7836 141.938 89.7415 144.972 89.7415C148.005 89.7415 150.462 89.7836 150.462 89.8328Z" fill="#263238"/>
<path d="M150.462 90.9716C150.462 91.0208 148.001 91.063 144.972 91.063C141.942 91.063 139.481 91.0208 139.481 90.9716C139.481 90.9224 141.938 90.8802 144.972 90.8802C148.005 90.8802 150.462 90.9224 150.462 90.9716Z" fill="#263238"/>
<path d="M150.462 92.114C150.462 92.1632 148.001 92.2053 144.972 92.2053C141.942 92.2053 139.481 92.1632 139.481 92.114C139.481 92.0648 141.938 92.0226 144.972 92.0226C148.005 92.0226 150.462 92.0648 150.462 92.114Z" fill="#263238"/>
<path d="M150.462 93.2563C150.462 93.3055 148.001 93.3477 144.972 93.3477C141.942 93.3477 139.481 93.3055 139.481 93.2563C139.481 93.2071 141.938 93.1649 144.972 93.1649C148.005 93.1649 150.462 93.2071 150.462 93.2563Z" fill="#263238"/>
<path d="M67.673 142.436C67.4492 142.436 67.2446 142.284 67.1827 142.06L50.2551 77.5539C50.1837 77.2826 50.3456 77.0065 50.6169 76.9351C50.8883 76.8637 51.1644 77.0255 51.2358 77.2969L68.1585 141.799C68.2299 142.07 68.0681 142.346 67.7967 142.417C67.7539 142.427 67.7111 142.436 67.6682 142.436H67.673Z" fill="#263238"/>
<path d="M63.2033 144.031C62.9795 144.031 62.7748 143.879 62.7129 143.655L45.7854 79.1486C45.714 78.8773 45.8759 78.6012 46.1472 78.5298C46.4185 78.4584 46.6946 78.6202 46.766 78.8916L63.6888 143.393C63.7602 143.665 63.5984 143.941 63.327 144.012C63.2842 144.022 63.2413 144.031 63.1985 144.031H63.2033Z" fill="#263238"/>
<path d="M47.8179 76.3497L47.0039 75.7452L90.4604 17.2605L130.104 24.8579L129.909 25.8528L90.8936 18.3792L47.8179 76.3497Z" fill="#263238"/>
<path d="M93.5025 19.1097L50.752 76.8417L51.5668 77.4451L94.3174 19.7131L93.5025 19.1097Z" fill="#263238"/>
<path d="M89.3799 19.9499C89.8892 21.4542 91.522 22.2587 93.0262 21.7446C94.5305 21.2352 95.335 19.6024 94.8209 18.0982C94.3115 16.594 92.6787 15.7895 91.1745 16.3036C89.6703 16.8129 88.8658 18.4457 89.3799 19.9499Z" fill="#001AFF"/>
<path d="M89.3799 19.9499C89.8892 21.4542 91.522 22.2587 93.0262 21.7446C94.5305 21.2352 95.335 19.6024 94.8209 18.0982C94.3115 16.594 92.6787 15.7895 91.1745 16.3036C89.6703 16.8129 88.8658 18.4457 89.3799 19.9499Z" fill="black" fill-opacity="0.2"/>
<path d="M126.212 20.3811L124.164 16.723L126.969 15.4874L128.511 19.173L126.212 20.3811Z" fill="#001AFF"/>
<path d="M126.212 20.3811L124.164 16.723L126.969 15.4874L128.511 19.173L126.212 20.3811Z" fill="black" fill-opacity="0.2"/>
<g opacity="0.3">
<path d="M126.212 20.3811L124.164 16.723L126.969 15.4874L128.511 19.173L126.212 20.3811Z" fill="black"/>
</g>
<path d="M123.757 20.9477L126.208 36.3404L126.239 57.8171L162.236 38.913L141.024 27.6695L130.245 17.5388L123.757 20.9477Z" fill="#001AFF"/>
<path d="M123.757 20.9477L126.208 36.3404L126.239 57.8171L162.236 38.913L141.024 27.6695L130.245 17.5388L123.757 20.9477Z" fill="black" fill-opacity="0.2"/>
<path d="M45 78.0633C45 79.8246 46.4281 81.2574 48.1941 81.2574C49.9602 81.2574 51.3883 79.8293 51.3883 78.0633C51.3883 76.2972 49.9602 74.8691 48.1941 74.8691C46.4281 74.8691 45 76.2972 45 78.0633Z" fill="#001AFF"/>
<path d="M45 78.0633C45 79.8246 46.4281 81.2574 48.1941 81.2574C49.9602 81.2574 51.3883 79.8293 51.3883 78.0633C51.3883 76.2972 49.9602 74.8691 48.1941 74.8691C46.4281 74.8691 45 76.2972 45 78.0633Z" fill="black" fill-opacity="0.2"/>
<path d="M54.9298 155.342C54.9203 155.127 54.8965 154.918 54.8965 154.704C54.8965 147.649 60.6136 141.932 67.6683 141.932C74.723 141.932 80.4401 147.649 80.4401 154.704C80.4401 154.918 80.4163 155.127 80.4068 155.342H54.9298Z" fill="#001AFF"/>
<path d="M54.9298 155.342C54.9203 155.127 54.8965 154.918 54.8965 154.704C54.8965 147.649 60.6136 141.932 67.6683 141.932C74.723 141.932 80.4401 147.649 80.4401 154.704C80.4401 154.918 80.4163 155.127 80.4068 155.342H54.9298Z" fill="black" fill-opacity="0.2"/>
<path d="M165.416 151.395C165.3 151.42 164.808 151.922 165.515 152.72C166.221 153.518 170.478 155.701 171.265 154.397C172.052 153.093 170.154 152.186 170.154 152.186L165.416 151.395V151.395Z" fill="#FFBE9D"/>
<path d="M170.095 149.989C170.095 149.989 174.488 149.504 176.281 149.733C178.228 149.982 180.288 148.998 181.511 147.659C182.734 146.316 183.054 144.552 183.054 144.552L185.848 142.594C185.848 142.594 186.15 135.948 181.718 137.023L176.541 137.206C176.541 137.206 166.355 138.893 164.777 140.162C164.777 140.162 162.858 142.025 162.299 142.749C162.088 143.019 161.905 145.761 163.852 146.692C163.852 146.692 162.707 148.162 163.715 148.988L164.19 149.35C164.19 149.35 163.533 150.812 164.151 151.233C164.77 151.655 169.659 153.135 171.047 152.168C172.435 151.202 170.826 150.088 170.091 149.989" fill="#FFBE9D"/>
<path d="M164.618 146.436C164.618 146.436 164.826 146.45 165.195 146.499C165.564 146.548 166.098 146.611 166.759 146.661C167.089 146.685 167.451 146.703 167.841 146.713C168.232 146.724 168.65 146.71 169.096 146.742C169.539 146.78 170.024 146.865 170.442 147.167C170.836 147.459 171.177 147.954 171.1 148.52C171.061 148.798 170.903 149.04 170.706 149.216C170.506 149.388 170.274 149.504 170.042 149.585C169.571 149.747 169.107 149.792 168.664 149.838C167.778 149.912 166.98 149.863 166.316 149.792C165.652 149.722 165.121 149.634 164.752 149.571C164.386 149.508 164.183 149.465 164.186 149.451C164.186 149.437 164.393 149.458 164.763 149.501C165.132 149.539 165.666 149.61 166.327 149.662C166.987 149.715 167.778 149.75 168.646 149.669C169.079 149.62 169.539 149.567 169.978 149.413C170.196 149.335 170.407 149.226 170.583 149.075C170.752 148.924 170.885 148.717 170.917 148.488C170.984 148.024 170.692 147.571 170.333 147.304C169.968 147.033 169.507 146.942 169.082 146.9C168.65 146.861 168.232 146.872 167.838 146.854C167.444 146.84 167.079 146.812 166.748 146.78C166.084 146.717 165.55 146.629 165.184 146.562C164.819 146.492 164.618 146.443 164.618 146.429V146.436Z" fill="#EB996E"/>
<path d="M164.26 143.262C164.26 143.262 164.467 143.276 164.833 143.325C165.198 143.374 165.733 143.445 166.39 143.501C167.047 143.557 167.834 143.603 168.71 143.603C169.142 143.61 169.63 143.578 170.098 143.81C170.326 143.926 170.527 144.126 170.625 144.376C170.727 144.622 170.745 144.9 170.699 145.163C170.601 145.701 170.224 146.123 169.81 146.383C169.391 146.65 168.92 146.773 168.478 146.819C167.585 146.896 166.798 146.759 166.14 146.71C165.504 146.647 164.977 146.59 164.58 146.552C164.211 146.51 164.007 146.481 164.01 146.467C164.014 146.453 164.218 146.46 164.587 146.478C164.987 146.502 165.515 146.538 166.154 146.58C166.815 146.611 167.606 146.734 168.464 146.65C168.889 146.604 169.332 146.481 169.718 146.232C170.101 145.989 170.439 145.603 170.523 145.132C170.618 144.664 170.432 144.162 170.021 143.972C169.62 143.768 169.149 143.782 168.717 143.775C167.838 143.764 167.047 143.708 166.386 143.634C165.726 143.561 165.195 143.469 164.829 143.399C164.464 143.329 164.267 143.276 164.267 143.265L164.26 143.262Z" fill="#EB996E"/>
<path d="M166.527 143.649C166.475 143.659 166.352 143.276 166.127 142.837C165.905 142.397 165.666 142.07 165.705 142.039C165.74 142.004 166.056 142.292 166.288 142.756C166.524 143.216 166.573 143.642 166.524 143.649H166.527Z" fill="#EB996E"/>
<path d="M179.968 137.29L175.813 136.738C175.813 136.738 164.074 134.345 163.958 134.654C163.842 134.963 163.265 135.072 163.698 136.331C164.13 137.589 170.906 138.707 171.209 139.107C171.511 139.508 171.725 141.838 174.386 142.91C177.047 143.979 178.695 143.62 178.695 143.62" fill="#FFBE9D"/>
<path d="M178.695 143.617C178.695 143.617 178.667 143.631 178.607 143.641C178.548 143.652 178.456 143.666 178.337 143.68C178.098 143.705 177.746 143.715 177.293 143.68C176.839 143.645 176.288 143.561 175.665 143.392C175.047 143.216 174.337 143.002 173.623 142.598C172.91 142.2 172.246 141.54 171.792 140.686C171.56 140.264 171.402 139.782 171.226 139.318C171.205 139.259 171.177 139.209 171.149 139.164C171.128 139.132 171.082 139.114 171.026 139.086C170.913 139.037 170.79 138.998 170.671 138.96C170.425 138.886 170.168 138.816 169.912 138.749C168.878 138.482 167.785 138.222 166.668 137.891C166.109 137.726 165.543 137.547 164.98 137.318C164.699 137.202 164.422 137.076 164.154 136.911C164.021 136.83 163.894 136.731 163.775 136.612C163.722 136.545 163.666 136.482 163.631 136.398C163.592 136.317 163.578 136.246 163.553 136.169C163.469 135.87 163.399 135.54 163.497 135.213C163.543 135.048 163.652 134.907 163.75 134.795C163.799 134.739 163.845 134.686 163.866 134.633C163.877 134.619 163.859 134.64 163.894 134.587C163.937 134.545 163.947 134.552 163.965 134.545C164 134.535 164.014 134.538 164.042 134.535C164.084 134.535 164.126 134.535 164.165 134.535C164.78 134.573 165.357 134.679 165.936 134.767C167.086 134.956 168.189 135.16 169.24 135.361C171.342 135.761 173.23 136.141 174.811 136.464C175.208 136.542 175.585 136.633 175.94 136.693C176.298 136.742 176.639 136.791 176.959 136.837C177.592 136.928 178.136 137.006 178.59 137.069C179.026 137.136 179.37 137.185 179.62 137.223C179.729 137.241 179.816 137.255 179.887 137.269C179.946 137.28 179.978 137.287 179.978 137.29C179.978 137.294 179.946 137.29 179.887 137.29C179.816 137.283 179.725 137.273 179.616 137.262C179.366 137.234 179.019 137.192 178.583 137.143C178.129 137.086 177.581 137.02 176.948 136.942C176.628 136.904 176.288 136.858 175.929 136.812C175.567 136.756 175.191 136.672 174.794 136.598C173.202 136.292 171.314 135.934 169.216 135.533C168.165 135.34 167.061 135.139 165.915 134.949C165.342 134.862 164.755 134.756 164.169 134.721C164.133 134.721 164.098 134.721 164.063 134.721C164.053 134.721 164.028 134.721 164.028 134.724C164.028 134.717 164.031 134.739 164.017 134.71C163.996 134.679 164.014 134.682 164 134.668C163.996 134.665 163.989 134.661 163.986 134.658C164.126 134.71 164.021 134.675 164.053 134.689L164.045 134.707C164.007 134.795 163.951 134.858 163.901 134.914C163.803 135.027 163.722 135.136 163.683 135.266C163.606 135.529 163.659 135.832 163.743 136.116C163.789 136.271 163.824 136.387 163.926 136.489C164.024 136.587 164.14 136.679 164.267 136.756C164.516 136.911 164.791 137.037 165.065 137.15C165.617 137.375 166.179 137.554 166.734 137.719C167.845 138.049 168.938 138.31 169.971 138.584C170.232 138.654 170.485 138.721 170.738 138.802C170.864 138.84 170.987 138.882 171.11 138.935C171.166 138.963 171.247 138.995 171.3 139.069C171.342 139.132 171.37 139.195 171.391 139.255C171.571 139.74 171.718 140.197 171.943 140.612C172.376 141.445 173.012 142.088 173.704 142.482C174.393 142.882 175.096 143.107 175.708 143.287C176.323 143.462 176.867 143.557 177.314 143.603C177.76 143.649 178.112 143.649 178.347 143.638C178.467 143.634 178.555 143.624 178.618 143.62C178.678 143.613 178.709 143.61 178.709 143.613L178.695 143.617Z" fill="#EB996E"/>
<path d="M168.815 149.782C168.815 149.782 168.97 149.764 169.248 149.803C169.522 149.842 169.923 149.929 170.383 150.14C170.611 150.249 170.854 150.376 171.093 150.562C171.321 150.745 171.575 151.005 171.613 151.378C171.655 151.75 171.413 152.112 171.093 152.305C170.763 152.513 170.358 152.548 169.979 152.537C168.46 152.446 167.104 152.221 166.141 151.972C165.659 151.849 165.276 151.722 165.016 151.627C164.756 151.532 164.615 151.465 164.619 151.455C164.622 151.441 164.77 151.483 165.037 151.56C165.304 151.638 165.687 151.74 166.169 151.849C167.128 152.063 168.485 152.267 169.982 152.358C170.348 152.372 170.717 152.334 170.995 152.158C171.276 151.989 171.473 151.69 171.441 151.395C171.416 151.1 171.205 150.857 170.995 150.682C170.777 150.502 170.541 150.372 170.323 150.26C169.441 149.828 168.805 149.824 168.812 149.785L168.815 149.782Z" fill="#EB996E"/>
<path d="M199.376 125.786C199.376 125.786 204.582 117.217 205.752 111.562C206.923 105.907 212.968 96.9369 214.919 94.5961C216.87 92.2552 224.669 89.5242 224.669 89.5242L227.544 87.9742L249.824 86.0165C249.824 86.0165 264.646 87.577 269.131 91.6718C273.616 95.7665 277.127 105.13 277.127 109.808C277.127 114.486 281.658 155.022 281.658 155.022L226.753 154.949L227.983 134.964C227.983 134.964 221.351 130.479 219.597 126.577C217.843 122.676 218.817 124.627 218.817 124.627C218.817 124.627 212.592 137.86 210.448 139.42C208.304 140.981 183.367 148.633 183.367 148.633L179.95 135.547L199.373 125.786H199.376Z" fill="#F2F2F3"/>
<path d="M264.2 93.3026C263.599 93.4889 256.162 112.697 255.638 114.444C255.114 116.191 255.638 127.199 255.638 127.199L258.084 131.744C258.084 131.744 257.385 135.065 257.908 136.637L246.9 138.735C246.9 138.735 244.106 136.812 241.484 138.735L228.497 139.831C228.497 139.831 232.31 139.874 231.175 145.722C230.064 151.451 229.217 152.71 229.217 152.71L274.857 151.669C274.857 151.669 279.925 151.42 279.155 141.666C278.382 131.916 276.206 105.021 276.206 105.021C276.206 105.021 272.878 90.6103 264.2 93.3026V93.3026Z" fill="#F2F2F3"/>
<path d="M255.536 125.667C255.536 125.667 255.493 125.586 255.427 125.431C255.356 125.256 255.265 125.027 255.149 124.739C255.029 124.44 254.885 124.068 254.745 123.632C254.601 123.196 254.418 122.704 254.27 122.145C254.109 121.59 253.933 120.982 253.785 120.314C253.617 119.653 253.483 118.94 253.339 118.187C253.082 116.68 252.878 115.003 252.805 113.235C252.741 111.467 252.812 109.78 252.956 108.255C253.047 107.495 253.121 106.768 253.244 106.1C253.3 105.766 253.346 105.439 253.409 105.13C253.476 104.821 253.536 104.525 253.595 104.241C253.704 103.671 253.852 103.169 253.964 102.722C254.073 102.276 254.189 101.896 254.291 101.591C254.386 101.295 254.464 101.06 254.52 100.881C254.576 100.719 254.604 100.635 254.611 100.638C254.618 100.638 254.597 100.726 254.555 100.891C254.506 101.074 254.439 101.309 254.358 101.608C254.267 101.917 254.161 102.297 254.059 102.747C253.954 103.193 253.817 103.696 253.718 104.265C253.662 104.55 253.602 104.845 253.543 105.155C253.483 105.464 253.441 105.791 253.388 106.125C253.272 106.792 253.205 107.517 253.121 108.272C252.987 109.791 252.924 111.467 252.984 113.228C253.058 114.985 253.254 116.655 253.501 118.159C253.638 118.908 253.764 119.621 253.929 120.282C254.07 120.947 254.239 121.555 254.393 122.11C254.534 122.669 254.71 123.161 254.843 123.6C254.973 124.04 255.107 124.412 255.216 124.714C255.318 125.006 255.399 125.238 255.462 125.417C255.514 125.579 255.543 125.663 255.536 125.667V125.667Z" fill="#263238"/>
<path d="M271.416 146.495C271.416 146.495 271.37 146.453 271.3 146.362C271.219 146.253 271.117 146.119 270.994 145.958C270.864 145.778 270.706 145.564 270.505 145.325C270.308 145.083 270.094 144.801 269.83 144.51C269.574 144.214 269.293 143.891 268.966 143.564C268.653 143.223 268.291 142.889 267.918 142.534C267.152 141.838 266.27 141.114 265.293 140.429C264.305 139.754 263.317 139.185 262.397 138.714C261.929 138.489 261.49 138.267 261.061 138.095C260.639 137.905 260.238 137.758 259.869 137.621C259.504 137.477 259.163 137.375 258.868 137.276C258.572 137.174 258.316 137.1 258.105 137.044C257.912 136.988 257.75 136.939 257.62 136.9C257.511 136.865 257.451 136.844 257.455 136.837C257.458 136.83 257.518 136.837 257.63 136.861C257.764 136.89 257.929 136.928 258.126 136.97C258.34 137.016 258.604 137.083 258.903 137.174C259.202 137.266 259.546 137.357 259.915 137.494C260.288 137.624 260.695 137.768 261.121 137.951C261.553 138.12 261.999 138.334 262.47 138.556C263.402 139.023 264.403 139.592 265.395 140.271C266.382 140.96 267.268 141.694 268.031 142.401C268.403 142.766 268.765 143.104 269.075 143.452C269.398 143.786 269.676 144.116 269.929 144.418C270.189 144.713 270.396 145.005 270.586 145.255C270.779 145.501 270.93 145.722 271.05 145.908C271.162 146.077 271.254 146.218 271.328 146.334C271.391 146.432 271.419 146.485 271.416 146.488V146.495Z" fill="#263238"/>
<path d="M275.257 143.933C275.229 143.958 274.825 143.497 274.066 142.879C273.686 142.566 273.208 142.232 272.656 141.895C272.098 141.568 271.461 141.248 270.762 140.981C270.062 140.721 269.374 140.538 268.737 140.411C268.101 140.295 267.518 140.229 267.029 140.211C266.049 140.169 265.441 140.246 265.437 140.211C265.437 140.197 265.585 140.172 265.862 140.141C265.999 140.12 266.168 140.102 266.365 140.099C266.562 140.092 266.787 140.074 267.033 140.085C267.528 140.085 268.119 140.137 268.769 140.246C269.416 140.366 270.115 140.545 270.829 140.812C271.535 141.086 272.182 141.417 272.744 141.754C273.3 142.102 273.778 142.454 274.15 142.784C274.343 142.939 274.498 143.104 274.642 143.237C274.786 143.371 274.899 143.497 274.99 143.603C275.173 143.81 275.268 143.93 275.261 143.937L275.257 143.933Z" fill="#263238"/>
<path d="M271.04 137.512C271.015 137.543 270.477 137.118 269.493 136.629C269.247 136.51 268.977 136.38 268.674 136.271C268.379 136.144 268.045 136.05 267.701 135.941C267.005 135.751 266.221 135.596 265.388 135.533C264.555 135.48 263.757 135.526 263.04 135.621C262.685 135.684 262.344 135.73 262.031 135.818C261.715 135.884 261.43 135.976 261.17 136.06C260.13 136.408 259.539 136.76 259.518 136.721C259.511 136.71 259.659 136.622 259.93 136.471C260.063 136.394 260.232 136.303 260.436 136.218C260.64 136.13 260.864 136.018 261.128 135.937C261.388 135.842 261.676 135.744 261.996 135.67C262.309 135.575 262.653 135.522 263.016 135.456C263.743 135.35 264.551 135.301 265.402 135.354C266.249 135.417 267.043 135.579 267.75 135.779C268.098 135.895 268.432 135.997 268.731 136.13C269.036 136.246 269.307 136.387 269.553 136.513C269.803 136.633 270.013 136.774 270.2 136.89C270.39 137.002 270.544 137.111 270.667 137.209C270.913 137.396 271.047 137.505 271.04 137.512V137.512Z" fill="#263238"/>
<path d="M244.345 151.915C244.303 151.905 244.573 151.181 244.668 149.961C244.728 149.353 244.714 148.622 244.651 147.814C244.577 147.009 244.422 146.13 244.19 145.223C243.951 144.32 243.638 143.483 243.315 142.742C242.964 142.014 242.626 141.364 242.271 140.865C241.586 139.849 241.002 139.346 241.034 139.315C241.041 139.304 241.185 139.431 241.435 139.67C241.565 139.782 241.705 139.944 241.863 140.13C241.944 140.225 242.029 140.324 242.12 140.429C242.204 140.538 242.289 140.661 242.38 140.788C242.753 141.283 243.108 141.933 243.473 142.668C243.807 143.417 244.127 144.26 244.373 145.174C244.605 146.091 244.756 146.981 244.823 147.796C244.876 148.611 244.879 149.353 244.802 149.968C244.784 150.119 244.77 150.267 244.753 150.408C244.724 150.545 244.7 150.671 244.675 150.794C244.626 151.037 244.587 151.244 244.528 151.406C244.422 151.736 244.359 151.915 244.348 151.912L244.345 151.915Z" fill="#263238"/>
<path d="M236.693 138.724C236.693 138.724 236.682 138.689 236.672 138.622C236.658 138.545 236.644 138.447 236.622 138.324C236.584 138.046 236.528 137.659 236.457 137.167C236.317 136.162 236.127 134.703 235.912 132.904C235.48 129.301 234.963 124.31 234.559 118.785C234.159 113.26 233.944 108.244 233.849 104.617C233.8 102.803 233.775 101.334 233.772 100.318C233.772 99.8191 233.772 99.4289 233.772 99.1477C233.772 99.0212 233.772 98.9228 233.775 98.8455C233.775 98.7787 233.779 98.7435 233.783 98.7435C233.783 98.7435 233.79 98.7787 233.793 98.8455C233.797 98.9228 233.8 99.0247 233.807 99.1477C233.818 99.4289 233.828 99.8191 233.846 100.315C233.877 101.341 233.923 102.807 233.983 104.61C234.109 108.237 234.345 113.246 234.746 118.771C235.15 124.293 235.645 129.284 236.046 132.89C236.25 134.682 236.419 136.137 236.535 137.16C236.591 137.656 236.637 138.042 236.668 138.32C236.679 138.443 236.689 138.545 236.696 138.622C236.703 138.689 236.703 138.724 236.7 138.728L236.693 138.724Z" fill="#263238"/>
<path d="M218.764 124.88C218.764 124.88 218.669 124.693 218.525 124.342C218.384 123.99 218.174 123.488 217.91 122.866C217.383 121.625 216.595 119.934 215.653 118.099C214.712 116.282 213.857 114.637 213.221 113.414C212.915 112.813 212.673 112.321 212.511 111.98C212.35 111.639 212.265 111.446 212.276 111.442C212.286 111.435 212.392 111.618 212.575 111.949C212.768 112.307 213.028 112.782 213.337 113.355C213.977 114.546 214.873 116.18 215.815 118.019C216.757 119.857 217.527 121.562 218.026 122.816C218.276 123.445 218.469 123.959 218.588 124.317C218.711 124.676 218.771 124.876 218.761 124.88H218.764Z" fill="#263238"/>
<path d="M215.959 118.384C215.959 118.384 215.843 118.374 215.639 118.324C215.439 118.275 215.147 118.191 214.796 118.075C214.089 117.846 213.126 117.474 212.11 116.971C211.091 116.465 210.216 115.927 209.604 115.502C209.298 115.291 209.056 115.112 208.894 114.982C208.733 114.852 208.645 114.774 208.652 114.767C208.669 114.746 209.049 115.003 209.675 115.397C210.3 115.79 211.182 116.307 212.191 116.81C213.2 117.309 214.149 117.695 214.838 117.955C215.53 118.215 215.966 118.36 215.956 118.388L215.959 118.384Z" fill="#263238"/>
<path d="M211.246 130.391C211.246 130.391 211.105 130.317 210.87 130.162C210.634 130.004 210.29 129.779 209.861 129.519C209 128.992 207.759 128.335 206.318 127.793C204.873 127.256 203.51 126.936 202.511 126.767C202.012 126.683 201.608 126.623 201.327 126.588C201.046 126.553 200.891 126.524 200.891 126.514C200.891 126.5 201.049 126.503 201.334 126.514C201.619 126.524 202.03 126.567 202.533 126.633C203.541 126.77 204.923 127.073 206.381 127.618C207.84 128.166 209.081 128.848 209.931 129.403C210.356 129.681 210.694 129.92 210.915 130.099C211.14 130.275 211.26 130.377 211.253 130.387L211.246 130.391Z" fill="#263238"/>
<path d="M249.248 86.0446C249.248 86.0446 249.248 86.143 249.227 86.3293C249.202 86.5331 249.174 86.8038 249.135 87.1447C249.044 87.8512 248.917 88.874 248.703 90.1323C248.489 91.387 248.193 92.8808 247.719 94.5047C247.23 96.118 246.555 97.8683 245.508 99.5238C244.967 100.395 244.327 101.169 243.677 101.872L243.606 101.949L243.543 101.861C242.601 100.599 241.399 99.6749 240.208 99.095C239.617 98.7892 239.013 98.6029 238.45 98.4483C237.881 98.3217 237.343 98.2374 236.851 98.2339C235.867 98.2093 235.083 98.378 234.573 98.5537C234.064 98.733 233.793 98.8665 233.786 98.849C233.786 98.8454 233.849 98.8103 233.979 98.747C234.11 98.6908 234.292 98.5783 234.556 98.494C235.066 98.2971 235.856 98.1073 236.858 98.1179C237.357 98.1179 237.905 98.1917 238.485 98.3147C239.058 98.4658 239.673 98.6521 240.278 98.9544C241.494 99.5343 242.721 100.469 243.691 101.756L243.554 101.745C244.193 101.049 244.826 100.287 245.36 99.4254C246.394 97.791 247.069 96.0547 247.564 94.4555C248.046 92.8457 248.351 91.3624 248.583 90.1112C248.815 88.8599 248.96 87.8406 249.072 87.1377C249.125 86.8002 249.167 86.5296 249.199 86.3257C249.23 86.1395 249.248 86.0446 249.255 86.0446H249.248Z" fill="#263238"/>
<path d="M249.546 86.266L246.162 81.7776L242.482 81.8936L230.524 88.2097L249.546 86.266Z" fill="#F2F2F3"/>
<path d="M233.779 98.8489C233.779 98.8489 233.713 98.8525 233.586 98.8454C233.459 98.8349 233.273 98.8103 233.034 98.754C232.56 98.6521 231.895 98.385 231.147 97.9456C230.774 97.7207 230.356 97.5133 229.864 97.4149C229.375 97.3095 228.827 97.2954 228.279 97.4149C227.182 97.6363 226.082 98.4939 225.625 99.7241L225.432 100.241L225.446 99.6925C225.449 99.5554 225.453 99.4113 225.456 99.2637C225.498 96.4975 225.502 93.9845 225.614 92.1708C225.664 91.264 225.737 90.5294 225.811 90.0268C225.843 89.7737 225.882 89.5804 225.91 89.4504C225.938 89.3203 225.955 89.25 225.959 89.2535C225.976 89.2535 225.927 89.5347 225.878 90.0373C225.825 90.54 225.773 91.2746 225.737 92.1779C225.657 93.9915 225.674 96.4975 225.632 99.2707C225.628 99.4183 225.625 99.566 225.621 99.703L225.446 99.6679C225.931 98.3744 227.084 97.4852 228.236 97.2602C229.4 97.0177 230.489 97.3622 231.203 97.8472C231.941 98.2971 232.581 98.5748 233.045 98.6978C233.509 98.8279 233.776 98.8419 233.772 98.8595L233.779 98.8489Z" fill="#263238"/>
<path d="M246.162 60.0421V86.9901C246.162 88.5295 245.617 90.0198 244.626 91.1973C243.104 93.0039 241.273 94.5223 239.217 95.6786L233.783 98.74L229.287 94.7261C227.966 93.5451 227.182 91.8791 227.112 90.1077C227.034 88.1429 227.034 86.1676 227.034 86.1676C227.034 86.1676 219.418 85.6193 218.701 78.1082C218.363 74.5723 218.258 67.3283 218.24 60.6502C218.219 53.0336 224.061 46.6824 231.649 46.0532L231.864 46.0357C239.726 45.8459 246.193 52.1795 246.165 60.0456L246.162 60.0421Z" fill="#FFBE9D"/>
<path d="M227.006 86.0586C227.006 86.0586 231.79 86.0516 236.581 82.4595C236.581 82.4595 234.711 88.0621 227.15 88.0058L227.006 86.0551V86.0586Z" fill="#EB996E"/>
<path d="M220.764 65.6973C220.792 66.2667 221.295 66.7131 221.889 66.6955C222.483 66.678 222.943 66.2035 222.915 65.6341C222.887 65.0647 222.384 64.6183 221.79 64.6359C221.196 64.6535 220.736 65.1279 220.764 65.6973Z" fill="#263238"/>
<path d="M231.758 65.2335C231.786 65.8029 232.289 66.2493 232.883 66.2317C233.477 66.2141 233.937 65.7396 233.909 65.1702C233.881 64.6008 233.378 64.1544 232.784 64.172C232.19 64.1896 231.73 64.6641 231.758 65.2335Z" fill="#263238"/>
<path d="M228.043 71.8729C228.043 71.8061 227.315 71.7428 226.138 71.6901C225.839 71.6831 225.558 71.6479 225.491 71.4511C225.403 71.2437 225.502 70.9168 225.614 70.5619C225.832 69.8237 226.061 69.054 226.3 68.2421C227.245 64.9417 227.906 62.2388 227.772 62.2037C227.639 62.165 226.763 64.8116 225.818 68.112C225.593 68.924 225.375 69.7007 225.168 70.4423C225.083 70.7868 224.922 71.184 225.112 71.6128C225.21 71.8272 225.438 71.9678 225.632 72.0029C225.825 72.0451 225.99 72.0346 226.138 72.031C227.315 71.9959 228.043 71.9432 228.039 71.8764L228.043 71.8729Z" fill="#263238"/>
<path d="M231.512 72.3895C231.322 72.393 231.424 73.6478 230.426 74.6284C229.428 75.6091 228.078 75.5809 228.085 75.7567C228.075 75.8375 228.402 75.9746 228.967 75.943C229.523 75.9149 230.317 75.6723 230.929 75.0713C231.537 74.4703 231.758 73.7181 231.758 73.2014C231.762 72.6742 231.596 72.3755 231.512 72.3895V72.3895Z" fill="#263238"/>
<path d="M230.855 58.4499C230.996 58.7557 232.138 58.5096 233.505 58.5624C234.876 58.587 236.001 58.8927 236.159 58.594C236.229 58.4534 236.011 58.1722 235.547 57.9051C235.083 57.638 234.363 57.406 233.54 57.3849C232.718 57.3638 231.983 57.5536 231.509 57.7961C231.027 58.0387 230.799 58.3058 230.858 58.4499H230.855Z" fill="#263238"/>
<path d="M220.3 60.2987C220.525 60.5447 221.298 60.2073 222.254 60.1124C223.207 59.9859 224.036 60.1441 224.201 59.8523C224.272 59.7117 224.124 59.4587 223.748 59.2407C223.379 59.0228 222.778 58.8682 222.121 58.942C221.463 59.0158 220.915 59.304 220.602 59.5993C220.286 59.898 220.198 60.1757 220.297 60.2987H220.3Z" fill="#263238"/>
<path d="M237.315 52.4712C237.315 52.4712 237.344 52.4923 237.358 52.4993C238.633 53.3464 239.537 54.6504 239.874 56.1442C239.885 56.1969 239.899 56.2461 239.909 56.2953C240.38 58.4147 240.507 60.6009 240.999 62.7168C241.491 64.8327 241.4 66.4495 243.519 66.9275C244.855 67.2298 245.993 66.4847 246.471 65.729C246.654 65.4373 246.661 65.0682 246.658 64.7238C246.63 59.5113 247.677 57.4868 247.22 52.074C247.097 50.6013 246.289 49.2727 245.016 48.5135C243.814 47.7965 242.363 47.0654 241.15 47.7684C239.937 48.4714 238.503 50.9633 237.607 52.0424" fill="#683100"/>
<path d="M243.909 63.6553C244.032 63.5885 248.949 61.701 249.209 66.8537C249.47 72.0099 244.243 71.2086 244.226 71.0609C244.208 70.9133 243.909 63.6553 243.909 63.6553Z" fill="#FFBE9D"/>
<path d="M245.702 69.0259C245.723 69.0083 245.793 69.0857 245.951 69.1454C246.103 69.2052 246.359 69.2403 246.623 69.1243C247.157 68.8959 247.572 68.0101 247.551 67.0787C247.54 66.6077 247.421 66.1684 247.234 65.8064C247.059 65.4373 246.802 65.1878 246.524 65.1526C246.247 65.1034 246.064 65.2756 246.008 65.4268C245.944 65.5744 245.983 65.6763 245.959 65.6869C245.944 65.7009 245.843 65.606 245.874 65.3916C245.892 65.2897 245.944 65.1632 246.06 65.0577C246.18 64.9523 246.359 64.889 246.549 64.9031C246.946 64.9101 247.326 65.2581 247.526 65.6552C247.751 66.0524 247.899 66.548 247.909 67.0752C247.93 68.1156 247.445 69.1138 246.711 69.3669C246.352 69.4793 246.046 69.3844 245.881 69.272C245.716 69.1525 245.681 69.04 245.698 69.0294L245.702 69.0259Z" fill="#EB996E"/>
<path d="M241.389 48.5487C242.485 46.3871 238.77 43.7194 236.169 43.1324C233.565 42.5419 230.324 44.0568 227.871 45.1042C226.321 45.765 224.796 46.6331 223.112 46.7034C221.984 46.7491 220.877 46.4293 219.783 46.1411C218.69 45.8529 217.559 45.5928 216.441 45.765C215.323 45.9337 214.216 46.6261 213.879 47.7052C213.538 48.7807 214.269 50.1585 215.393 50.2218C213.907 49.5575 211.931 50.756 211.833 52.3798C211.735 54.0072 213.548 55.4307 215.105 54.9527C214.328 54.4606 213.285 55.4658 213.45 56.3726C213.615 57.2795 214.497 57.8735 215.369 58.1722C217.59 58.9349 220.065 58.4288 222.223 57.4974C224.381 56.566 226.342 55.2339 228.475 54.2497C230.609 53.2656 234.173 51.5222 236.447 52.1162C238.12 52.5556 239.414 54.4184 240.296 53.9123C241.15 53.4202 241.635 52.4466 241.73 51.466C241.828 50.4854 241.607 49.5083 241.385 48.5487" fill="#683100"/>
<path d="M214.761 50.1268C214.803 50.0987 215.056 50.4853 215.661 51.0406C216.262 51.5854 217.26 52.2814 218.669 52.6434C220.054 53.0019 221.899 53.0019 223.555 52.0388C225.238 51.1109 226.606 49.4203 228.205 47.8C229.801 46.1691 231.737 44.8968 233.755 44.5453C235.758 44.1868 237.688 44.7738 238.812 45.8423C239.944 46.9213 240.264 48.2323 240.254 49.0688C240.254 49.4976 240.169 49.821 240.109 50.0319C240.032 50.2428 239.983 50.3447 239.969 50.3412C239.92 50.3307 240.099 49.8878 240.057 49.0759C240.008 48.285 239.649 47.0724 238.57 46.1094C237.505 45.1604 235.709 44.6472 233.839 45.0093C231.959 45.3642 230.124 46.5698 228.567 48.162C226.996 49.7472 225.586 51.4835 223.783 52.4501C221.991 53.4588 220.012 53.4131 218.574 52.9914C217.105 52.5661 216.1 51.7893 215.523 51.1848C215.235 50.8754 215.035 50.6189 214.922 50.4291C214.803 50.2428 214.75 50.1409 214.764 50.1303L214.761 50.1268Z" fill="#455A64"/>
<path d="M245.199 63.3214C245.181 63.339 244.967 63.1984 244.738 62.8047C244.51 62.4181 244.302 61.7714 244.327 60.963C244.302 59.297 245.621 57.399 245.617 55.0933C245.638 53.9545 245.346 52.8684 244.795 52.0705C244.246 51.2762 243.448 50.7947 242.749 50.5767C242.039 50.3483 241.42 50.3975 241.013 50.4854C240.605 50.5838 240.39 50.6998 240.369 50.6611C240.355 50.64 240.538 50.4643 240.956 50.2956C241.371 50.1409 242.053 50.0249 242.847 50.2288C243.631 50.4221 244.531 50.9107 245.181 51.7964C245.824 52.6751 246.151 53.8701 246.13 55.0968C246.127 56.3234 245.775 57.4657 245.406 58.4183C245.044 59.3778 244.742 60.2319 244.689 60.977C244.541 62.506 245.276 63.2827 245.202 63.3144L245.199 63.3214Z" fill="#455A64"/>
<path d="M277.166 110.964C277.166 110.964 277.177 111.035 277.187 111.168C277.198 111.309 277.212 111.509 277.233 111.773C277.271 112.311 277.328 113.101 277.398 114.131C277.539 116.198 277.739 119.217 277.999 123.041C278.252 126.872 278.558 131.508 278.909 136.805C278.997 138.13 279.085 139.494 279.18 140.9C279.233 141.599 279.257 142.316 279.292 143.041C279.321 143.403 279.292 143.768 279.282 144.137C279.261 144.503 279.282 144.875 279.219 145.244C279.173 145.613 279.127 145.986 279.082 146.362C279.001 146.731 278.923 147.104 278.843 147.476C278.737 147.842 278.611 148.207 278.495 148.576C278.333 148.928 278.199 149.297 278.01 149.638C277.275 151.005 276.122 152.284 274.526 152.812H274.519H274.505C264.253 152.812 252.524 152.808 240.12 152.805C236.419 152.805 232.774 152.801 229.217 152.798H229.098L229.129 152.682C229.463 151.494 229.794 150.316 230.12 149.149C230.286 148.566 230.447 147.986 230.609 147.406C230.774 146.826 230.939 146.257 231.017 145.673C231.192 144.51 231.073 143.315 230.714 142.222C230.532 141.677 230.268 141.16 229.892 140.738C229.526 140.317 229.017 139.997 228.49 139.916L227.769 139.803L228.49 139.744C233.031 139.361 237.375 138.998 241.477 138.654L241.438 138.668C242.257 138.078 243.255 137.754 244.236 137.807C245.213 137.853 246.144 138.169 246.946 138.668L246.89 138.658C250.858 137.905 254.538 137.209 257.898 136.573L257.849 136.658C257.708 136.229 257.676 135.789 257.659 135.364C257.645 134.939 257.659 134.517 257.694 134.106C257.761 133.283 257.877 132.496 258.028 131.733L258.035 131.772C257.153 130.124 256.341 128.616 255.596 127.224L255.589 127.213V127.203C255.416 123.15 255.353 119.959 255.385 117.776C255.395 116.687 255.438 115.85 255.497 115.288C255.525 115.006 255.554 114.796 255.592 114.655C255.624 114.514 255.641 114.444 255.641 114.444C255.641 114.444 255.631 114.518 255.606 114.659C255.575 114.799 255.55 115.01 255.525 115.291C255.476 115.854 255.445 116.687 255.441 117.776C255.43 119.955 255.504 123.147 255.691 127.196L255.684 127.175C256.436 128.563 257.248 130.067 258.137 131.712L258.147 131.73V131.751C257.993 132.507 257.88 133.294 257.817 134.109C257.785 134.517 257.771 134.932 257.785 135.354C257.803 135.772 257.838 136.204 257.972 136.612L257.996 136.682L257.922 136.696C254.562 137.34 250.882 138.046 246.918 138.805L246.89 138.812L246.861 138.795C246.092 138.313 245.174 138.004 244.232 137.965C243.287 137.916 242.327 138.225 241.537 138.798L241.519 138.812H241.498C237.396 139.164 233.052 139.533 228.511 139.919V139.747C229.115 139.842 229.635 140.183 230.029 140.626C230.423 141.072 230.697 141.61 230.887 142.169C231.256 143.294 231.375 144.51 231.199 145.705C231.122 146.302 230.95 146.886 230.788 147.462C230.627 148.042 230.465 148.622 230.3 149.205C229.973 150.372 229.642 151.55 229.312 152.738L229.224 152.622C232.785 152.622 236.426 152.622 240.127 152.625C252.531 152.636 264.256 152.643 274.512 152.65H274.495C275.243 152.418 275.925 151.958 276.488 151.423C277.05 150.875 277.517 150.246 277.876 149.564C278.062 149.227 278.196 148.865 278.354 148.52C278.47 148.155 278.593 147.796 278.698 147.434C278.779 147.065 278.857 146.699 278.937 146.334C278.983 145.965 279.029 145.596 279.075 145.23C279.134 144.865 279.117 144.496 279.138 144.134C279.148 143.768 279.176 143.406 279.148 143.048C279.117 142.327 279.092 141.617 279.043 140.914C278.955 139.508 278.867 138.144 278.783 136.819C278.445 131.523 278.154 126.883 277.911 123.052C277.672 119.224 277.486 116.205 277.356 114.138C277.296 113.109 277.247 112.318 277.215 111.78C277.201 111.516 277.191 111.312 277.184 111.175C277.177 111.038 277.177 110.972 277.177 110.972L277.166 110.964Z" fill="#263238"/>
<path d="M267.212 91.8124C267.212 91.8124 266.99 91.953 266.586 92.2025C266.182 92.4486 265.613 92.8317 264.959 93.3694C263.644 94.4274 262.059 96.1848 260.748 98.4097C259.434 100.635 258.562 102.817 257.936 104.392C257.634 105.165 257.388 105.798 257.205 106.265C257.124 106.469 257.054 106.638 257.001 106.771C256.952 106.887 256.924 106.947 256.917 106.944C256.91 106.944 256.928 106.877 256.966 106.757C257.012 106.62 257.068 106.448 257.138 106.237C257.293 105.787 257.518 105.14 257.813 104.343C258.411 102.754 259.265 100.554 260.59 98.3148C261.912 96.0723 263.528 94.3079 264.878 93.2675C265.549 92.7403 266.133 92.3712 266.551 92.1428C266.755 92.0233 266.927 91.9459 267.036 91.8897C267.149 91.8335 267.208 91.8089 267.212 91.8159V91.8124Z" fill="#263238"/>
<g opacity="0.3">
<path d="M253.455 105.232C251.961 108.479 251.357 112.17 251.49 115.745C251.624 119.319 252.053 122.901 251.701 126.458C251.35 130.015 250.116 133.649 247.459 136.043C247.139 136.331 246.795 136.608 246.601 136.995C246.408 137.382 246.425 137.909 246.766 138.172C247.069 138.408 247.494 138.352 247.87 138.288C250.415 137.846 252.984 137.533 255.529 137.09C256.074 136.995 257.908 136.637 257.908 136.637C257.908 136.637 257.666 135.241 257.754 134.545C257.834 133.909 258.084 131.744 258.084 131.744C258.01 131.41 257.768 131.157 257.595 130.841C255.922 127.734 255.487 125.431 255.487 125.431C254.618 123.653 254.228 121.871 253.828 120.208C252.71 115.604 252.745 111.063 253.455 105.232" fill="black"/>
</g>
<g opacity="0.3">
<path d="M225.593 99.9842C225.8 100.511 226.011 101.039 226.219 101.566C226.282 101.728 226.363 101.903 226.521 101.967C226.834 102.086 227.083 101.703 227.231 101.401C227.818 100.213 229.034 99.3586 230.349 99.2075C231.417 99.0844 232.514 99.3938 233.565 99.1758C232.633 98.6205 231.695 98.0616 230.661 97.7313C229.632 97.4009 228.486 97.313 227.473 97.6996C226.461 98.0898 225.625 99.0212 225.547 100.1" fill="black"/>
</g>
<g opacity="0.3">
<path d="M234.282 98.6521C235.529 98.6732 236.791 98.6978 238.004 98.986C239.216 99.2742 240.401 99.8577 241.192 100.824C242.042 101.861 242.359 103.218 242.703 104.515C242.77 104.764 242.889 105.06 243.146 105.088C243.301 105.105 243.441 105.01 243.568 104.919C245.67 103.376 247.058 101.007 247.821 98.515C248.58 96.0195 248.756 93.3869 248.798 90.7825C247.793 92.5785 247.357 94.6241 246.692 96.5713C246.028 98.5185 245.051 100.48 243.329 101.605C243.385 101.165 243.213 100.719 242.935 100.371C242.661 100.023 242.292 99.7628 241.912 99.5343C239.596 98.1354 236.675 97.7769 234.088 98.5783" fill="black"/>
</g>
<path d="M228.82 140.053H224.518C224.518 140.053 214.806 136.545 212.81 136.879C211.01 137.181 204.427 141.554 203.137 142.422C202.993 142.517 202.884 142.657 202.824 142.819C202.561 143.533 202.909 144.323 203.608 144.612L203.745 144.668L203.685 144.865C203.612 145.107 203.573 145.381 203.587 145.652C203.636 146.576 204.877 146.858 205.351 146.063L205.102 146.503C205 146.682 204.954 146.886 204.965 147.093L204.986 147.494C205.011 147.94 205.306 148.323 205.731 148.46C206.135 148.59 206.578 148.478 206.863 148.165C207.699 147.248 209.502 145.406 210.722 145.202C211.808 145.023 213.615 144.998 214.708 145.002C215.263 145.002 215.759 145.346 215.963 145.863C215.239 145.916 210.191 148.545 208.406 149.487C207.854 149.778 207.439 150.302 207.369 150.924C207.302 151.483 207.587 152.07 208.691 151.81C211.063 151.255 215.334 149.293 215.334 149.293C215.334 149.293 217.537 148.664 218.964 149.669C220.971 151.086 221.892 151.606 223.614 151.033C225.337 150.46 226.609 149.641 226.609 149.641L230.004 149.304C230.004 149.304 233.213 141.28 228.827 140.049L228.82 140.053Z" fill="#FFBE9D"/>
<path d="M215.994 141.694C215.987 141.733 215.305 141.512 214.17 141.441C213.042 141.364 211.439 141.494 209.843 142.176C208.247 142.858 207.042 143.923 206.318 144.791C205.583 145.659 205.27 146.302 205.239 146.285C205.228 146.281 205.299 146.116 205.453 145.835C205.608 145.554 205.857 145.16 206.216 144.71C206.922 143.81 208.139 142.703 209.769 142.011C211.397 141.315 213.038 141.206 214.177 141.315C214.75 141.367 215.207 141.459 215.52 141.543C215.829 141.624 215.998 141.687 215.994 141.698V141.694Z" fill="#EB996E"/>
<path d="M214.968 139.336C214.958 139.382 214.265 139.041 213.07 139.006C211.882 138.953 210.213 139.311 208.652 140.257C207.091 141.206 205.925 142.408 205.092 143.269C204.698 143.687 204.371 144.035 204.114 144.306C203.882 144.552 203.752 144.682 203.742 144.675C203.731 144.668 203.847 144.52 204.062 144.26C204.276 144 204.592 143.631 204.997 143.181C205.805 142.295 206.968 141.065 208.557 140.102C210.149 139.139 211.865 138.795 213.074 138.879C213.682 138.914 214.163 139.027 214.483 139.136C214.645 139.181 214.764 139.245 214.845 139.276C214.926 139.311 214.968 139.332 214.965 139.339L214.968 139.336Z" fill="#EB996E"/>
<path d="M168.05 155.535L156.388 126.26C155.354 123.744 157.206 120.981 159.927 120.981H196.259C197.897 120.981 199.356 122.025 199.883 123.578L209.9 153.106L221.601 153.162C222.55 153.166 223.32 154.558 223.32 155.507L210.442 155.359L168.05 155.535V155.535Z" fill="#263238"/>
<path d="M184.843 139.469C184.843 140.773 183.785 141.827 182.485 141.827C181.184 141.827 180.126 140.769 180.126 139.469C180.126 138.168 181.184 137.11 182.485 137.11C183.785 137.11 184.843 138.168 184.843 139.469Z" fill="#F5F5F5"/>
<path d="M305.424 155.363C305.424 155.412 257.109 155.454 197.526 155.454C137.944 155.454 89.6187 155.412 89.6187 155.363C89.6187 155.314 137.922 155.271 197.526 155.271C257.13 155.271 305.424 155.314 305.424 155.363Z" fill="#263238"/>
<path d="M139.903 143.293C136.466 141.3 134.628 136.664 134.491 132.872C134.354 129.079 135.932 125.118 139.046 122.942C142.322 120.651 146.989 120.693 150.36 122.847C153.727 125.005 155.699 129.076 155.548 133.072C155.397 137.068 153.217 140.885 149.994 143.254" fill="#10995B"/>
<path d="M145.39 143.658C145.369 143.658 145.348 143.349 145.327 142.79C145.309 142.168 145.288 141.374 145.26 140.425C145.207 138.428 145.13 135.669 144.996 132.622C144.863 129.575 144.698 126.819 144.575 124.826C144.518 123.877 144.469 123.083 144.434 122.464C144.406 121.905 144.399 121.596 144.42 121.593C144.441 121.593 144.49 121.898 144.557 122.454C144.624 123.009 144.708 123.814 144.8 124.809C144.982 126.801 145.183 129.557 145.316 132.608C145.45 135.659 145.492 138.421 145.485 140.421C145.485 141.423 145.471 142.231 145.45 142.79C145.432 143.349 145.411 143.658 145.387 143.658H145.39Z" fill="white"/>
<path d="M135.506 132.01C135.499 132.098 134.951 132.126 134.283 132.07C133.615 132.014 133.078 131.898 133.085 131.81C133.092 131.722 133.64 131.694 134.308 131.75C134.975 131.807 135.513 131.923 135.506 132.01Z" fill="#263238"/>
<path d="M135.696 128.608C135.661 128.689 135.187 128.559 134.642 128.316C134.093 128.074 133.679 127.81 133.717 127.729C133.752 127.649 134.227 127.779 134.772 128.021C135.32 128.264 135.735 128.527 135.696 128.608Z" fill="#263238"/>
<path d="M137.446 126.081C137.401 126.155 136.87 125.905 136.315 125.445C135.759 124.988 135.415 124.513 135.478 124.454C135.545 124.39 135.981 124.756 136.519 125.199C137.053 125.642 137.492 126.007 137.443 126.081H137.446Z" fill="#263238"/>
<path d="M139.207 123.694C139.126 123.73 138.87 123.332 138.638 122.805C138.406 122.278 138.283 121.821 138.364 121.786C138.445 121.751 138.701 122.148 138.933 122.675C139.165 123.202 139.288 123.659 139.207 123.694Z" fill="#263238"/>
<path d="M141.974 122.004C141.893 122.042 141.619 121.617 141.439 121.03C141.257 120.443 141.243 119.937 141.327 119.923C141.415 119.909 141.57 120.369 141.745 120.932C141.921 121.498 142.055 121.965 141.974 122V122.004Z" fill="#263238"/>
<path d="M146.585 120.095C146.669 120.123 146.616 120.485 146.469 120.904C146.321 121.322 146.135 121.635 146.051 121.603C145.966 121.575 146.019 121.213 146.167 120.795C146.314 120.376 146.5 120.064 146.585 120.095Z" fill="#263238"/>
<path d="M150.005 121.564C150.065 121.631 149.847 121.93 149.516 122.236C149.186 122.542 148.87 122.738 148.806 122.672C148.746 122.605 148.964 122.306 149.295 122C149.625 121.694 149.942 121.498 150.005 121.564Z" fill="#263238"/>
<path d="M153.017 123.508C153.066 123.582 152.799 123.849 152.419 124.109C152.04 124.366 151.692 124.517 151.643 124.443C151.593 124.369 151.86 124.102 152.24 123.842C152.62 123.585 152.968 123.434 153.017 123.508Z" fill="#263238"/>
<path d="M155.154 126.408C155.189 126.489 154.767 126.749 154.212 126.984C153.657 127.22 153.179 127.346 153.144 127.265C153.109 127.185 153.53 126.925 154.086 126.689C154.641 126.454 155.119 126.327 155.154 126.408Z" fill="#263238"/>
<path d="M155.997 129.571C156.008 129.659 155.579 129.786 155.038 129.852C154.497 129.919 154.05 129.902 154.04 129.814C154.029 129.726 154.458 129.599 154.999 129.533C155.541 129.466 155.987 129.483 155.997 129.571Z" fill="#263238"/>
<path d="M156.433 133.466C156.398 133.546 155.941 133.427 155.414 133.198C154.887 132.97 154.486 132.717 154.521 132.636C154.556 132.555 155.013 132.675 155.544 132.903C156.071 133.132 156.472 133.385 156.437 133.466H156.433Z" fill="#263238"/>
<path d="M156.05 136.805C156.022 136.885 155.446 136.748 154.841 136.351C154.237 135.958 153.878 135.483 153.941 135.423C154.008 135.36 154.447 135.708 155.017 136.081C155.586 136.457 156.082 136.717 156.05 136.805Z" fill="#263238"/>
<path d="M154.31 139.845C154.258 139.915 153.797 139.645 153.354 139.167C152.911 138.692 152.676 138.214 152.75 138.165C152.824 138.112 153.168 138.492 153.593 138.949C154.015 139.406 154.37 139.775 154.31 139.845Z" fill="#263238"/>
<path d="M137.795 140.203C137.837 140.281 137.352 140.615 136.716 140.945C136.079 141.275 135.528 141.483 135.489 141.402C135.447 141.325 135.932 140.991 136.568 140.66C137.204 140.33 137.756 140.123 137.795 140.203Z" fill="#263238"/>
<path d="M136.286 137.451C136.322 137.532 135.935 137.789 135.422 138.021C134.909 138.253 134.459 138.379 134.424 138.295C134.388 138.214 134.775 137.957 135.288 137.726C135.801 137.494 136.251 137.371 136.286 137.451Z" fill="#263238"/>
<path d="M135.176 135.016C135.19 135.103 134.712 135.244 134.111 135.328C133.51 135.413 133.014 135.413 133 135.325C132.986 135.237 133.464 135.096 134.065 135.012C134.666 134.928 135.162 134.928 135.176 135.016Z" fill="#263238"/>
<path d="M138.814 133.673C138.842 133.757 138.374 133.972 137.756 134.042C137.134 134.112 136.635 134.007 136.642 133.919C136.649 133.828 137.134 133.789 137.721 133.722C138.308 133.659 138.789 133.585 138.817 133.673H138.814Z" fill="#263238"/>
<path d="M141.837 130.668C141.861 130.752 141.492 130.938 140.993 130.988C140.494 131.037 140.093 130.924 140.104 130.84C140.111 130.749 140.497 130.713 140.961 130.668C141.425 130.622 141.812 130.583 141.837 130.668V130.668Z" fill="#263238"/>
<path d="M142.413 128.26C142.385 128.344 141.984 128.281 141.517 128.12C141.053 127.958 140.698 127.761 140.726 127.677C140.754 127.592 141.154 127.656 141.622 127.817C142.086 127.979 142.441 128.176 142.413 128.26Z" fill="#263238"/>
<path d="M143.52 125.824C143.457 125.888 143.183 125.705 142.986 125.364C142.789 125.023 142.768 124.693 142.852 124.672C142.94 124.647 143.088 124.9 143.264 125.202C143.436 125.505 143.584 125.761 143.517 125.824H143.52Z" fill="#263238"/>
<path d="M142.185 135.796C142.206 135.884 141.858 136.042 141.411 136.151C141.151 136.214 140.916 136.246 140.761 136.246L140.698 136.059C140.814 136.038 140.888 136.042 140.905 136.077C140.919 136.112 140.873 136.168 140.779 136.242L140.715 136.056C140.852 135.986 141.077 135.905 141.337 135.842C141.787 135.733 142.167 135.711 142.188 135.799L142.185 135.796Z" fill="#263238"/>
<path d="M142.81 140.063C142.842 140.147 142.399 140.397 141.823 140.625C141.243 140.854 140.751 140.97 140.715 140.885C140.684 140.801 141.127 140.551 141.703 140.323C142.283 140.094 142.775 139.978 142.81 140.063Z" fill="#263238"/>
<path d="M139.394 138.168C139.422 138.253 139.126 138.428 138.733 138.562C138.339 138.696 137.998 138.734 137.97 138.65C137.942 138.566 138.237 138.39 138.631 138.256C139.025 138.123 139.365 138.084 139.394 138.168Z" fill="#263238"/>
<path d="M139.657 129.476C139.636 129.561 139.123 129.511 138.529 129.301C137.935 129.09 137.503 128.808 137.541 128.728C137.58 128.647 138.058 128.794 138.638 128.998C139.215 129.202 139.678 129.392 139.657 129.48V129.476Z" fill="#263238"/>
<path d="M147.917 128.531C147.966 128.605 147.678 128.882 147.27 129.149C146.866 129.417 146.497 129.575 146.448 129.501C146.399 129.427 146.687 129.149 147.095 128.882C147.499 128.615 147.868 128.457 147.917 128.531Z" fill="#263238"/>
<path d="M148.367 132.819C148.385 132.907 148.082 133.044 147.689 133.125C147.295 133.205 146.961 133.202 146.944 133.114C146.926 133.026 147.228 132.889 147.622 132.808C148.016 132.727 148.35 132.731 148.367 132.819Z" fill="#263238"/>
<path d="M148.887 137.641C148.849 137.722 148.413 137.599 147.91 137.367C147.408 137.135 147.032 136.878 147.067 136.801C147.105 136.72 147.541 136.843 148.044 137.075C148.546 137.307 148.923 137.564 148.887 137.641Z" fill="#263238"/>
<path d="M147.784 142.333C147.713 142.39 147.432 142.158 147.148 141.813C146.866 141.469 146.694 141.145 146.761 141.089C146.831 141.033 147.112 141.265 147.397 141.609C147.678 141.954 147.851 142.277 147.784 142.333Z" fill="#263238"/>
<path d="M147.559 125.375C147.611 125.445 147.425 125.68 147.102 125.842C146.782 126.004 146.479 126.014 146.455 125.93C146.43 125.842 146.666 125.701 146.958 125.554C147.249 125.41 147.502 125.304 147.559 125.375V125.375Z" fill="#263238"/>
<path d="M151.604 129.698C151.632 129.779 151.26 129.986 150.747 130.056C150.233 130.13 149.819 130.032 149.826 129.944C149.829 129.852 150.226 129.803 150.704 129.736C151.182 129.673 151.576 129.61 151.608 129.698H151.604Z" fill="#263238"/>
<path d="M150.799 125.817C150.838 125.895 150.465 126.162 149.938 126.327C149.411 126.496 148.954 126.496 148.94 126.411C148.926 126.323 149.337 126.183 149.84 126.021C150.342 125.863 150.757 125.737 150.799 125.817V125.817Z" fill="#263238"/>
<path d="M152.49 135.712C152.49 135.799 151.854 135.856 151.087 135.712C150.321 135.574 149.745 135.297 149.773 135.216C149.801 135.128 150.402 135.262 151.144 135.395C151.882 135.532 152.493 135.62 152.49 135.708V135.712Z" fill="#263238"/>
<path d="M150.985 141.353C150.933 141.423 150.465 141.145 149.998 140.674C149.53 140.203 149.256 139.736 149.326 139.683C149.397 139.627 149.773 139.996 150.226 140.449C150.676 140.903 151.042 141.282 150.985 141.353Z" fill="#263238"/>
<path d="M144.371 121.227C144.42 121.297 143.088 121.835 141.548 123.459C140.009 125.044 138.424 127.849 138.03 131.234C137.844 132.917 138.002 134.545 138.241 135.996C138.49 137.451 138.824 138.741 139.134 139.82C139.443 140.896 139.728 141.757 139.917 142.358C140.107 142.956 140.209 143.289 140.188 143.296C140.167 143.303 140.026 142.987 139.798 142.4C139.569 141.813 139.253 140.963 138.916 139.887C138.578 138.815 138.22 137.518 137.949 136.049C137.692 134.583 137.517 132.928 137.71 131.199C138.111 127.736 139.77 124.882 141.383 123.304C142.184 122.503 142.94 121.969 143.488 121.659C143.756 121.491 143.987 121.399 144.132 121.325C144.283 121.255 144.364 121.224 144.367 121.234L144.371 121.227Z" fill="white"/>
<path d="M148.761 143.5C148.69 143.465 149.485 142.242 150.209 140.042C150.954 137.866 151.569 134.647 151.073 131.146C150.841 129.402 150.335 127.786 149.703 126.404C149.045 125.041 148.195 123.926 147.365 123.146C146.508 122.387 145.661 121.951 145.074 121.698C144.48 121.448 144.121 121.392 144.125 121.364C144.125 121.354 144.216 121.357 144.388 121.385C144.557 121.417 144.806 121.473 145.119 121.582C145.734 121.803 146.609 122.215 147.516 122.977C148.399 123.765 149.277 124.879 149.973 126.278C150.637 127.684 151.158 129.325 151.397 131.104C151.903 134.668 151.235 137.936 150.427 140.119C150.244 140.674 150.012 141.152 149.836 141.581C149.629 141.996 149.456 142.358 149.302 142.643C148.975 143.209 148.785 143.514 148.764 143.504L148.761 143.5Z" fill="white"/>
<path d="M136.287 142.738H154.04L154.149 146.291H136.287V142.738Z" fill="#263238"/>
<path d="M137.794 144.516L138.814 155.363H151.794L152.838 144.632L137.794 144.516Z" fill="#263238"/>
<path d="M154.149 146.333C154.149 146.421 150.149 146.495 145.221 146.495C140.293 146.495 136.29 146.421 136.29 146.333C136.29 146.245 140.286 146.172 145.221 146.172C150.156 146.172 154.149 146.245 154.149 146.333Z" fill="#455A64"/>
<path opacity="0.3" d="M321.5 153L162 39L127 57.5L128.5 153H321.5Z" fill="#FFEF5A"/>
<path opacity="0.3" d="M321.5 153L162 39L127 57.5L128.5 153H321.5Z" fill="#FFEF5A"/>
</svg>
