<svg width="418" height="200" viewBox="0 0 418 200" fill="none" xmlns="http://www.w3.org/2000/svg">
<rect width="418" height="200" rx="10" fill="#17181C"/>
<path d="M123.638 126H138.188C139.828 126 141.308 125.83 142.628 125.49C143.948 125.15 145.108 124.58 146.108 123.78C147.128 122.96 147.918 121.85 148.478 120.45C149.038 119.05 149.318 117.33 149.318 115.29C149.318 111.73 148.448 109.06 146.708 107.28C144.988 105.48 142.458 104.58 139.118 104.58H123.638V126ZM130.778 109.38H136.178C140.018 109.38 141.938 111.34 141.938 115.26C141.938 116.06 141.848 116.81 141.668 117.51C141.508 118.21 141.228 118.84 140.828 119.4C140.448 119.94 139.918 120.38 139.238 120.72C138.558 121.04 137.728 121.2 136.748 121.2H130.778V109.38ZM157.864 116.07C158.064 115.07 158.544 114.27 159.304 113.67C160.084 113.05 161.174 112.74 162.574 112.74C163.974 112.74 165.054 113.05 165.814 113.67C166.594 114.27 167.084 115.07 167.284 116.07H157.864ZM166.804 121.17C166.364 121.73 165.844 122.18 165.244 122.52C164.664 122.84 163.904 123 162.964 123C161.404 123 160.204 122.68 159.364 122.04C158.544 121.38 158.044 120.49 157.864 119.37H173.824V118.89C173.824 115.59 172.834 113.13 170.854 111.51C168.894 109.89 166.124 109.08 162.544 109.08C159.084 109.08 156.344 109.84 154.324 111.36C152.324 112.86 151.324 115.02 151.324 117.84C151.324 120.8 152.294 123.01 154.234 124.47C156.174 125.93 159.004 126.66 162.724 126.66C164.384 126.66 165.854 126.5 167.134 126.18C168.414 125.88 169.494 125.47 170.374 124.95C171.254 124.43 171.944 123.85 172.444 123.21C172.964 122.57 173.324 121.89 173.524 121.17H166.804ZM175.608 120.93C175.648 122.09 175.998 123.06 176.658 123.84C177.318 124.6 178.168 125.19 179.208 125.61C180.268 126.01 181.398 126.28 182.598 126.42C183.798 126.58 185.048 126.66 186.348 126.66C189.768 126.66 192.358 126.2 194.118 125.28C195.878 124.34 196.758 122.92 196.758 121.02C196.758 119.46 196.228 118.3 195.168 117.54C194.128 116.76 192.478 116.25 190.218 116.01L184.728 115.41C183.968 115.33 183.438 115.19 183.138 114.99C182.838 114.79 182.688 114.55 182.688 114.27C182.688 113.73 182.928 113.34 183.408 113.1C183.908 112.86 184.638 112.74 185.598 112.74C186.558 112.74 187.318 112.86 187.878 113.1C188.578 113.36 188.958 113.82 189.018 114.48H196.158C196.078 113.38 195.718 112.47 195.078 111.75C194.458 111.03 193.658 110.48 192.678 110.1C191.698 109.7 190.648 109.43 189.528 109.29C188.428 109.15 187.258 109.08 186.018 109.08C184.438 109.08 183.048 109.18 181.848 109.38C180.648 109.58 179.618 109.9 178.758 110.34C177.918 110.78 177.268 111.38 176.808 112.14C176.368 112.88 176.148 113.79 176.148 114.87C176.148 116.23 176.608 117.27 177.528 117.99C178.448 118.69 179.858 119.16 181.758 119.4L187.428 120.09C188.248 120.19 188.818 120.33 189.138 120.51C189.458 120.67 189.618 120.96 189.618 121.38C189.618 121.92 189.338 122.3 188.778 122.52C188.238 122.72 187.548 122.82 186.708 122.82C185.408 122.82 184.468 122.65 183.888 122.31C183.388 122.05 183.088 121.59 182.988 120.93H175.608ZM214.692 111.81H214.632C213.992 110.97 213.092 110.35 211.932 109.95C210.792 109.53 209.482 109.32 208.002 109.32C206.422 109.32 205.022 109.53 203.802 109.95C202.582 110.37 201.572 110.95 200.772 111.69C199.972 112.41 199.372 113.25 198.972 114.21C198.572 115.17 198.372 116.2 198.372 117.3C198.372 118.44 198.552 119.49 198.912 120.45C199.292 121.41 199.862 122.26 200.622 123C201.402 123.72 202.402 124.28 203.622 124.68C204.862 125.08 206.322 125.28 208.002 125.28C209.322 125.28 210.572 125.11 211.752 124.77C212.932 124.41 213.852 123.89 214.512 123.21V124.35C214.512 125.87 214.162 126.95 213.462 127.59C212.762 128.25 211.532 128.58 209.772 128.58C208.732 128.58 207.862 128.43 207.162 128.13C206.462 127.83 206.042 127.34 205.902 126.66H198.882C199.042 127.76 199.402 128.67 199.962 129.39C200.542 130.13 201.302 130.7 202.242 131.1C203.182 131.52 204.292 131.81 205.572 131.97C206.852 132.15 208.342 132.24 210.042 132.24C213.922 132.24 216.692 131.64 218.352 130.44C220.032 129.24 220.872 127.27 220.872 124.53V109.74H214.692V111.81ZM205.092 117.39C205.092 116.25 205.482 115.32 206.262 114.6C207.062 113.88 208.232 113.52 209.772 113.52C211.352 113.52 212.532 113.88 213.312 114.6C214.112 115.3 214.512 116.25 214.512 117.45C214.512 118.59 214.142 119.51 213.402 120.21C212.662 120.91 211.452 121.26 209.772 121.26C208.232 121.26 207.062 120.9 206.262 120.18C205.482 119.46 205.092 118.53 205.092 117.39ZM224.352 126H230.712V109.74H224.352V126ZM224.352 107.88H230.712V104.04H224.352V107.88ZM234.193 126H240.553V118.02C240.553 116.74 240.913 115.77 241.633 115.11C242.373 114.45 243.333 114.12 244.513 114.12C246.713 114.12 247.813 115.15 247.813 117.21V126H254.173V115.29C254.173 113.33 253.543 111.85 252.283 110.85C251.023 109.83 249.353 109.32 247.273 109.32C245.733 109.32 244.373 109.57 243.193 110.07C242.033 110.57 241.113 111.24 240.433 112.08H240.373V109.74H234.193V126ZM263.362 116.07C263.562 115.07 264.042 114.27 264.802 113.67C265.582 113.05 266.672 112.74 268.072 112.74C269.472 112.74 270.552 113.05 271.312 113.67C272.092 114.27 272.582 115.07 272.782 116.07H263.362ZM272.302 121.17C271.862 121.73 271.342 122.18 270.742 122.52C270.162 122.84 269.402 123 268.462 123C266.902 123 265.702 122.68 264.862 122.04C264.042 121.38 263.542 120.49 263.362 119.37H279.322V118.89C279.322 115.59 278.332 113.13 276.352 111.51C274.392 109.89 271.622 109.08 268.042 109.08C264.582 109.08 261.842 109.84 259.822 111.36C257.822 112.86 256.822 115.02 256.822 117.84C256.822 120.8 257.792 123.01 259.732 124.47C261.672 125.93 264.502 126.66 268.222 126.66C269.882 126.66 271.352 126.5 272.632 126.18C273.912 125.88 274.992 125.47 275.872 124.95C276.752 124.43 277.442 123.85 277.942 123.21C278.462 122.57 278.822 121.89 279.022 121.17H272.302ZM282.096 126H288.456V119.7C288.456 118.18 288.886 117 289.746 116.16C290.626 115.32 291.946 114.9 293.706 114.9C294.286 114.9 294.906 114.95 295.566 115.05C296.246 115.15 296.796 115.28 297.216 115.44V109.5C296.596 109.38 295.876 109.32 295.056 109.32C293.636 109.32 292.336 109.65 291.156 110.31C289.976 110.97 289.066 111.85 288.426 112.95H288.366V109.74H282.096V126Z" fill="#FB3DB3"/>
<path d="M206.5 37L207.744 63.7746L220.383 53.8988L209.503 65.3711L239 66.5L209.503 67.6289L220.383 79.1012L207.744 69.2254L206.5 96L205.256 69.2254L192.617 79.1012L203.497 67.6289L174 66.5L203.497 65.3711L192.617 53.8988L205.256 63.7746L206.5 37Z" fill="#FF0099"/>
</svg>
