<svg width="418" height="200" viewBox="0 0 418 200" fill="none" xmlns="http://www.w3.org/2000/svg">
<path d="M0 10C0 4.47716 4.47715 0 10 0H408C413.523 0 418 4.47715 418 10V190C418 195.523 413.523 200 408 200H10C4.47716 200 0 195.523 0 190V10Z" fill="#17181C"/>
<path d="M172.594 126H180.244L181.534 122.52H190.894L192.184 126H199.834L190.624 104.58H181.894L172.594 126ZM189.214 118.08H183.214L186.184 109.98H186.244L189.214 118.08ZM201.14 126H221.33V121.02H208.28V104.58H201.14V126ZM223.933 126H244.123V121.02H231.073V104.58H223.933V126Z" fill="#9C00FF"/>
<path d="M205.5 37L206.744 63.7746L219.383 53.8988L208.503 65.3711L238 66.5L208.503 67.6289L219.383 79.1012L206.744 69.2254L205.5 96L204.256 69.2254L191.617 79.1012L202.497 67.6289L173 66.5L202.497 65.3711L191.617 53.8988L204.256 63.7746L205.5 37Z" fill="#9C00FF"/>
</svg>
