<svg width="418" height="200" viewBox="0 0 418 200" fill="none" xmlns="http://www.w3.org/2000/svg">
<rect width="418" height="200" rx="10" fill="#17181C"/>
<path d="M120.214 126H134.764C136.404 126 137.884 125.83 139.204 125.49C140.524 125.15 141.684 124.58 142.684 123.78C143.704 122.96 144.494 121.85 145.054 120.45C145.614 119.05 145.894 117.33 145.894 115.29C145.894 111.73 145.024 109.06 143.284 107.28C141.564 105.48 139.034 104.58 135.694 104.58H120.214V126ZM127.354 109.38H132.754C136.594 109.38 138.514 111.34 138.514 115.26C138.514 116.06 138.424 116.81 138.244 117.51C138.084 118.21 137.804 118.84 137.404 119.4C137.024 119.94 136.494 120.38 135.814 120.72C135.134 121.04 134.304 121.2 133.324 121.2H127.354V109.38ZM154.44 116.07C154.64 115.07 155.12 114.27 155.88 113.67C156.66 113.05 157.75 112.74 159.15 112.74C160.55 112.74 161.63 113.05 162.39 113.67C163.17 114.27 163.66 115.07 163.86 116.07H154.44ZM163.38 121.17C162.94 121.73 162.42 122.18 161.82 122.52C161.24 122.84 160.48 123 159.54 123C157.98 123 156.78 122.68 155.94 122.04C155.12 121.38 154.62 120.49 154.44 119.37H170.4V118.89C170.4 115.59 169.41 113.13 167.43 111.51C165.47 109.89 162.7 109.08 159.12 109.08C155.66 109.08 152.92 109.84 150.9 111.36C148.9 112.86 147.9 115.02 147.9 117.84C147.9 120.8 148.87 123.01 150.81 124.47C152.75 125.93 155.58 126.66 159.3 126.66C160.96 126.66 162.43 126.5 163.71 126.18C164.99 125.88 166.07 125.47 166.95 124.95C167.83 124.43 168.52 123.85 169.02 123.21C169.54 122.57 169.9 121.89 170.1 121.17H163.38ZM178.574 126H185.834L193.334 109.74H186.104L182.204 120.45L178.304 109.74H171.074L178.574 126ZM200.524 116.07C200.724 115.07 201.204 114.27 201.964 113.67C202.744 113.05 203.834 112.74 205.234 112.74C206.634 112.74 207.714 113.05 208.474 113.67C209.254 114.27 209.744 115.07 209.944 116.07H200.524ZM209.464 121.17C209.024 121.73 208.504 122.18 207.904 122.52C207.324 122.84 206.564 123 205.624 123C204.064 123 202.864 122.68 202.024 122.04C201.204 121.38 200.704 120.49 200.524 119.37H216.484V118.89C216.484 115.59 215.494 113.13 213.514 111.51C211.554 109.89 208.784 109.08 205.204 109.08C201.744 109.08 199.004 109.84 196.984 111.36C194.984 112.86 193.984 115.02 193.984 117.84C193.984 120.8 194.954 123.01 196.894 124.47C198.834 125.93 201.664 126.66 205.384 126.66C207.044 126.66 208.514 126.5 209.794 126.18C211.074 125.88 212.154 125.47 213.034 124.95C213.914 124.43 214.604 123.85 215.104 123.21C215.624 122.57 215.984 121.89 216.184 121.17H209.464ZM219.258 126H225.618V104.04H219.258V126ZM239.629 113.28C241.109 113.28 242.259 113.67 243.079 114.45C243.899 115.23 244.309 116.37 244.309 117.87C244.309 119.37 243.899 120.51 243.079 121.29C242.259 122.07 241.109 122.46 239.629 122.46C238.149 122.46 236.999 122.07 236.179 121.29C235.359 120.51 234.949 119.37 234.949 117.87C234.949 116.37 235.359 115.23 236.179 114.45C236.999 113.67 238.149 113.28 239.629 113.28ZM228.229 117.87C228.229 120.73 229.199 122.91 231.139 124.41C233.099 125.91 235.929 126.66 239.629 126.66C243.329 126.66 246.149 125.91 248.089 124.41C250.049 122.91 251.029 120.73 251.029 117.87C251.029 115.01 250.049 112.83 248.089 111.33C246.149 109.83 243.329 109.08 239.629 109.08C235.929 109.08 233.099 109.83 231.139 111.33C229.199 112.83 228.229 115.01 228.229 117.87ZM253.533 131.88H259.893V124.53H259.953C260.533 125.17 261.343 125.68 262.383 126.06C263.443 126.46 264.653 126.66 266.013 126.66C267.473 126.66 268.783 126.44 269.943 126C271.123 125.58 272.123 124.98 272.943 124.2C273.783 123.4 274.413 122.49 274.833 121.47C275.253 120.43 275.463 119.32 275.463 118.14C275.463 115.36 274.603 113.2 272.883 111.66C271.183 110.1 268.873 109.32 265.953 109.32C264.673 109.32 263.493 109.55 262.413 110.01C261.333 110.45 260.453 111.08 259.773 111.9H259.713V109.74H253.533V131.88ZM259.893 117.9C259.893 116.62 260.283 115.61 261.063 114.87C261.843 114.13 262.963 113.76 264.423 113.76C265.883 113.76 266.993 114.11 267.753 114.81C268.533 115.51 268.923 116.54 268.923 117.9C268.923 119.24 268.533 120.27 267.753 120.99C266.993 121.69 265.883 122.04 264.423 122.04C262.963 122.04 261.843 121.67 261.063 120.93C260.283 120.19 259.893 119.18 259.893 117.9ZM283.786 116.07C283.986 115.07 284.466 114.27 285.226 113.67C286.006 113.05 287.096 112.74 288.496 112.74C289.896 112.74 290.976 113.05 291.736 113.67C292.516 114.27 293.006 115.07 293.206 116.07H283.786ZM292.726 121.17C292.286 121.73 291.766 122.18 291.166 122.52C290.586 122.84 289.826 123 288.886 123C287.326 123 286.126 122.68 285.286 122.04C284.466 121.38 283.966 120.49 283.786 119.37H299.746V118.89C299.746 115.59 298.756 113.13 296.776 111.51C294.816 109.89 292.046 109.08 288.466 109.08C285.006 109.08 282.266 109.84 280.246 111.36C278.246 112.86 277.246 115.02 277.246 117.84C277.246 120.8 278.216 123.01 280.156 124.47C282.096 125.93 284.926 126.66 288.646 126.66C290.306 126.66 291.776 126.5 293.056 126.18C294.336 125.88 295.416 125.47 296.296 124.95C297.176 124.43 297.866 123.85 298.366 123.21C298.886 122.57 299.246 121.89 299.446 121.17H292.726ZM302.52 126H308.88V119.7C308.88 118.18 309.31 117 310.17 116.16C311.05 115.32 312.37 114.9 314.13 114.9C314.71 114.9 315.33 114.95 315.99 115.05C316.67 115.15 317.22 115.28 317.64 115.44V109.5C317.02 109.38 316.3 109.32 315.48 109.32C314.06 109.32 312.76 109.65 311.58 110.31C310.4 110.97 309.49 111.85 308.85 112.95H308.79V109.74H302.52V126Z" fill="#044ADC"/>
<path d="M205.5 37L206.744 63.7746L219.383 53.8988L208.503 65.3711L238 66.5L208.503 67.6289L219.383 79.1012L206.744 69.2254L205.5 96L204.256 69.2254L191.617 79.1012L202.497 67.6289L173 66.5L202.497 65.3711L191.617 53.8988L204.256 63.7746L205.5 37Z" fill="#044ADC"/>
</svg>
