<svg width="418" height="200" viewBox="0 0 418 200" fill="none" xmlns="http://www.w3.org/2000/svg">
<path d="M0 10C0 4.47716 4.47715 0 10 0H408C413.523 0 418 4.47715 418 10V190C418 195.523 413.523 200 408 200H10C4.47716 200 0 195.523 0 190V10Z" fill="#17181C"/>
<path d="M205.5 37L206.744 63.7746L219.383 53.8988L208.503 65.3711L238 66.5L208.503 67.6289L219.383 79.1012L206.744 69.2254L205.5 96L204.256 69.2254L191.617 79.1012L202.497 67.6289L173 66.5L202.497 65.3711L191.617 53.8988L204.256 63.7746L205.5 37Z" fill="#C0FF0D"/>
<path d="M143.593 109.02H149.953C150.953 109.02 151.673 109.24 152.113 109.68C152.573 110.1 152.803 110.78 152.803 111.72C152.803 112.66 152.573 113.35 152.113 113.79C151.673 114.21 150.953 114.42 149.953 114.42H143.593V109.02ZM136.453 126H143.593V118.86H152.623C154.003 118.86 155.183 118.67 156.163 118.29C157.143 117.89 157.923 117.35 158.503 116.67C159.103 115.99 159.533 115.23 159.793 114.39C160.053 113.55 160.183 112.66 160.183 111.72C160.183 110.66 160.033 109.7 159.733 108.84C159.453 107.98 159.003 107.23 158.383 106.59C157.763 105.95 156.943 105.46 155.923 105.12C154.923 104.76 153.713 104.58 152.293 104.58H136.453V126ZM162.753 126H169.113V104.04H162.753V126ZM179.194 114.84C179.354 114.14 179.734 113.63 180.334 113.31C180.934 112.97 181.814 112.8 182.974 112.8C184.354 112.8 185.364 112.95 186.004 113.25C186.664 113.53 186.994 113.96 186.994 114.54C186.994 114.98 186.864 115.3 186.604 115.5C186.364 115.68 185.854 115.8 185.074 115.86L178.744 116.28C176.364 116.44 174.594 116.92 173.434 117.72C172.294 118.52 171.724 119.81 171.724 121.59C171.724 124.97 174.374 126.66 179.674 126.66C181.454 126.66 182.954 126.5 184.174 126.18C185.414 125.88 186.464 125.32 187.324 124.5C187.364 125.08 187.474 125.58 187.654 126H194.014C193.754 125.54 193.574 125.11 193.474 124.71C193.394 124.29 193.354 123.74 193.354 123.06V114.84C193.354 113.74 193.094 112.83 192.574 112.11C192.074 111.37 191.364 110.8 190.444 110.4C189.544 110 188.474 109.72 187.234 109.56C186.014 109.4 184.604 109.32 183.004 109.32C181.584 109.32 180.314 109.39 179.194 109.53C178.094 109.67 177.084 109.93 176.164 110.31C175.264 110.69 174.514 111.25 173.914 111.99C173.334 112.73 172.974 113.68 172.834 114.84H179.194ZM187.174 119.4C187.174 120.52 186.674 121.4 185.674 122.04C184.694 122.68 183.294 123 181.474 123C180.614 123 179.924 122.83 179.404 122.49C178.884 122.13 178.624 121.64 178.624 121.02C178.624 120.06 179.234 119.51 180.454 119.37L184.744 118.86C185.864 118.72 186.674 118.57 187.174 118.41V119.4ZM197.028 126H203.388V118.02C203.388 116.74 203.748 115.77 204.468 115.11C205.208 114.45 206.168 114.12 207.348 114.12C209.548 114.12 210.648 115.15 210.648 117.21V126H217.008V115.29C217.008 113.33 216.378 111.85 215.118 110.85C213.858 109.83 212.188 109.32 210.108 109.32C208.568 109.32 207.208 109.57 206.028 110.07C204.868 110.57 203.948 111.24 203.268 112.08H203.208V109.74H197.028V126ZM220.377 126H226.737V118.02C226.737 116.74 227.097 115.77 227.817 115.11C228.557 114.45 229.517 114.12 230.697 114.12C232.897 114.12 233.997 115.15 233.997 117.21V126H240.357V115.29C240.357 113.33 239.727 111.85 238.467 110.85C237.207 109.83 235.537 109.32 233.457 109.32C231.917 109.32 230.557 109.57 229.377 110.07C228.217 110.57 227.297 111.24 226.617 112.08H226.557V109.74H220.377V126ZM249.547 116.07C249.747 115.07 250.227 114.27 250.987 113.67C251.767 113.05 252.857 112.74 254.257 112.74C255.657 112.74 256.737 113.05 257.497 113.67C258.277 114.27 258.767 115.07 258.967 116.07H249.547ZM258.487 121.17C258.047 121.73 257.527 122.18 256.927 122.52C256.347 122.84 255.587 123 254.647 123C253.087 123 251.887 122.68 251.047 122.04C250.227 121.38 249.727 120.49 249.547 119.37H265.507V118.89C265.507 115.59 264.517 113.13 262.537 111.51C260.577 109.89 257.807 109.08 254.227 109.08C250.767 109.08 248.027 109.84 246.007 111.36C244.007 112.86 243.007 115.02 243.007 117.84C243.007 120.8 243.977 123.01 245.917 124.47C247.857 125.93 250.687 126.66 254.407 126.66C256.067 126.66 257.537 126.5 258.817 126.18C260.097 125.88 261.177 125.47 262.057 124.95C262.937 124.43 263.627 123.85 264.127 123.21C264.647 122.57 265.007 121.89 265.207 121.17H258.487ZM268.28 126H274.64V119.7C274.64 118.18 275.07 117 275.93 116.16C276.81 115.32 278.13 114.9 279.89 114.9C280.47 114.9 281.09 114.95 281.75 115.05C282.43 115.15 282.98 115.28 283.4 115.44V109.5C282.78 109.38 282.06 109.32 281.24 109.32C279.82 109.32 278.52 109.65 277.34 110.31C276.16 110.97 275.25 111.85 274.61 112.95H274.55V109.74H268.28V126Z" fill="#C0FF0D"/>
</svg>
