<svg width="418" height="200" viewBox="0 0 418 200" fill="none" xmlns="http://www.w3.org/2000/svg">
<path d="M0 10C0 4.47716 4.47715 0 10 0H408C413.523 0 418 4.47715 418 10V190C418 195.523 413.523 200 408 200H10C4.47716 200 0 195.523 0 190V10Z" fill="#17181C"/>
<path d="M143.593 108.02H149.953C150.953 108.02 151.673 108.24 152.113 108.68C152.573 109.1 152.803 109.78 152.803 110.72C152.803 111.66 152.573 112.35 152.113 112.79C151.673 113.21 150.953 113.42 149.953 113.42H143.593V108.02ZM136.453 125H143.593V117.86H152.623C154.003 117.86 155.183 117.67 156.163 117.29C157.143 116.89 157.923 116.35 158.503 115.67C159.103 114.99 159.533 114.23 159.793 113.39C160.053 112.55 160.183 111.66 160.183 110.72C160.183 109.66 160.033 108.7 159.733 107.84C159.453 106.98 159.003 106.23 158.383 105.59C157.763 104.95 156.943 104.46 155.923 104.12C154.923 103.76 153.713 103.58 152.293 103.58H136.453V125ZM162.753 125H169.113V103.04H162.753V125ZM179.194 113.84C179.354 113.14 179.734 112.63 180.334 112.31C180.934 111.97 181.814 111.8 182.974 111.8C184.354 111.8 185.364 111.95 186.004 112.25C186.664 112.53 186.994 112.96 186.994 113.54C186.994 113.98 186.864 114.3 186.604 114.5C186.364 114.68 185.854 114.8 185.074 114.86L178.744 115.28C176.364 115.44 174.594 115.92 173.434 116.72C172.294 117.52 171.724 118.81 171.724 120.59C171.724 123.97 174.374 125.66 179.674 125.66C181.454 125.66 182.954 125.5 184.174 125.18C185.414 124.88 186.464 124.32 187.324 123.5C187.364 124.08 187.474 124.58 187.654 125H194.014C193.754 124.54 193.574 124.11 193.474 123.71C193.394 123.29 193.354 122.74 193.354 122.06V113.84C193.354 112.74 193.094 111.83 192.574 111.11C192.074 110.37 191.364 109.8 190.444 109.4C189.544 109 188.474 108.72 187.234 108.56C186.014 108.4 184.604 108.32 183.004 108.32C181.584 108.32 180.314 108.39 179.194 108.53C178.094 108.67 177.084 108.93 176.164 109.31C175.264 109.69 174.514 110.25 173.914 110.99C173.334 111.73 172.974 112.68 172.834 113.84H179.194ZM187.174 118.4C187.174 119.52 186.674 120.4 185.674 121.04C184.694 121.68 183.294 122 181.474 122C180.614 122 179.924 121.83 179.404 121.49C178.884 121.13 178.624 120.64 178.624 120.02C178.624 119.06 179.234 118.51 180.454 118.37L184.744 117.86C185.864 117.72 186.674 117.57 187.174 117.41V118.4ZM197.028 125H203.388V117.02C203.388 115.74 203.748 114.77 204.468 114.11C205.208 113.45 206.168 113.12 207.348 113.12C209.548 113.12 210.648 114.15 210.648 116.21V125H217.008V114.29C217.008 112.33 216.378 110.85 215.118 109.85C213.858 108.83 212.188 108.32 210.108 108.32C208.568 108.32 207.208 108.57 206.028 109.07C204.868 109.57 203.948 110.24 203.268 111.08H203.208V108.74H197.028V125ZM220.377 125H226.737V117.02C226.737 115.74 227.097 114.77 227.817 114.11C228.557 113.45 229.517 113.12 230.697 113.12C232.897 113.12 233.997 114.15 233.997 116.21V125H240.357V114.29C240.357 112.33 239.727 110.85 238.467 109.85C237.207 108.83 235.537 108.32 233.457 108.32C231.917 108.32 230.557 108.57 229.377 109.07C228.217 109.57 227.297 110.24 226.617 111.08H226.557V108.74H220.377V125ZM249.547 115.07C249.747 114.07 250.227 113.27 250.987 112.67C251.767 112.05 252.857 111.74 254.257 111.74C255.657 111.74 256.737 112.05 257.497 112.67C258.277 113.27 258.767 114.07 258.967 115.07H249.547ZM258.487 120.17C258.047 120.73 257.527 121.18 256.927 121.52C256.347 121.84 255.587 122 254.647 122C253.087 122 251.887 121.68 251.047 121.04C250.227 120.38 249.727 119.49 249.547 118.37H265.507V117.89C265.507 114.59 264.517 112.13 262.537 110.51C260.577 108.89 257.807 108.08 254.227 108.08C250.767 108.08 248.027 108.84 246.007 110.36C244.007 111.86 243.007 114.02 243.007 116.84C243.007 119.8 243.977 122.01 245.917 123.47C247.857 124.93 250.687 125.66 254.407 125.66C256.067 125.66 257.537 125.5 258.817 125.18C260.097 124.88 261.177 124.47 262.057 123.95C262.937 123.43 263.627 122.85 264.127 122.21C264.647 121.57 265.007 120.89 265.207 120.17H258.487ZM268.28 125H274.64V118.7C274.64 117.18 275.07 116 275.93 115.16C276.81 114.32 278.13 113.9 279.89 113.9C280.47 113.9 281.09 113.95 281.75 114.05C282.43 114.15 282.98 114.28 283.4 114.44V108.5C282.78 108.38 282.06 108.32 281.24 108.32C279.82 108.32 278.52 108.65 277.34 109.31C276.16 109.97 275.25 110.85 274.61 111.95H274.55V108.74H268.28V125Z" fill="#C0FF0D"/>
<path d="M224.168 51.7961C224.635 52.605 224.706 53.7298 224.212 55.2127C223.718 56.6942 222.693 58.4157 221.169 60.2679C218.127 63.9662 213.234 68.0155 207.202 71.4984C201.169 74.9813 195.216 77.1938 190.492 77.9796C188.126 78.3731 186.123 78.3995 184.593 78.0866C183.061 77.7733 182.123 77.1497 181.656 76.3409C181.189 75.532 181.118 74.4072 181.612 72.9243C182.106 71.4428 183.131 69.7213 184.655 67.8691C187.697 64.1708 192.59 60.1215 198.622 56.6386C204.655 53.1557 210.608 50.9432 215.332 50.1574C217.698 49.7639 219.701 49.7375 221.231 50.0504C222.763 50.3637 223.701 50.9873 224.168 51.7961Z" stroke="#C0FF0D" stroke-width="2"/>
<circle cx="199.92" cy="59.2611" r="7.96767" fill="#C0FF0D"/>
</svg>
