<svg width="418" height="200" viewBox="0 0 418 200" fill="none" xmlns="http://www.w3.org/2000/svg">
<path d="M0 10C0 4.47716 4.47715 0 10 0H408C413.523 0 418 4.47715 418 10V190C418 195.523 413.523 200 408 200H10C4.47716 200 0 195.523 0 190V10Z" fill="#17181C"/>
<path d="M223.168 52.7961C223.635 53.605 223.706 54.7298 223.212 56.2127C222.718 57.6942 221.693 59.4157 220.169 61.2679C217.127 64.9662 212.234 69.0155 206.202 72.4984C200.169 75.9813 194.216 78.1938 189.492 78.9796C187.126 79.3731 185.123 79.3995 183.593 79.0866C182.061 78.7733 181.123 78.1497 180.656 77.3409C180.189 76.532 180.118 75.4072 180.612 73.9243C181.106 72.4428 182.131 70.7213 183.655 68.8691C186.697 65.1708 191.59 61.1215 197.622 57.6386C203.655 54.1557 209.608 51.9432 214.332 51.1574C216.698 50.7639 218.701 50.7375 220.231 51.0504C221.763 51.3637 222.701 51.9873 223.168 52.7961Z" stroke="#9C00FF" stroke-width="2"/>
<circle cx="198.92" cy="60.2611" r="7.96767" fill="#9C00FF"/>
<path d="M172.594 125H180.244L181.534 121.52H190.894L192.184 125H199.834L190.624 103.58H181.894L172.594 125ZM189.214 117.08H183.214L186.184 108.98H186.244L189.214 117.08ZM201.14 125H221.33V120.02H208.28V103.58H201.14V125ZM223.933 125H244.123V120.02H231.073V103.58H223.933V125Z" fill="#9C00FF"/>
</svg>
