<svg width="418" height="200" viewBox="0 0 418 200" fill="none" xmlns="http://www.w3.org/2000/svg">
<rect width="418" height="200" rx="10" fill="#17181C"/>
<path d="M120.214 125H134.764C136.404 125 137.884 124.83 139.204 124.49C140.524 124.15 141.684 123.58 142.684 122.78C143.704 121.96 144.494 120.85 145.054 119.45C145.614 118.05 145.894 116.33 145.894 114.29C145.894 110.73 145.024 108.06 143.284 106.28C141.564 104.48 139.034 103.58 135.694 103.58H120.214V125ZM127.354 108.38H132.754C136.594 108.38 138.514 110.34 138.514 114.26C138.514 115.06 138.424 115.81 138.244 116.51C138.084 117.21 137.804 117.84 137.404 118.4C137.024 118.94 136.494 119.38 135.814 119.72C135.134 120.04 134.304 120.2 133.324 120.2H127.354V108.38ZM154.44 115.07C154.64 114.07 155.12 113.27 155.88 112.67C156.66 112.05 157.75 111.74 159.15 111.74C160.55 111.74 161.63 112.05 162.39 112.67C163.17 113.27 163.66 114.07 163.86 115.07H154.44ZM163.38 120.17C162.94 120.73 162.42 121.18 161.82 121.52C161.24 121.84 160.48 122 159.54 122C157.98 122 156.78 121.68 155.94 121.04C155.12 120.38 154.62 119.49 154.44 118.37H170.4V117.89C170.4 114.59 169.41 112.13 167.43 110.51C165.47 108.89 162.7 108.08 159.12 108.08C155.66 108.08 152.92 108.84 150.9 110.36C148.9 111.86 147.9 114.02 147.9 116.84C147.9 119.8 148.87 122.01 150.81 123.47C152.75 124.93 155.58 125.66 159.3 125.66C160.96 125.66 162.43 125.5 163.71 125.18C164.99 124.88 166.07 124.47 166.95 123.95C167.83 123.43 168.52 122.85 169.02 122.21C169.54 121.57 169.9 120.89 170.1 120.17H163.38ZM178.574 125H185.834L193.334 108.74H186.104L182.204 119.45L178.304 108.74H171.074L178.574 125ZM200.524 115.07C200.724 114.07 201.204 113.27 201.964 112.67C202.744 112.05 203.834 111.74 205.234 111.74C206.634 111.74 207.714 112.05 208.474 112.67C209.254 113.27 209.744 114.07 209.944 115.07H200.524ZM209.464 120.17C209.024 120.73 208.504 121.18 207.904 121.52C207.324 121.84 206.564 122 205.624 122C204.064 122 202.864 121.68 202.024 121.04C201.204 120.38 200.704 119.49 200.524 118.37H216.484V117.89C216.484 114.59 215.494 112.13 213.514 110.51C211.554 108.89 208.784 108.08 205.204 108.08C201.744 108.08 199.004 108.84 196.984 110.36C194.984 111.86 193.984 114.02 193.984 116.84C193.984 119.8 194.954 122.01 196.894 123.47C198.834 124.93 201.664 125.66 205.384 125.66C207.044 125.66 208.514 125.5 209.794 125.18C211.074 124.88 212.154 124.47 213.034 123.95C213.914 123.43 214.604 122.85 215.104 122.21C215.624 121.57 215.984 120.89 216.184 120.17H209.464ZM219.258 125H225.618V103.04H219.258V125ZM239.629 112.28C241.109 112.28 242.259 112.67 243.079 113.45C243.899 114.23 244.309 115.37 244.309 116.87C244.309 118.37 243.899 119.51 243.079 120.29C242.259 121.07 241.109 121.46 239.629 121.46C238.149 121.46 236.999 121.07 236.179 120.29C235.359 119.51 234.949 118.37 234.949 116.87C234.949 115.37 235.359 114.23 236.179 113.45C236.999 112.67 238.149 112.28 239.629 112.28ZM228.229 116.87C228.229 119.73 229.199 121.91 231.139 123.41C233.099 124.91 235.929 125.66 239.629 125.66C243.329 125.66 246.149 124.91 248.089 123.41C250.049 121.91 251.029 119.73 251.029 116.87C251.029 114.01 250.049 111.83 248.089 110.33C246.149 108.83 243.329 108.08 239.629 108.08C235.929 108.08 233.099 108.83 231.139 110.33C229.199 111.83 228.229 114.01 228.229 116.87ZM253.533 130.88H259.893V123.53H259.953C260.533 124.17 261.343 124.68 262.383 125.06C263.443 125.46 264.653 125.66 266.013 125.66C267.473 125.66 268.783 125.44 269.943 125C271.123 124.58 272.123 123.98 272.943 123.2C273.783 122.4 274.413 121.49 274.833 120.47C275.253 119.43 275.463 118.32 275.463 117.14C275.463 114.36 274.603 112.2 272.883 110.66C271.183 109.1 268.873 108.32 265.953 108.32C264.673 108.32 263.493 108.55 262.413 109.01C261.333 109.45 260.453 110.08 259.773 110.9H259.713V108.74H253.533V130.88ZM259.893 116.9C259.893 115.62 260.283 114.61 261.063 113.87C261.843 113.13 262.963 112.76 264.423 112.76C265.883 112.76 266.993 113.11 267.753 113.81C268.533 114.51 268.923 115.54 268.923 116.9C268.923 118.24 268.533 119.27 267.753 119.99C266.993 120.69 265.883 121.04 264.423 121.04C262.963 121.04 261.843 120.67 261.063 119.93C260.283 119.19 259.893 118.18 259.893 116.9ZM283.786 115.07C283.986 114.07 284.466 113.27 285.226 112.67C286.006 112.05 287.096 111.74 288.496 111.74C289.896 111.74 290.976 112.05 291.736 112.67C292.516 113.27 293.006 114.07 293.206 115.07H283.786ZM292.726 120.17C292.286 120.73 291.766 121.18 291.166 121.52C290.586 121.84 289.826 122 288.886 122C287.326 122 286.126 121.68 285.286 121.04C284.466 120.38 283.966 119.49 283.786 118.37H299.746V117.89C299.746 114.59 298.756 112.13 296.776 110.51C294.816 108.89 292.046 108.08 288.466 108.08C285.006 108.08 282.266 108.84 280.246 110.36C278.246 111.86 277.246 114.02 277.246 116.84C277.246 119.8 278.216 122.01 280.156 123.47C282.096 124.93 284.926 125.66 288.646 125.66C290.306 125.66 291.776 125.5 293.056 125.18C294.336 124.88 295.416 124.47 296.296 123.95C297.176 123.43 297.866 122.85 298.366 122.21C298.886 121.57 299.246 120.89 299.446 120.17H292.726ZM302.52 125H308.88V118.7C308.88 117.18 309.31 116 310.17 115.16C311.05 114.32 312.37 113.9 314.13 113.9C314.71 113.9 315.33 113.95 315.99 114.05C316.67 114.15 317.22 114.28 317.64 114.44V108.5C317.02 108.38 316.3 108.32 315.48 108.32C314.06 108.32 312.76 108.65 311.58 109.31C310.4 109.97 309.49 110.85 308.85 111.95H308.79V108.74H302.52V125Z" fill="#044ADC"/>
<path d="M223.168 52.7961C223.635 53.605 223.706 54.7298 223.212 56.2127C222.718 57.6942 221.693 59.4157 220.169 61.2679C217.127 64.9662 212.234 69.0155 206.202 72.4984C200.169 75.9813 194.216 78.1938 189.492 78.9796C187.126 79.3731 185.123 79.3995 183.593 79.0866C182.061 78.7733 181.123 78.1497 180.656 77.3409C180.189 76.532 180.118 75.4072 180.612 73.9243C181.106 72.4428 182.131 70.7213 183.655 68.8691C186.697 65.1708 191.59 61.1215 197.622 57.6386C203.655 54.1557 209.608 51.9432 214.332 51.1574C216.698 50.7639 218.701 50.7375 220.231 51.0504C221.763 51.3637 222.701 51.9873 223.168 52.7961Z" stroke="#044ADC" stroke-width="2"/>
<circle cx="198.92" cy="60.2611" r="7.96767" fill="#044ADC"/>
</svg>
