<svg width="418" height="200" viewBox="0 0 418 200" fill="none" xmlns="http://www.w3.org/2000/svg">
<rect width="418" height="200" rx="10" fill="#17181C"/>
<path d="M123.638 125H138.188C139.828 125 141.308 124.83 142.628 124.49C143.948 124.15 145.108 123.58 146.108 122.78C147.128 121.96 147.918 120.85 148.478 119.45C149.038 118.05 149.318 116.33 149.318 114.29C149.318 110.73 148.448 108.06 146.708 106.28C144.988 104.48 142.458 103.58 139.118 103.58H123.638V125ZM130.778 108.38H136.178C140.018 108.38 141.938 110.34 141.938 114.26C141.938 115.06 141.848 115.81 141.668 116.51C141.508 117.21 141.228 117.84 140.828 118.4C140.448 118.94 139.918 119.38 139.238 119.72C138.558 120.04 137.728 120.2 136.748 120.2H130.778V108.38ZM157.864 115.07C158.064 114.07 158.544 113.27 159.304 112.67C160.084 112.05 161.174 111.74 162.574 111.74C163.974 111.74 165.054 112.05 165.814 112.67C166.594 113.27 167.084 114.07 167.284 115.07H157.864ZM166.804 120.17C166.364 120.73 165.844 121.18 165.244 121.52C164.664 121.84 163.904 122 162.964 122C161.404 122 160.204 121.68 159.364 121.04C158.544 120.38 158.044 119.49 157.864 118.37H173.824V117.89C173.824 114.59 172.834 112.13 170.854 110.51C168.894 108.89 166.124 108.08 162.544 108.08C159.084 108.08 156.344 108.84 154.324 110.36C152.324 111.86 151.324 114.02 151.324 116.84C151.324 119.8 152.294 122.01 154.234 123.47C156.174 124.93 159.004 125.66 162.724 125.66C164.384 125.66 165.854 125.5 167.134 125.18C168.414 124.88 169.494 124.47 170.374 123.95C171.254 123.43 171.944 122.85 172.444 122.21C172.964 121.57 173.324 120.89 173.524 120.17H166.804ZM175.608 119.93C175.648 121.09 175.998 122.06 176.658 122.84C177.318 123.6 178.168 124.19 179.208 124.61C180.268 125.01 181.398 125.28 182.598 125.42C183.798 125.58 185.048 125.66 186.348 125.66C189.768 125.66 192.358 125.2 194.118 124.28C195.878 123.34 196.758 121.92 196.758 120.02C196.758 118.46 196.228 117.3 195.168 116.54C194.128 115.76 192.478 115.25 190.218 115.01L184.728 114.41C183.968 114.33 183.438 114.19 183.138 113.99C182.838 113.79 182.688 113.55 182.688 113.27C182.688 112.73 182.928 112.34 183.408 112.1C183.908 111.86 184.638 111.74 185.598 111.74C186.558 111.74 187.318 111.86 187.878 112.1C188.578 112.36 188.958 112.82 189.018 113.48H196.158C196.078 112.38 195.718 111.47 195.078 110.75C194.458 110.03 193.658 109.48 192.678 109.1C191.698 108.7 190.648 108.43 189.528 108.29C188.428 108.15 187.258 108.08 186.018 108.08C184.438 108.08 183.048 108.18 181.848 108.38C180.648 108.58 179.618 108.9 178.758 109.34C177.918 109.78 177.268 110.38 176.808 111.14C176.368 111.88 176.148 112.79 176.148 113.87C176.148 115.23 176.608 116.27 177.528 116.99C178.448 117.69 179.858 118.16 181.758 118.4L187.428 119.09C188.248 119.19 188.818 119.33 189.138 119.51C189.458 119.67 189.618 119.96 189.618 120.38C189.618 120.92 189.338 121.3 188.778 121.52C188.238 121.72 187.548 121.82 186.708 121.82C185.408 121.82 184.468 121.65 183.888 121.31C183.388 121.05 183.088 120.59 182.988 119.93H175.608ZM214.692 110.81H214.632C213.992 109.97 213.092 109.35 211.932 108.95C210.792 108.53 209.482 108.32 208.002 108.32C206.422 108.32 205.022 108.53 203.802 108.95C202.582 109.37 201.572 109.95 200.772 110.69C199.972 111.41 199.372 112.25 198.972 113.21C198.572 114.17 198.372 115.2 198.372 116.3C198.372 117.44 198.552 118.49 198.912 119.45C199.292 120.41 199.862 121.26 200.622 122C201.402 122.72 202.402 123.28 203.622 123.68C204.862 124.08 206.322 124.28 208.002 124.28C209.322 124.28 210.572 124.11 211.752 123.77C212.932 123.41 213.852 122.89 214.512 122.21V123.35C214.512 124.87 214.162 125.95 213.462 126.59C212.762 127.25 211.532 127.58 209.772 127.58C208.732 127.58 207.862 127.43 207.162 127.13C206.462 126.83 206.042 126.34 205.902 125.66H198.882C199.042 126.76 199.402 127.67 199.962 128.39C200.542 129.13 201.302 129.7 202.242 130.1C203.182 130.52 204.292 130.81 205.572 130.97C206.852 131.15 208.342 131.24 210.042 131.24C213.922 131.24 216.692 130.64 218.352 129.44C220.032 128.24 220.872 126.27 220.872 123.53V108.74H214.692V110.81ZM205.092 116.39C205.092 115.25 205.482 114.32 206.262 113.6C207.062 112.88 208.232 112.52 209.772 112.52C211.352 112.52 212.532 112.88 213.312 113.6C214.112 114.3 214.512 115.25 214.512 116.45C214.512 117.59 214.142 118.51 213.402 119.21C212.662 119.91 211.452 120.26 209.772 120.26C208.232 120.26 207.062 119.9 206.262 119.18C205.482 118.46 205.092 117.53 205.092 116.39ZM224.352 125H230.712V108.74H224.352V125ZM224.352 106.88H230.712V103.04H224.352V106.88ZM234.193 125H240.553V117.02C240.553 115.74 240.913 114.77 241.633 114.11C242.373 113.45 243.333 113.12 244.513 113.12C246.713 113.12 247.813 114.15 247.813 116.21V125H254.173V114.29C254.173 112.33 253.543 110.85 252.283 109.85C251.023 108.83 249.353 108.32 247.273 108.32C245.733 108.32 244.373 108.57 243.193 109.07C242.033 109.57 241.113 110.24 240.433 111.08H240.373V108.74H234.193V125ZM263.362 115.07C263.562 114.07 264.042 113.27 264.802 112.67C265.582 112.05 266.672 111.74 268.072 111.74C269.472 111.74 270.552 112.05 271.312 112.67C272.092 113.27 272.582 114.07 272.782 115.07H263.362ZM272.302 120.17C271.862 120.73 271.342 121.18 270.742 121.52C270.162 121.84 269.402 122 268.462 122C266.902 122 265.702 121.68 264.862 121.04C264.042 120.38 263.542 119.49 263.362 118.37H279.322V117.89C279.322 114.59 278.332 112.13 276.352 110.51C274.392 108.89 271.622 108.08 268.042 108.08C264.582 108.08 261.842 108.84 259.822 110.36C257.822 111.86 256.822 114.02 256.822 116.84C256.822 119.8 257.792 122.01 259.732 123.47C261.672 124.93 264.502 125.66 268.222 125.66C269.882 125.66 271.352 125.5 272.632 125.18C273.912 124.88 274.992 124.47 275.872 123.95C276.752 123.43 277.442 122.85 277.942 122.21C278.462 121.57 278.822 120.89 279.022 120.17H272.302ZM282.096 125H288.456V118.7C288.456 117.18 288.886 116 289.746 115.16C290.626 114.32 291.946 113.9 293.706 113.9C294.286 113.9 294.906 113.95 295.566 114.05C296.246 114.15 296.796 114.28 297.216 114.44V108.5C296.596 108.38 295.876 108.32 295.056 108.32C293.636 108.32 292.336 108.65 291.156 109.31C289.976 109.97 289.066 110.85 288.426 111.95H288.366V108.74H282.096V125Z" fill="#FB3DB3"/>
<path d="M223.168 52.7961C223.635 53.605 223.706 54.7298 223.212 56.2127C222.718 57.6942 221.693 59.4157 220.169 61.2679C217.127 64.9662 212.234 69.0155 206.202 72.4984C200.169 75.9813 194.216 78.1938 189.492 78.9796C187.126 79.3731 185.123 79.3995 183.593 79.0866C182.061 78.7733 181.123 78.1497 180.656 77.3409C180.189 76.532 180.118 75.4072 180.612 73.9243C181.106 72.4428 182.131 70.7213 183.655 68.8691C186.697 65.1708 191.59 61.1215 197.622 57.6386C203.655 54.1557 209.608 51.9432 214.332 51.1574C216.698 50.7639 218.701 50.7375 220.231 51.0504C221.763 51.3637 222.701 51.9873 223.168 52.7961Z" stroke="#FF0099" stroke-width="2"/>
<circle cx="198.92" cy="60.2611" r="7.96767" fill="#FF0099"/>
</svg>
