<svg width="211" height="23" viewBox="0 0 211 23" fill="none" xmlns="http://www.w3.org/2000/svg">
<path d="M40.866 22.0059H47.916L51.636 8.05586H51.696L55.416 22.0059H62.466L68.886 0.585858H61.986L58.626 15.0459H58.566L54.696 0.585858H48.636L44.766 15.0459H44.706L41.346 0.585858H34.446L40.866 22.0059ZM66.9459 22.0059H74.5959L75.8859 18.5259H85.2459L86.5359 22.0059H94.1859L84.9759 0.585858H76.2459L66.9459 22.0059ZM83.5659 14.0859H77.5659L80.5359 5.98586H80.5959L83.5659 14.0859ZM100.332 22.0059H107.472V15.2559L116.982 0.585858H108.702L103.902 9.67586L99.1021 0.585858H90.8221L100.332 15.2559V22.0059ZM120.386 22.0059V11.6859H131.186V9.94586H120.386V2.14586H132.266V0.405859H118.346V22.0059H120.386ZM133.705 22.0059L136.255 15.2259H146.095L148.585 22.0059H150.685L142.405 0.405859H140.095L131.605 22.0059H133.705ZM141.175 2.14586L145.405 13.4859H136.945L141.175 2.14586ZM155.605 10.4559V2.14586H162.085C162.805 2.14586 163.475 2.20586 164.095 2.32586C164.735 2.44586 165.295 2.65586 165.775 2.95586C166.255 3.25586 166.635 3.67586 166.915 4.21586C167.195 4.73586 167.335 5.38586 167.335 6.16586C167.335 7.60586 166.845 8.68586 165.865 9.40586C164.885 10.1059 163.585 10.4559 161.965 10.4559H155.605ZM162.025 12.1959C163.225 12.1959 164.185 12.3759 164.905 12.7359C165.625 13.0759 166.095 13.7759 166.315 14.8359C166.395 15.2159 166.465 16.0459 166.525 17.3259C166.585 18.4859 166.665 19.4559 166.765 20.2359C166.865 20.9959 167.035 21.5859 167.275 22.0059H169.525V21.7959C169.245 21.5759 169.035 21.1459 168.895 20.5059C168.755 19.8659 168.665 18.7659 168.625 17.2059C168.605 16.4659 168.565 15.8259 168.505 15.2859C168.445 14.7259 168.325 14.1859 168.145 13.6659C167.985 13.1459 167.715 12.6859 167.335 12.2859C166.975 11.8659 166.485 11.5559 165.865 11.3559C167.125 10.7959 168.025 10.1159 168.565 9.31586C169.105 8.51586 169.375 7.43586 169.375 6.07586C169.375 4.11586 168.755 2.68586 167.515 1.78586C166.275 0.865859 164.445 0.405859 162.025 0.405859H153.565V22.0059H155.605V12.1959H162.025ZM188.275 22.0059V20.2659H175.645V11.6859H186.775V9.94586H175.645V2.14586H187.975V0.405859H173.605V22.0059H188.275ZM193.954 10.4559V2.14586H200.434C201.154 2.14586 201.824 2.20586 202.444 2.32586C203.084 2.44586 203.644 2.65586 204.124 2.95586C204.604 3.25586 204.984 3.67586 205.264 4.21586C205.544 4.73586 205.684 5.38586 205.684 6.16586C205.684 7.60586 205.194 8.68586 204.214 9.40586C203.234 10.1059 201.934 10.4559 200.314 10.4559H193.954ZM200.374 12.1959C201.574 12.1959 202.534 12.3759 203.254 12.7359C203.974 13.0759 204.444 13.7759 204.664 14.8359C204.744 15.2159 204.814 16.0459 204.874 17.3259C204.934 18.4859 205.014 19.4559 205.114 20.2359C205.214 20.9959 205.384 21.5859 205.624 22.0059H207.874V21.7959C207.594 21.5759 207.384 21.1459 207.244 20.5059C207.104 19.8659 207.014 18.7659 206.974 17.2059C206.954 16.4659 206.914 15.8259 206.854 15.2859C206.794 14.7259 206.674 14.1859 206.494 13.6659C206.334 13.1459 206.064 12.6859 205.684 12.2859C205.324 11.8659 204.834 11.5559 204.214 11.3559C205.474 10.7959 206.374 10.1159 206.914 9.31586C207.454 8.51586 207.724 7.43586 207.724 6.07586C207.724 4.11586 207.104 2.68586 205.864 1.78586C204.624 0.865859 202.794 0.405859 200.374 0.405859H191.914V22.0059H193.954V12.1959H200.374Z" fill="black"/>
<path d="M0.174753 10.916C0.117084 10.9177 0.0594159 10.9211 0 10.9211C0.0594159 10.9211 0.117084 10.9245 0.174753 10.9262V10.916Z" fill="black"/>
<path d="M0.174561 1.69324V10.9163C6.3573 10.8266 11.3482 5.99068 11.4409 0H1.92209C0.957452 0 0.174561 0.758571 0.174561 1.69324Z" fill="black"/>
<path d="M21.1452 0H11.4517C11.5443 6.04655 16.6296 10.9214 22.8927 10.9214V1.69324C22.8927 0.758571 22.1098 0 21.1452 0Z" fill="black"/>
<path d="M0.174561 10.9268V20.3191C0.174561 21.2538 0.957452 22.0124 1.92209 22.0124H11.4461C11.4461 15.9438 6.41497 11.0165 0.174561 10.9268Z" fill="black"/>
<path d="M22.8926 20.3193V10.9219C16.5718 10.9219 11.4463 15.8881 11.4463 22.0126H21.1451C22.1097 22.0126 22.8926 21.254 22.8926 20.3193Z" fill="black"/>
</svg>
