<svg width="212" height="23" viewBox="0 0 212 23" fill="none" xmlns="http://www.w3.org/2000/svg">
<path d="M41.6839 22.0061H48.7339L52.4539 8.0561H52.5139L56.2339 22.0061H63.2839L69.7039 0.586102H62.8039L59.4439 15.0461H59.3839L55.5139 0.586102H49.4539L45.5839 15.0461H45.5239L42.1639 0.586102H35.2639L41.6839 22.0061ZM67.7638 22.0061H75.4138L76.7038 18.5261H86.0638L87.3538 22.0061H95.0038L85.7938 0.586102H77.0638L67.7638 22.0061ZM84.3838 14.0861H78.3838L81.3538 5.9861H81.4138L84.3838 14.0861ZM101.15 22.0061H108.29V15.2561L117.8 0.586102H109.52L104.72 9.6761L99.92 0.586102H91.64L101.15 15.2561V22.0061ZM121.204 22.0061V11.6861H132.004V9.9461H121.204V2.1461H133.084V0.406103H119.164V22.0061H121.204ZM134.523 22.0061L137.073 15.2261H146.913L149.403 22.0061H151.503L143.223 0.406103H140.913L132.423 22.0061H134.523ZM141.993 2.1461L146.223 13.4861H137.763L141.993 2.1461ZM156.423 10.4561V2.1461H162.903C163.623 2.1461 164.293 2.2061 164.913 2.3261C165.553 2.4461 166.113 2.6561 166.593 2.9561C167.073 3.2561 167.453 3.6761 167.733 4.2161C168.013 4.7361 168.153 5.3861 168.153 6.1661C168.153 7.6061 167.663 8.6861 166.683 9.4061C165.703 10.1061 164.403 10.4561 162.783 10.4561H156.423ZM162.843 12.1961C164.043 12.1961 165.003 12.3761 165.723 12.7361C166.443 13.0761 166.913 13.7761 167.133 14.8361C167.213 15.2161 167.283 16.0461 167.343 17.3261C167.403 18.4861 167.483 19.4561 167.583 20.2361C167.683 20.9961 167.853 21.5861 168.093 22.0061H170.343V21.7961C170.063 21.5761 169.853 21.1461 169.713 20.5061C169.573 19.8661 169.483 18.7661 169.443 17.2061C169.423 16.4661 169.383 15.8261 169.323 15.2861C169.263 14.7261 169.143 14.1861 168.963 13.6661C168.803 13.1461 168.533 12.6861 168.153 12.2861C167.793 11.8661 167.303 11.5561 166.683 11.3561C167.943 10.7961 168.843 10.1161 169.383 9.3161C169.923 8.5161 170.193 7.4361 170.193 6.0761C170.193 4.1161 169.573 2.6861 168.333 1.7861C167.093 0.866103 165.263 0.406103 162.843 0.406103H154.383V22.0061H156.423V12.1961H162.843ZM189.092 22.0061V20.2661H176.462V11.6861H187.592V9.9461H176.462V2.1461H188.792V0.406103H174.422V22.0061H189.092ZM194.772 10.4561V2.1461H201.252C201.972 2.1461 202.642 2.2061 203.262 2.3261C203.902 2.4461 204.462 2.6561 204.942 2.9561C205.422 3.2561 205.802 3.6761 206.082 4.2161C206.362 4.7361 206.502 5.3861 206.502 6.1661C206.502 7.6061 206.012 8.6861 205.032 9.4061C204.052 10.1061 202.752 10.4561 201.132 10.4561H194.772ZM201.192 12.1961C202.392 12.1961 203.352 12.3761 204.072 12.7361C204.792 13.0761 205.262 13.7761 205.482 14.8361C205.562 15.2161 205.632 16.0461 205.692 17.3261C205.752 18.4861 205.832 19.4561 205.932 20.2361C206.032 20.9961 206.202 21.5861 206.442 22.0061H208.692V21.7961C208.412 21.5761 208.202 21.1461 208.062 20.5061C207.922 19.8661 207.832 18.7661 207.792 17.2061C207.772 16.4661 207.732 15.8261 207.672 15.2861C207.612 14.7261 207.492 14.1861 207.312 13.6661C207.152 13.1461 206.882 12.6861 206.502 12.2861C206.142 11.8661 205.652 11.5561 205.032 11.3561C206.292 10.7961 207.192 10.1161 207.732 9.3161C208.272 8.5161 208.542 7.4361 208.542 6.0761C208.542 4.1161 207.922 2.6861 206.682 1.7861C205.442 0.866103 203.612 0.406103 201.192 0.406103H192.732V22.0061H194.772V12.1961H201.192Z" fill="white"/>
<path d="M0.992624 10.9165C0.934955 10.9182 0.877287 10.9216 0.817871 10.9216C0.877287 10.9216 0.934955 10.925 0.992624 10.9267V10.9165Z" fill="white"/>
<path d="M0.992432 1.69324V10.9163C7.17518 10.8266 12.1661 5.99068 12.2587 0H2.73996C1.77532 0 0.992432 0.758571 0.992432 1.69324Z" fill="white"/>
<path d="M21.9631 0H12.2695C12.3622 6.04655 17.4474 10.9214 23.7106 10.9214V1.69324C23.7106 0.758571 22.9277 0 21.9631 0Z" fill="white"/>
<path d="M0.992432 10.9265V20.3189C0.992432 21.2536 1.77532 22.0121 2.73996 22.0121H12.264C12.264 15.9436 7.23284 11.0163 0.992432 10.9265Z" fill="white"/>
<path d="M23.7104 20.3189V10.9214C17.3897 10.9214 12.2642 15.8877 12.2642 22.0121H21.9629C22.9276 22.0121 23.7104 21.2535 23.7104 20.3189Z" fill="white"/>
</svg>
