<svg width="1283" height="139" viewBox="0 0 1283 139" fill="none" xmlns="http://www.w3.org/2000/svg">
<mask id="mask0_249_2556" style="mask-type:alpha" maskUnits="userSpaceOnUse" x="0" y="0" width="1283" height="139">
<rect x="1.11963" y="0.0639648" width="1281" height="135.968" rx="15" transform="rotate(0.099751 1.11963 0.0639648)" fill="url(#paint0_linear_249_2556)"/>
</mask>
<g mask="url(#mask0_249_2556)">
<rect x="1.00024" y="1.1792" width="1281" height="135.968" rx="15" fill="#17181C"/>
<path d="M75.7711 46.9341L77.1322 65.8773L91.4894 53.4448L79.057 67.8021L98.0002 69.1632L79.057 70.5243L91.4894 84.8815L77.1322 72.4491L75.7711 91.3923L74.41 72.4491L60.0527 84.8815L72.4852 70.5243L53.542 69.1632L72.4852 67.8021L60.0527 53.4448L74.41 65.8773L75.7711 46.9341Z" fill="#FFFDFE"/>
<path d="M141.996 75.2334H121.659V77.8213H141.996V75.2334ZM123.246 62.6357H126.323V69.374H123.344V71.8154H140.19V69.374H137.162V62.6357H140.287V60.1455H123.246V62.6357ZM129.448 69.374V62.6357H134.086V69.374H129.448ZM163.603 75.3799H154.936V72.0352H161.772V69.4961H148.735V67.0059H161.259V59.6328H145.585V62.123H158.183V64.5645H145.61V72.0352H151.835V75.3799H143.266V77.9434H163.603V75.3799ZM179.545 58.6318H176.591V63.6855H174.125V66.2002H176.591V71.6201H179.545V58.6318ZM164.555 69.1055L166.191 71.5713C168.241 70.7534 169.596 69.2764 170.402 67.4819C171.171 69.0933 172.453 70.3994 174.345 71.1318L175.907 68.7393C173.051 67.6284 171.867 65.3091 171.879 62.9775V62.2939H175.199V59.8037H165.312V62.2939H168.852V62.9531C168.852 65.4189 167.594 67.9702 164.555 69.1055ZM168.608 75.0137H180.864V80.4092H183.964V72.5479H168.608V75.0137ZM181.01 71.7422H183.964V58.1924H181.01V71.7422ZM204.594 69.667H192.045V67.1279H203.91V64.6865H192.045V62.3428H204.423V59.8281H188.871V72.1328H204.594V69.667ZM186.479 77.8213H206.816V75.2822H186.479V77.8213ZM228.398 68.1533H208.061V70.4727H228.398V68.1533ZM210.38 73.7197H222.88V74.8428H210.405V80.2139H226.615V78.0898H213.505V76.8203H225.956V71.5713H210.38V73.7197ZM210.551 60.707H222.807V61.8301H210.6V67.1035H226.323V65.0039H213.7V63.8076H225.932V58.583H210.551V60.707ZM242.656 59.6816C239.152 59.6694 236.467 61.9399 236.479 65.126C236.467 68.3242 239.152 70.5825 242.656 70.5947C246.183 70.5825 248.796 68.3242 248.808 65.126C248.796 61.9399 246.183 59.6694 242.656 59.6816ZM235.551 73.3779L235.917 75.917C239.799 75.917 245.073 75.8804 250.004 74.916L249.76 72.6699C245.011 73.3413 239.518 73.3901 235.551 73.3779ZM239.579 65.126C239.567 63.3926 240.898 62.3672 242.656 62.3672C244.426 62.3672 245.768 63.3926 245.781 65.126C245.768 66.8838 244.426 67.897 242.656 67.8848C240.898 67.897 239.567 66.8838 239.579 65.126ZM251.03 80.458H254.13V58.1924H251.03V80.458ZM268.901 60.1943H258.158V75.1113H268.901V60.1943ZM261.283 72.6455V62.6357H265.873V72.6455H261.283ZM272.514 80.458H275.663V58.1924H272.514V80.458ZM286.747 72.4502V71.6934H283.72V72.4502C283.708 74.6108 282.463 76.8203 279.545 77.8213L281.083 80.0918C283.11 79.3716 284.477 78.0288 285.27 76.3809C285.99 78.0898 287.297 79.5303 289.384 80.2871C291.374 79.5059 292.668 78.0166 293.4 76.2954C294.169 78.0166 295.561 79.3716 297.685 80.0918L299.198 77.8213C296.232 76.9058 294.999 74.7695 295.024 72.4502V71.6934H291.948V72.4502C291.948 74.0981 291.142 76.0024 289.299 77.3086C287.504 76.0879 286.747 74.2324 286.747 72.4502ZM279.008 64.6865C279.008 67.7749 281.62 69.9966 285.087 69.9844C288.542 69.9966 291.154 67.7749 291.166 64.6865C291.154 61.5371 288.542 59.3398 285.087 59.3398C281.62 59.3398 279.008 61.5371 279.008 64.6865ZM282.06 64.6865C282.035 62.9653 283.305 61.9521 285.087 61.9521C286.821 61.9521 288.078 62.9653 288.09 64.6865C288.078 66.3589 286.821 67.4087 285.087 67.3965C283.305 67.4087 282.035 66.3589 282.06 64.6865ZM294.145 70.7656H297.27V58.2168H294.145V70.7656ZM319.535 58.1924H316.606V80.4092H319.535V58.1924ZM300.004 73.5977L301.762 75.7949C304.924 73.9639 306.987 71.7666 308.256 69.2275H311.894V79.4326H314.799V58.6807H311.894V66.7617H309.22C309.758 64.9307 309.99 62.9531 309.99 60.8291H301.225V63.3438H306.901C306.474 67.7017 304.496 70.9365 300.004 73.5977ZM338.969 60.0234H328.3V70.6924H338.969V60.0234ZM330.864 80.0186H346.073V77.5283H333.964V72.8164H330.864V80.0186ZM331.376 68.251V62.5137H335.893V68.251H331.376ZM342.143 74.4033H345.268V67.1523H348.271V64.5889H345.268V58.1924H342.143V74.4033ZM369.56 66.8594H349.247V69.3008H369.56V66.8594ZM351.591 72.9629H363.969V74.208H351.615V80.2139H367.631V77.7969H354.667V76.4297H367.045V70.6191H351.591V72.9629ZM351.786 65.6387H367.143V63.1973H354.887V61.1221H366.972V58.6318H351.786V65.6387ZM376.982 59.7549C373.613 59.7549 371.196 62.8188 371.22 67.665C371.196 72.5479 373.613 75.5996 376.982 75.5996C380.082 75.5996 382.377 72.9873 382.707 68.7148H386.528V80.458H389.604V58.1924H386.528V66.2246H382.67C382.231 62.2207 379.985 59.7549 376.982 59.7549ZM374.198 67.665C374.186 64.3691 375.322 62.5625 376.982 62.5625C378.654 62.5625 379.765 64.3691 379.765 67.665C379.765 70.9731 378.654 72.7798 376.982 72.7676C375.322 72.7798 374.186 70.9731 374.198 67.665ZM412.724 67.0303H392.46V69.4717H401.03V70.9121H394.804V73.2314H407.182V74.4277H394.828V80.2627H410.844V77.9189H397.88V76.6006H410.258V70.9121H404.13V69.4717H412.724V67.0303ZM393.364 64.0762L394.34 66.4199C398.417 66.1147 401.237 64.8086 402.568 62.9531C403.898 64.8208 406.755 66.1147 410.868 66.4199L411.845 64.0762C407.731 63.8076 405.387 62.5625 404.667 61.2197H410.893V58.8271H394.316V61.2197H400.492C399.772 62.5747 397.453 63.8076 393.364 64.0762ZM431.816 59.4619H421.049V70.375H422.953C427.702 70.3872 430.534 70.3384 433.696 69.7891L433.378 67.3721C430.571 67.8359 428.093 67.897 424.174 67.9092V66.0781H431.156V63.6855H424.174V61.9521H431.816V59.4619ZM423.539 80.165H438.432V72.3037H423.539V80.165ZM426.615 77.6748V74.7207H435.38V77.6748H426.615ZM435.307 71.4004H438.432V58.2168H435.307V71.4004ZM460.258 58.2168H457.133V71.1074H452.885V73.2314H457.133V74.9893H460.258V58.2168ZM441.362 68.0557L441.728 70.5215C443.412 70.5215 445.304 70.5093 447.294 70.436V73.3779H444.194V80.0186H460.746V77.5283H447.294V74.4766H450.419V70.2529C452.214 70.1187 454.032 69.9111 455.79 69.6182L455.619 67.3965C450.92 67.9702 445.427 68.0312 441.362 68.0557ZM442.997 62.9531C442.997 65.3335 445.28 66.8716 448.588 66.8594C451.811 66.8716 454.118 65.3335 454.13 62.9531C454.118 60.585 451.811 58.9614 448.588 58.9736C445.28 58.9614 442.997 60.585 442.997 62.9531ZM445.951 62.9531C445.939 61.8545 447.001 61.2441 448.588 61.2441C450.077 61.2441 451.152 61.8545 451.176 62.9531C451.152 64.0273 450.077 64.6255 448.588 64.6133C447.001 64.6255 445.939 64.0273 445.951 62.9531ZM473.173 58.5098C468.046 58.5098 465.068 59.8525 465.068 62.2939C465.068 64.772 468.046 66.1025 473.173 66.1025C478.288 66.1025 481.242 64.772 481.254 62.2939C481.242 59.8525 478.288 58.5098 473.173 58.5098ZM463.041 69.6182H483.305V67.1523H463.041V69.6182ZM465.385 73.1826H477.763V74.4033H465.409V80.2627H481.425V77.9189H468.461V76.5762H480.839V70.9121H465.385V73.1826ZM468.339 62.2939C468.327 61.3052 469.914 60.7803 473.173 60.7803C476.457 60.7803 478.031 61.3052 478.031 62.2939C478.031 63.3804 476.457 63.8076 473.173 63.8076C469.914 63.8076 468.327 63.3804 468.339 62.2939ZM508.305 59.4863H492.729V61.9766H505.204C505.192 63.8931 505.143 66.0781 504.57 68.9346H490.409V71.4492H498.881V80.4336H502.006V71.4492H510.673V68.9346H507.731C508.293 65.8218 508.293 63.5635 508.305 61.4883V59.4863ZM522.734 61.5859H518.925V58.8027H515.849V61.5859H511.991V64.0518H522.734V61.5859ZM512.504 70.3262C512.504 73.4268 514.579 75.624 517.411 75.624C520.256 75.624 522.282 73.4268 522.294 70.3262C522.282 67.2378 520.256 65.0649 517.411 65.0527C514.579 65.0649 512.504 67.2378 512.504 70.3262ZM515.239 70.3262C515.239 68.6538 516.117 67.6406 517.411 67.6406C518.656 67.6406 519.548 68.6538 519.56 70.3262C519.548 72.0229 518.656 72.9873 517.411 72.9873C516.117 72.9873 515.239 72.0229 515.239 70.3262ZM523.564 79.457H526.469V69.7158H528.276V80.4092H531.23V58.1924H528.276V67.2256H526.469V58.6318H523.564V79.457ZM553.959 75.2822H545.292V71.1807H551.689V59.6084H548.588V63.0508H538.896V59.6084H535.771V71.1807H542.192V75.2822H533.622V77.8213H553.959V75.2822ZM538.896 68.6904V65.541H548.588V68.6904H538.896ZM562.358 63.7832V60.0967H559.33V63.9297C559.33 67.6895 558.11 71.6079 554.814 73.6465L556.718 75.9414C558.732 74.7207 560.063 72.6089 560.856 70.0942C561.564 72.3647 562.773 74.2935 564.701 75.4531L566.386 73.0361C563.346 71.0952 562.345 67.3843 562.358 63.7832ZM564.042 68.2266H566.923V79.3838H569.828V58.5098H566.923V65.6875H564.042V68.2266ZM571.513 80.4092H574.491V58.1924H571.513V80.4092ZM597.172 75.2578H592.656V69.7524C594.328 68.7148 595.329 67.1646 595.341 65.248C595.329 61.647 591.777 59.2788 586.967 59.2666C582.133 59.2788 578.617 61.647 578.617 65.248C578.617 67.2012 579.655 68.7759 581.376 69.8135V75.2578H576.835V77.8213H597.172V75.2578ZM581.694 65.248C581.694 63.0142 583.781 61.7202 586.967 61.7324C590.104 61.7202 592.253 63.0142 592.265 65.248C592.253 67.4209 590.104 68.7637 586.967 68.7637C583.781 68.7637 581.694 67.4209 581.694 65.248ZM584.452 75.2578V70.9487C585.234 71.0952 586.076 71.1807 586.967 71.1807C587.858 71.1807 588.713 71.0952 589.506 70.9365V75.2578H584.452Z" fill="white"/>
</g>
<line x1="652.463" y1="68.6631" x2="1007.54" y2="68.6631" stroke="white"/>
<defs>
<linearGradient id="paint0_linear_249_2556" x1="641.563" y1="35.5612" x2="641.62" y2="136.032" gradientUnits="userSpaceOnUse">
<stop offset="0.533081" stop-color="#03060F"/>
<stop offset="1" stop-color="#044ADC"/>
</linearGradient>
</defs>
</svg>
