<svg width="25" height="25" viewBox="0 0 25 25" fill="none" xmlns="http://www.w3.org/2000/svg">
<path d="M17.2715 3.72003C17.5341 3.45738 17.8459 3.24904 18.1891 3.1069C18.5323 2.96476 18.9001 2.8916 19.2715 2.8916C19.6429 2.8916 20.0107 2.96476 20.3539 3.1069C20.697 3.24904 21.0088 3.45738 21.2715 3.72003C21.5341 3.98267 21.7425 4.29448 21.8846 4.63764C22.0268 4.9808 22.0999 5.34859 22.0999 5.72003C22.0999 6.09146 22.0268 6.45926 21.8846 6.80242C21.7425 7.14558 21.5341 7.45739 21.2715 7.72003L7.77148 21.22L2.27148 22.72L3.77148 17.22L17.2715 3.72003Z" stroke="white" stroke-width="2" stroke-linecap="round" stroke-linejoin="round"/>
</svg>
