<svg width="21" height="20" viewBox="0 0 21 20" fill="none" xmlns="http://www.w3.org/2000/svg">
<path d="M14.7607 2.5009C14.9796 2.28203 15.2394 2.10842 15.5254 1.98996C15.8114 1.87151 16.1179 1.81055 16.4274 1.81055C16.7369 1.81055 17.0434 1.87151 17.3294 1.98996C17.6154 2.10842 17.8752 2.28203 18.0941 2.5009C18.3129 2.71977 18.4866 2.97961 18.605 3.26558C18.7235 3.55154 18.7844 3.85804 18.7844 4.16757C18.7844 4.4771 18.7235 4.7836 18.605 5.06956C18.4866 5.35553 18.3129 5.61537 18.0941 5.83424L6.84408 17.0842L2.26074 18.3342L3.51074 13.7509L14.7607 2.5009Z" stroke="#17181C" stroke-width="1.5" stroke-linecap="round" stroke-linejoin="round"/>
</svg>
