<svg width="25" height="25" viewBox="0 0 25 25" fill="none" xmlns="http://www.w3.org/2000/svg">
<path d="M7.5 22.7197H4.5C3.96957 22.7197 3.46086 22.509 3.08579 22.1339C2.71071 21.7589 2.5 21.2502 2.5 20.7197V13.7197C2.5 13.1893 2.71071 12.6806 3.08579 12.3055C3.46086 11.9304 3.96957 11.7197 4.5 11.7197H7.5M14.5 9.71973V5.71973C14.5 4.92408 14.1839 4.16102 13.6213 3.59841C13.0587 3.0358 12.2956 2.71973 11.5 2.71973L7.5 11.7197V22.7197H18.78C19.2623 22.7252 19.7304 22.5561 20.0979 22.2437C20.4654 21.9313 20.7077 21.4966 20.78 21.0197L22.16 12.0197C22.2035 11.7331 22.1842 11.4404 22.1033 11.162C22.0225 10.8835 21.8821 10.626 21.6919 10.4072C21.5016 10.1885 21.2661 10.0137 21.0016 9.89494C20.7371 9.77623 20.4499 9.71644 20.16 9.71973H14.5Z" stroke="#8F92A3" stroke-width="2" stroke-linecap="round" stroke-linejoin="round"/>
</svg>
