<svg width="633" height="300" viewBox="0 0 633 300" fill="none" xmlns="http://www.w3.org/2000/svg">
<rect width="633" height="300" rx="10" fill="#17181C"/>
<path d="M359.974 253.352H379.374C381.56 253.352 383.534 253.125 385.294 252.672C387.054 252.218 388.6 251.458 389.934 250.392C391.294 249.298 392.347 247.818 393.094 245.952C393.84 244.085 394.214 241.792 394.214 239.072C394.214 234.325 393.054 230.765 390.734 228.392C388.44 225.992 385.067 224.792 380.614 224.792H359.974V253.352ZM369.494 231.192H376.694C381.814 231.192 384.374 233.805 384.374 239.032C384.374 240.098 384.254 241.098 384.014 242.032C383.8 242.965 383.427 243.805 382.894 244.552C382.387 245.272 381.68 245.858 380.774 246.312C379.867 246.738 378.76 246.952 377.454 246.952H369.494V231.192ZM405.609 240.112C405.876 238.778 406.516 237.712 407.529 236.912C408.569 236.085 410.023 235.672 411.889 235.672C413.756 235.672 415.196 236.085 416.209 236.912C417.249 237.712 417.903 238.778 418.169 240.112H405.609ZM417.529 246.912C416.943 247.658 416.249 248.258 415.449 248.712C414.676 249.138 413.663 249.352 412.409 249.352C410.329 249.352 408.729 248.925 407.609 248.072C406.516 247.192 405.849 246.005 405.609 244.512H426.889V243.872C426.889 239.472 425.569 236.192 422.929 234.032C420.316 231.872 416.623 230.792 411.849 230.792C407.236 230.792 403.583 231.805 400.889 233.832C398.223 235.832 396.889 238.712 396.889 242.472C396.889 246.418 398.183 249.365 400.769 251.312C403.356 253.258 407.129 254.232 412.089 254.232C414.303 254.232 416.263 254.018 417.969 253.592C419.676 253.192 421.116 252.645 422.289 251.952C423.463 251.258 424.383 250.485 425.049 249.632C425.743 248.778 426.223 247.872 426.489 246.912H417.529ZM429.268 246.592C429.321 248.138 429.788 249.432 430.668 250.472C431.548 251.485 432.681 252.272 434.067 252.832C435.481 253.365 436.988 253.725 438.588 253.912C440.188 254.125 441.854 254.232 443.588 254.232C448.148 254.232 451.601 253.618 453.948 252.392C456.294 251.138 457.468 249.245 457.468 246.712C457.468 244.632 456.761 243.085 455.348 242.072C453.961 241.032 451.761 240.352 448.747 240.032L441.428 239.232C440.414 239.125 439.708 238.938 439.308 238.672C438.908 238.405 438.708 238.085 438.708 237.712C438.708 236.992 439.028 236.472 439.668 236.152C440.334 235.832 441.308 235.672 442.588 235.672C443.868 235.672 444.881 235.832 445.628 236.152C446.561 236.498 447.068 237.112 447.148 237.992H456.668C456.561 236.525 456.081 235.312 455.228 234.352C454.401 233.392 453.334 232.658 452.028 232.152C450.721 231.618 449.321 231.258 447.828 231.072C446.361 230.885 444.801 230.792 443.148 230.792C441.041 230.792 439.188 230.925 437.588 231.192C435.988 231.458 434.614 231.885 433.467 232.472C432.348 233.058 431.481 233.858 430.868 234.872C430.281 235.858 429.988 237.072 429.988 238.512C429.988 240.325 430.601 241.712 431.828 242.672C433.054 243.605 434.934 244.232 437.468 244.552L445.028 245.472C446.121 245.605 446.881 245.792 447.308 246.032C447.734 246.245 447.948 246.632 447.948 247.192C447.948 247.912 447.574 248.418 446.828 248.712C446.108 248.978 445.188 249.112 444.068 249.112C442.334 249.112 441.081 248.885 440.308 248.432C439.641 248.085 439.241 247.472 439.108 246.592H429.268ZM460.939 253.352H469.419V231.672H460.939V253.352ZM460.939 229.192H469.419V224.072H460.939V229.192ZM494.66 234.432H494.58C493.727 233.312 492.527 232.485 490.98 231.952C489.46 231.392 487.714 231.112 485.74 231.112C483.634 231.112 481.767 231.392 480.14 231.952C478.514 232.512 477.167 233.285 476.1 234.272C475.034 235.232 474.234 236.352 473.7 237.632C473.167 238.912 472.9 240.285 472.9 241.752C472.9 243.272 473.14 244.672 473.62 245.952C474.127 247.232 474.887 248.365 475.9 249.352C476.94 250.312 478.274 251.058 479.9 251.592C481.554 252.125 483.5 252.392 485.74 252.392C487.5 252.392 489.167 252.165 490.74 251.712C492.314 251.232 493.54 250.538 494.42 249.632V251.152C494.42 253.178 493.954 254.618 493.02 255.472C492.087 256.352 490.447 256.792 488.1 256.792C486.714 256.792 485.554 256.592 484.62 256.192C483.687 255.792 483.127 255.138 482.94 254.232H473.58C473.794 255.698 474.274 256.912 475.02 257.872C475.794 258.858 476.807 259.618 478.06 260.152C479.314 260.712 480.794 261.098 482.5 261.312C484.207 261.552 486.194 261.672 488.46 261.672C493.634 261.672 497.327 260.872 499.54 259.272C501.78 257.672 502.9 255.045 502.9 251.392V231.672H494.66V234.432ZM481.86 241.872C481.86 240.352 482.38 239.112 483.42 238.152C484.487 237.192 486.047 236.712 488.1 236.712C490.207 236.712 491.78 237.192 492.82 238.152C493.887 239.085 494.42 240.352 494.42 241.952C494.42 243.472 493.927 244.698 492.94 245.632C491.954 246.565 490.34 247.032 488.1 247.032C486.047 247.032 484.487 246.552 483.42 245.592C482.38 244.632 481.86 243.392 481.86 241.872ZM507.381 253.352H515.861V242.712C515.861 241.005 516.341 239.712 517.301 238.832C518.287 237.952 519.567 237.512 521.141 237.512C524.074 237.512 525.541 238.885 525.541 241.632V253.352H534.021V239.072C534.021 236.458 533.181 234.485 531.501 233.152C529.821 231.792 527.594 231.112 524.821 231.112C522.767 231.112 520.954 231.445 519.381 232.112C517.834 232.778 516.607 233.672 515.701 234.792H515.621V231.672H507.381V253.352ZM546.273 240.112C546.54 238.778 547.18 237.712 548.193 236.912C549.233 236.085 550.687 235.672 552.553 235.672C554.42 235.672 555.86 236.085 556.873 236.912C557.913 237.712 558.567 238.778 558.833 240.112H546.273ZM558.193 246.912C557.607 247.658 556.913 248.258 556.113 248.712C555.34 249.138 554.327 249.352 553.073 249.352C550.993 249.352 549.393 248.925 548.273 248.072C547.18 247.192 546.513 246.005 546.273 244.512H567.553V243.872C567.553 239.472 566.233 236.192 563.593 234.032C560.98 231.872 557.287 230.792 552.513 230.792C547.9 230.792 544.247 231.805 541.553 233.832C538.887 235.832 537.553 238.712 537.553 242.472C537.553 246.418 538.847 249.365 541.433 251.312C544.02 253.258 547.793 254.232 552.753 254.232C554.967 254.232 556.927 254.018 558.633 253.592C560.34 253.192 561.78 252.645 562.953 251.952C564.127 251.258 565.047 250.485 565.713 249.632C566.407 248.778 566.887 247.872 567.153 246.912H558.193ZM571.252 253.352H579.732V244.952C579.732 242.925 580.305 241.352 581.452 240.232C582.625 239.112 584.385 238.552 586.732 238.552C587.505 238.552 588.332 238.618 589.212 238.752C590.118 238.885 590.852 239.058 591.412 239.272V231.352C590.585 231.192 589.625 231.112 588.532 231.112C586.638 231.112 584.905 231.552 583.332 232.432C581.758 233.312 580.545 234.485 579.692 235.952H579.612V231.672H571.252V253.352Z" fill="#FF0099"/>
<path d="M331.469 247.569C331.315 247.301 331.041 247.13 330.745 247.038C330.052 246.823 329.458 246.358 329.093 245.726C328.29 244.335 328.784 242.54 330.195 241.726C331.606 240.911 333.407 241.38 334.211 242.772C334.576 243.405 334.681 244.151 334.521 244.858C334.452 245.16 334.464 245.483 334.619 245.751L338.15 251.867C338.638 252.713 339.911 252.427 339.97 251.451C340.28 246.346 340.356 239.325 338.743 236.531C336.963 233.449 333.618 231.573 330.015 231.637C329.926 231.638 329.845 231.586 329.808 231.506L325.216 221.532C324.97 220.997 324.318 220.789 323.808 221.084L315.512 225.873C315.002 226.168 314.856 226.836 315.196 227.317L321.54 236.279C321.591 236.352 321.595 236.448 321.55 236.524C319.691 239.614 319.643 243.449 321.423 246.531C323.035 249.325 329.153 252.77 333.73 255.054C334.605 255.49 335.489 254.532 335 253.685L331.469 247.569Z" fill="#FF0099"/>
<path d="M86 26.1055L88.1048 71.4861L109.494 54.7474L91.0813 74.1921L141 76.1055L91.0813 78.0189L109.494 97.4635L88.1048 80.7249L86 126.105L83.8952 80.7249L62.5061 97.4635L80.9187 78.0189L31 76.1055L80.9187 74.1921L62.5061 54.7474L83.8952 71.4861L86 26.1055Z" fill="#FF0099"/>
</svg>
