<svg width="633" height="300" viewBox="0 0 633 300" fill="none" xmlns="http://www.w3.org/2000/svg">
<rect width="633" height="300" rx="10" fill="#17181C"/>
<path d="M329.357 253.352H348.757C350.943 253.352 352.917 253.125 354.677 252.672C356.437 252.218 357.983 251.458 359.317 250.392C360.677 249.298 361.73 247.818 362.477 245.952C363.223 244.085 363.597 241.792 363.597 239.072C363.597 234.325 362.437 230.765 360.117 228.392C357.823 225.992 354.45 224.792 349.997 224.792H329.357V253.352ZM338.877 231.192H346.077C351.197 231.192 353.757 233.805 353.757 239.032C353.757 240.098 353.637 241.098 353.397 242.032C353.183 242.965 352.81 243.805 352.277 244.552C351.77 245.272 351.063 245.858 350.157 246.312C349.25 246.738 348.143 246.952 346.837 246.952H338.877V231.192ZM374.992 240.112C375.259 238.778 375.899 237.712 376.912 236.912C377.952 236.085 379.406 235.672 381.272 235.672C383.139 235.672 384.579 236.085 385.592 236.912C386.632 237.712 387.286 238.778 387.552 240.112H374.992ZM386.912 246.912C386.326 247.658 385.632 248.258 384.832 248.712C384.059 249.138 383.046 249.352 381.792 249.352C379.712 249.352 378.112 248.925 376.992 248.072C375.899 247.192 375.232 246.005 374.992 244.512H396.272V243.872C396.272 239.472 394.952 236.192 392.312 234.032C389.699 231.872 386.006 230.792 381.232 230.792C376.619 230.792 372.966 231.805 370.272 233.832C367.606 235.832 366.272 238.712 366.272 242.472C366.272 246.418 367.566 249.365 370.152 251.312C372.739 253.258 376.512 254.232 381.472 254.232C383.686 254.232 385.646 254.018 387.352 253.592C389.059 253.192 390.499 252.645 391.672 251.952C392.846 251.258 393.766 250.485 394.432 249.632C395.126 248.778 395.606 247.872 395.872 246.912H386.912ZM407.17 253.352H416.85L426.85 231.672H417.21L412.01 245.952L406.81 231.672H397.17L407.17 253.352ZM436.438 240.112C436.704 238.778 437.344 237.712 438.358 236.912C439.398 236.085 440.851 235.672 442.718 235.672C444.584 235.672 446.024 236.085 447.038 236.912C448.078 237.712 448.731 238.778 448.998 240.112H436.438ZM448.358 246.912C447.771 247.658 447.078 248.258 446.278 248.712C445.504 249.138 444.491 249.352 443.238 249.352C441.158 249.352 439.558 248.925 438.438 248.072C437.344 247.192 436.678 246.005 436.438 244.512H457.718V243.872C457.718 239.472 456.398 236.192 453.758 234.032C451.144 231.872 447.451 230.792 442.678 230.792C438.064 230.792 434.411 231.805 431.717 233.832C429.051 235.832 427.718 238.712 427.718 242.472C427.718 246.418 429.011 249.365 431.598 251.312C434.184 253.258 437.958 254.232 442.918 254.232C445.131 254.232 447.091 254.018 448.798 253.592C450.504 253.192 451.944 252.645 453.118 251.952C454.291 251.258 455.211 250.485 455.878 249.632C456.571 248.778 457.051 247.872 457.318 246.912H448.358ZM461.416 253.352H469.896V224.072H461.416V253.352ZM488.577 236.392C490.55 236.392 492.084 236.912 493.177 237.952C494.27 238.992 494.817 240.512 494.817 242.512C494.817 244.512 494.27 246.032 493.177 247.072C492.084 248.112 490.55 248.632 488.577 248.632C486.604 248.632 485.07 248.112 483.977 247.072C482.884 246.032 482.337 244.512 482.337 242.512C482.337 240.512 482.884 238.992 483.977 237.952C485.07 236.912 486.604 236.392 488.577 236.392ZM473.377 242.512C473.377 246.325 474.67 249.232 477.257 251.232C479.87 253.232 483.644 254.232 488.577 254.232C493.51 254.232 497.27 253.232 499.857 251.232C502.47 249.232 503.777 246.325 503.777 242.512C503.777 238.698 502.47 235.792 499.857 233.792C497.27 231.792 493.51 230.792 488.577 230.792C483.644 230.792 479.87 231.792 477.257 233.792C474.67 235.792 473.377 238.698 473.377 242.512ZM507.115 261.192H515.595V251.392H515.675C516.448 252.245 517.528 252.925 518.915 253.432C520.328 253.965 521.942 254.232 523.755 254.232C525.702 254.232 527.448 253.938 528.995 253.352C530.568 252.792 531.902 251.992 532.995 250.952C534.115 249.885 534.955 248.672 535.515 247.312C536.075 245.925 536.355 244.445 536.355 242.872C536.355 239.165 535.208 236.285 532.915 234.232C530.648 232.152 527.568 231.112 523.675 231.112C521.968 231.112 520.395 231.418 518.955 232.032C517.515 232.618 516.342 233.458 515.435 234.552H515.355V231.672H507.115V261.192ZM515.595 242.552C515.595 240.845 516.115 239.498 517.155 238.512C518.195 237.525 519.688 237.032 521.635 237.032C523.582 237.032 525.062 237.498 526.075 238.432C527.115 239.365 527.635 240.738 527.635 242.552C527.635 244.338 527.115 245.712 526.075 246.672C525.062 247.605 523.582 248.072 521.635 248.072C519.688 248.072 518.195 247.578 517.155 246.592C516.115 245.605 515.595 244.258 515.595 242.552ZM547.453 240.112C547.72 238.778 548.36 237.712 549.373 236.912C550.413 236.085 551.866 235.672 553.733 235.672C555.6 235.672 557.04 236.085 558.053 236.912C559.093 237.712 559.746 238.778 560.013 240.112H547.453ZM559.373 246.912C558.786 247.658 558.093 248.258 557.293 248.712C556.52 249.138 555.506 249.352 554.253 249.352C552.173 249.352 550.573 248.925 549.453 248.072C548.36 247.192 547.693 246.005 547.453 244.512H568.733V243.872C568.733 239.472 567.413 236.192 564.773 234.032C562.16 231.872 558.466 230.792 553.693 230.792C549.08 230.792 545.426 231.805 542.733 233.832C540.066 235.832 538.733 238.712 538.733 242.472C538.733 246.418 540.026 249.365 542.613 251.312C545.2 253.258 548.973 254.232 553.933 254.232C556.146 254.232 558.106 254.018 559.813 253.592C561.52 253.192 562.96 252.645 564.133 251.952C565.306 251.258 566.226 250.485 566.893 249.632C567.586 248.778 568.066 247.872 568.333 246.912H559.373ZM572.431 253.352H580.911V244.952C580.911 242.925 581.485 241.352 582.631 240.232C583.805 239.112 585.565 238.552 587.911 238.552C588.685 238.552 589.511 238.618 590.391 238.752C591.298 238.885 592.031 239.058 592.591 239.272V231.352C591.765 231.192 590.805 231.112 589.711 231.112C587.818 231.112 586.085 231.552 584.511 232.432C582.938 233.312 581.725 234.485 580.871 235.952H580.791V231.672H572.431V253.352Z" fill="#044ADC"/>
<path d="M312.344 240.299C312.344 239.504 312.268 238.727 312.123 237.974C312.039 237.537 312.223 237.085 312.607 236.859L315.15 235.363C315.621 235.086 315.782 234.483 315.513 234.008L313.538 230.521C313.262 230.034 312.642 229.868 312.161 230.152L309.759 231.564C309.356 231.801 308.844 231.724 308.503 231.403C307.278 230.256 305.815 229.368 304.198 228.826C303.767 228.682 303.458 228.289 303.458 227.834V225C303.458 224.448 303.011 224 302.458 224H298.536C297.984 224 297.536 224.448 297.536 225V227.835C297.536 228.289 297.228 228.682 296.797 228.827C295.18 229.369 293.718 230.258 292.492 231.405C292.15 231.724 291.639 231.802 291.235 231.564L288.838 230.152C288.356 229.869 287.735 230.035 287.46 230.521L285.485 234.008C285.216 234.483 285.377 235.086 285.848 235.363L288.39 236.859C288.775 237.085 288.959 237.537 288.874 237.975C288.73 238.727 288.654 239.504 288.654 240.299C288.654 241.211 288.755 242.098 288.943 242.951C289.042 243.396 288.859 243.863 288.466 244.095L285.847 245.637C285.377 245.914 285.216 246.517 285.485 246.992L287.46 250.479C287.736 250.965 288.356 251.132 288.837 250.848L291.504 249.279C291.898 249.047 292.397 249.115 292.739 249.419C293.912 250.458 295.289 251.265 296.798 251.771C297.23 251.916 297.538 252.309 297.538 252.763V256C297.538 256.552 297.986 257 298.538 257H302.46C303.013 257 303.46 256.552 303.46 256V252.763C303.46 252.309 303.769 251.916 304.2 251.771C305.711 251.266 307.086 250.458 308.259 249.419C308.601 249.115 309.1 249.047 309.494 249.279L312.161 250.848C312.642 251.132 313.262 250.965 313.538 250.479L315.513 246.992C315.782 246.517 315.621 245.914 315.15 245.637L312.531 244.097C312.138 243.865 311.955 243.397 312.054 242.951C312.243 242.098 312.344 241.211 312.344 240.299ZM300.499 247.744C296.683 247.744 293.59 244.41 293.59 240.299C293.59 236.188 296.683 232.854 300.499 232.854C304.315 232.854 307.409 236.188 307.409 240.299C307.409 244.41 304.315 247.744 300.499 247.744Z" fill="#044ADC"/>
<path d="M85.5 26.1055L87.6048 71.4861L108.994 54.7474L90.5813 74.1921L140.5 76.1055L90.5813 78.0189L108.994 97.4635L87.6048 80.7249L85.5 126.105L83.3952 80.7249L62.0061 97.4635L80.4187 78.0189L30.5 76.1055L80.4187 74.1921L62.0061 54.7474L83.3952 71.4861L85.5 26.1055Z" fill="#044ADC"/>
</svg>
