<svg width="633" height="300" viewBox="0 0 633 300" fill="none" xmlns="http://www.w3.org/2000/svg">
<rect width="633" height="300" rx="10" fill="#17181C"/>
<path d="M406.181 230.712H414.661C415.995 230.712 416.955 231.005 417.541 231.592C418.155 232.152 418.461 233.058 418.461 234.312C418.461 235.565 418.155 236.485 417.541 237.072C416.955 237.632 415.995 237.912 414.661 237.912H406.181V230.712ZM396.661 253.352H406.181V243.832H418.221C420.061 243.832 421.635 243.578 422.941 243.072C424.248 242.538 425.288 241.818 426.061 240.912C426.861 240.005 427.435 238.992 427.781 237.872C428.128 236.752 428.301 235.565 428.301 234.312C428.301 232.898 428.101 231.618 427.701 230.472C427.328 229.325 426.728 228.325 425.901 227.472C425.075 226.618 423.981 225.965 422.621 225.512C421.288 225.032 419.675 224.792 417.781 224.792H396.661V253.352ZM431.728 253.352H440.208V224.072H431.728V253.352ZM453.649 238.472C453.863 237.538 454.369 236.858 455.169 236.432C455.969 235.978 457.143 235.752 458.689 235.752C460.529 235.752 461.876 235.952 462.729 236.352C463.609 236.725 464.049 237.298 464.049 238.072C464.049 238.658 463.876 239.085 463.529 239.352C463.209 239.592 462.529 239.752 461.489 239.832L453.049 240.392C449.876 240.605 447.516 241.245 445.969 242.312C444.449 243.378 443.689 245.098 443.689 247.472C443.689 251.978 447.223 254.232 454.289 254.232C456.663 254.232 458.663 254.018 460.289 253.592C461.943 253.192 463.343 252.445 464.489 251.352C464.543 252.125 464.689 252.792 464.929 253.352H473.409C473.063 252.738 472.823 252.165 472.689 251.632C472.583 251.072 472.529 250.338 472.529 249.432V238.472C472.529 237.005 472.183 235.792 471.489 234.832C470.823 233.845 469.876 233.085 468.649 232.552C467.449 232.018 466.023 231.645 464.369 231.432C462.743 231.218 460.863 231.112 458.729 231.112C456.836 231.112 455.143 231.205 453.649 231.392C452.183 231.578 450.836 231.925 449.609 232.432C448.409 232.938 447.409 233.685 446.609 234.672C445.836 235.658 445.356 236.925 445.169 238.472H453.649ZM464.289 244.552C464.289 246.045 463.623 247.218 462.289 248.072C460.983 248.925 459.116 249.352 456.689 249.352C455.543 249.352 454.623 249.125 453.929 248.672C453.236 248.192 452.889 247.538 452.889 246.712C452.889 245.432 453.703 244.698 455.329 244.512L461.049 243.832C462.543 243.645 463.623 243.445 464.289 243.232V244.552ZM477.428 253.352H485.908V242.712C485.908 241.005 486.388 239.712 487.348 238.832C488.334 237.952 489.614 237.512 491.188 237.512C494.121 237.512 495.588 238.885 495.588 241.632V253.352H504.068V239.072C504.068 236.458 503.228 234.485 501.548 233.152C499.868 231.792 497.641 231.112 494.868 231.112C492.814 231.112 491.001 231.445 489.428 232.112C487.881 232.778 486.654 233.672 485.747 234.792H485.668V231.672H477.428V253.352ZM508.56 253.352H517.04V242.712C517.04 241.005 517.52 239.712 518.48 238.832C519.467 237.952 520.747 237.512 522.32 237.512C525.254 237.512 526.72 238.885 526.72 241.632V253.352H535.2V239.072C535.2 236.458 534.36 234.485 532.68 233.152C531 231.792 528.774 231.112 526 231.112C523.947 231.112 522.134 231.445 520.56 232.112C519.014 232.778 517.787 233.672 516.88 234.792H516.8V231.672H508.56V253.352ZM547.453 240.112C547.72 238.778 548.36 237.712 549.373 236.912C550.413 236.085 551.866 235.672 553.733 235.672C555.6 235.672 557.04 236.085 558.053 236.912C559.093 237.712 559.746 238.778 560.013 240.112H547.453ZM559.373 246.912C558.786 247.658 558.093 248.258 557.293 248.712C556.52 249.138 555.506 249.352 554.253 249.352C552.173 249.352 550.573 248.925 549.453 248.072C548.36 247.192 547.693 246.005 547.453 244.512H568.733V243.872C568.733 239.472 567.413 236.192 564.773 234.032C562.16 231.872 558.466 230.792 553.693 230.792C549.08 230.792 545.426 231.805 542.733 233.832C540.066 235.832 538.733 238.712 538.733 242.472C538.733 246.418 540.026 249.365 542.613 251.312C545.2 253.258 548.973 254.232 553.933 254.232C556.146 254.232 558.106 254.018 559.813 253.592C561.52 253.192 562.96 252.645 564.133 251.952C565.306 251.258 566.226 250.485 566.893 249.632C567.586 248.778 568.066 247.872 568.333 246.912H559.373ZM572.431 253.352H580.911V244.952C580.911 242.925 581.485 241.352 582.631 240.232C583.805 239.112 585.565 238.552 587.911 238.552C588.685 238.552 589.511 238.618 590.391 238.752C591.298 238.885 592.031 239.058 592.591 239.272V231.352C591.765 231.192 590.805 231.112 589.711 231.112C587.818 231.112 586.085 231.552 584.511 232.432C582.938 233.312 581.725 234.485 580.871 235.952H580.791V231.672H572.431V253.352Z" fill="#C0FF0D"/>
<path d="M343 255.327V248.673C343 248.301 343.31 248 343.695 248H353.305C353.69 248 354 248.301 354 248.673V255.327C354 255.699 353.69 256 353.305 256H343.695C343.31 256 343 255.699 343 255.327Z" fill="#C0FF0D"/>
<path d="M357 255.327V248.673C357 248.301 357.31 248 357.695 248H367.305C367.69 248 368 248.301 368 248.673V255.327C368 255.699 367.69 256 367.305 256H357.695C357.313 256 357 255.699 357 255.327Z" fill="#C0FF0D"/>
<path d="M355 231.357V223.643C355 223.287 355.371 223 355.83 223H369.17C369.629 223 370 223.287 370 223.643V231.357C370 231.713 369.629 232 369.17 232H355.83C355.371 232 355 231.713 355 231.357Z" fill="#C0FF0D"/>
<path d="M371 255.327V248.673C371 248.301 371.31 248 371.695 248H381.305C381.69 248 382 248.301 382 248.673V255.327C382 255.699 381.69 256 381.305 256H371.695C371.313 256 371 255.699 371 255.327Z" fill="#C0FF0D"/>
<path d="M377.311 253.541H376.255C375.816 253.541 375.463 253.197 375.463 252.77V239.514C375.463 239.087 375.109 238.743 374.67 238.743H350.386C349.947 238.743 349.593 239.087 349.593 239.514V252.77C349.593 253.197 349.239 253.541 348.801 253.541H347.744C347.306 253.541 346.952 253.197 346.952 252.77V236.943C346.952 236.516 347.306 236.171 347.744 236.171H377.311C377.75 236.171 378.104 236.516 378.104 236.943V252.77C378.104 253.197 377.747 253.541 377.311 253.541Z" fill="#C0FF0D"/>
<path d="M363.058 253.542H362.001C361.563 253.542 361.209 253.197 361.209 252.77V229.743C361.209 229.316 361.563 228.972 362.001 228.972H363.058C363.496 228.972 363.85 229.316 363.85 229.743V252.77C363.85 253.197 363.494 253.542 363.058 253.542Z" fill="#C0FF0D"/>
<path d="M86.6053 71.5092L86.6502 72.4767L87.4129 71.8798L103.513 59.2801L89.7183 73.8483L88.9596 74.6494L90.0622 74.6917L126.946 76.1055L90.0622 77.5193L88.9596 77.5615L89.7183 78.3627L103.513 92.9308L87.4129 80.3311L86.6502 79.7342L86.6053 80.7017L85 115.313L83.3947 80.7017L83.3498 79.7342L82.5871 80.3311L66.4869 92.9308L80.2817 78.3627L81.0404 77.5615L79.9378 77.5193L43.054 76.1055L79.9378 74.6917L81.0404 74.6494L80.2817 73.8483L66.4869 59.2801L82.5871 71.8798L83.3498 72.4767L83.3947 71.5092L85 36.8975L86.6053 71.5092Z" fill="#C0FF0D" stroke="#C0FF0D"/>
</svg>
