<svg width="633" height="300" viewBox="0 0 633 300" fill="none" xmlns="http://www.w3.org/2000/svg">
<rect width="633" height="300" rx="10" fill="#17181C"/>
<path d="M497.036 253.607H507.236L508.956 248.967H521.436L523.156 253.607H533.356L521.076 225.047H509.436L497.036 253.607ZM519.196 243.047H511.196L515.156 232.247H515.236L519.196 243.047ZM535.099 253.607H562.019V246.967H544.619V225.047H535.099V253.607ZM565.489 253.607H592.409V246.967H575.009V225.047H565.489V253.607Z" fill="#9C00FF"/>
<path d="M85 26.1055L87.1048 71.4861L108.494 54.7474L90.0813 74.1921L140 76.1055L90.0813 78.0189L108.494 97.4635L87.1048 80.7249L85 126.105L82.8952 80.7249L61.5061 97.4635L79.9187 78.0189L30 76.1055L79.9187 74.1921L61.5061 54.7474L82.8952 71.4861L85 26.1055Z" fill="#9C00FF"/>
</svg>
