<svg width="633" height="300" viewBox="0 0 633 300" fill="none" xmlns="http://www.w3.org/2000/svg">
<rect width="633" height="300" rx="10" fill="#17181C"/>
<path d="M312.344 240.299C312.344 239.504 312.268 238.727 312.123 237.974C312.039 237.537 312.223 237.085 312.607 236.859L315.15 235.363C315.621 235.086 315.782 234.483 315.513 234.008L313.538 230.521C313.262 230.034 312.642 229.868 312.161 230.152L309.759 231.564C309.356 231.801 308.844 231.724 308.503 231.403C307.278 230.256 305.815 229.368 304.198 228.826C303.767 228.682 303.458 228.289 303.458 227.834V225C303.458 224.448 303.011 224 302.458 224H298.536C297.984 224 297.536 224.448 297.536 225V227.835C297.536 228.289 297.228 228.682 296.797 228.827C295.18 229.369 293.718 230.258 292.492 231.405C292.15 231.724 291.639 231.802 291.235 231.564L288.838 230.152C288.356 229.869 287.735 230.035 287.46 230.521L285.485 234.008C285.216 234.483 285.377 235.086 285.848 235.363L288.39 236.859C288.775 237.085 288.959 237.537 288.874 237.975C288.73 238.727 288.654 239.504 288.654 240.299C288.654 241.211 288.755 242.098 288.943 242.951C289.042 243.396 288.859 243.863 288.466 244.095L285.847 245.637C285.377 245.914 285.216 246.517 285.485 246.992L287.46 250.479C287.736 250.965 288.356 251.132 288.837 250.848L291.504 249.279C291.898 249.047 292.397 249.115 292.739 249.419C293.912 250.458 295.289 251.265 296.798 251.771C297.23 251.916 297.538 252.309 297.538 252.763V256C297.538 256.552 297.986 257 298.538 257H302.46C303.013 257 303.46 256.552 303.46 256V252.763C303.46 252.309 303.769 251.916 304.2 251.771C305.711 251.266 307.086 250.458 308.259 249.419C308.601 249.115 309.1 249.047 309.494 249.279L312.161 250.848C312.642 251.132 313.262 250.965 313.538 250.479L315.513 246.992C315.782 246.517 315.621 245.914 315.15 245.637L312.531 244.097C312.138 243.865 311.955 243.397 312.054 242.951C312.243 242.098 312.344 241.211 312.344 240.299ZM300.499 247.744C296.683 247.744 293.59 244.41 293.59 240.299C293.59 236.188 296.683 232.854 300.499 232.854C304.315 232.854 307.409 236.188 307.409 240.299C307.409 244.41 304.315 247.744 300.499 247.744Z" fill="#044ADC"/>
<path d="M336.857 253.352H356.257C358.443 253.352 360.417 253.125 362.177 252.672C363.937 252.218 365.483 251.458 366.817 250.392C368.177 249.298 369.23 247.818 369.977 245.952C370.723 244.085 371.097 241.792 371.097 239.072C371.097 234.325 369.937 230.765 367.617 228.392C365.323 225.992 361.95 224.792 357.497 224.792H336.857V253.352ZM346.377 231.192H353.577C358.697 231.192 361.257 233.805 361.257 239.032C361.257 240.098 361.137 241.098 360.897 242.032C360.683 242.965 360.31 243.805 359.777 244.552C359.27 245.272 358.563 245.858 357.657 246.312C356.75 246.738 355.643 246.952 354.337 246.952H346.377V231.192ZM382.492 240.112C382.759 238.778 383.399 237.712 384.412 236.912C385.452 236.085 386.906 235.672 388.772 235.672C390.639 235.672 392.079 236.085 393.092 236.912C394.132 237.712 394.786 238.778 395.052 240.112H382.492ZM394.412 246.912C393.826 247.658 393.132 248.258 392.332 248.712C391.559 249.138 390.546 249.352 389.292 249.352C387.212 249.352 385.612 248.925 384.492 248.072C383.399 247.192 382.732 246.005 382.492 244.512H403.772V243.872C403.772 239.472 402.452 236.192 399.812 234.032C397.199 231.872 393.506 230.792 388.732 230.792C384.119 230.792 380.466 231.805 377.772 233.832C375.106 235.832 373.772 238.712 373.772 242.472C373.772 246.418 375.066 249.365 377.652 251.312C380.239 253.258 384.012 254.232 388.972 254.232C391.186 254.232 393.146 254.018 394.852 253.592C396.559 253.192 397.999 252.645 399.172 251.952C400.346 251.258 401.266 250.485 401.932 249.632C402.626 248.778 403.106 247.872 403.372 246.912H394.412ZM414.67 253.352H424.35L434.35 231.672H424.71L419.51 245.952L414.31 231.672H404.67L414.67 253.352ZM443.938 240.112C444.204 238.778 444.844 237.712 445.858 236.912C446.898 236.085 448.351 235.672 450.218 235.672C452.084 235.672 453.524 236.085 454.538 236.912C455.578 237.712 456.231 238.778 456.498 240.112H443.938ZM455.858 246.912C455.271 247.658 454.578 248.258 453.778 248.712C453.004 249.138 451.991 249.352 450.738 249.352C448.658 249.352 447.058 248.925 445.938 248.072C444.844 247.192 444.178 246.005 443.938 244.512H465.218V243.872C465.218 239.472 463.898 236.192 461.258 234.032C458.644 231.872 454.951 230.792 450.178 230.792C445.564 230.792 441.911 231.805 439.217 233.832C436.551 235.832 435.218 238.712 435.218 242.472C435.218 246.418 436.511 249.365 439.098 251.312C441.684 253.258 445.458 254.232 450.418 254.232C452.631 254.232 454.591 254.018 456.298 253.592C458.004 253.192 459.444 252.645 460.618 251.952C461.791 251.258 462.711 250.485 463.378 249.632C464.071 248.778 464.551 247.872 464.818 246.912H455.858ZM468.916 253.352H477.396V224.072H468.916V253.352ZM496.077 236.392C498.05 236.392 499.584 236.912 500.677 237.952C501.77 238.992 502.317 240.512 502.317 242.512C502.317 244.512 501.77 246.032 500.677 247.072C499.584 248.112 498.05 248.632 496.077 248.632C494.104 248.632 492.57 248.112 491.477 247.072C490.384 246.032 489.837 244.512 489.837 242.512C489.837 240.512 490.384 238.992 491.477 237.952C492.57 236.912 494.104 236.392 496.077 236.392ZM480.877 242.512C480.877 246.325 482.17 249.232 484.757 251.232C487.37 253.232 491.144 254.232 496.077 254.232C501.01 254.232 504.77 253.232 507.357 251.232C509.97 249.232 511.277 246.325 511.277 242.512C511.277 238.698 509.97 235.792 507.357 233.792C504.77 231.792 501.01 230.792 496.077 230.792C491.144 230.792 487.37 231.792 484.757 233.792C482.17 235.792 480.877 238.698 480.877 242.512ZM514.615 261.192H523.095V251.392H523.175C523.948 252.245 525.028 252.925 526.415 253.432C527.828 253.965 529.442 254.232 531.255 254.232C533.202 254.232 534.948 253.938 536.495 253.352C538.068 252.792 539.402 251.992 540.495 250.952C541.615 249.885 542.455 248.672 543.015 247.312C543.575 245.925 543.855 244.445 543.855 242.872C543.855 239.165 542.708 236.285 540.415 234.232C538.148 232.152 535.068 231.112 531.175 231.112C529.468 231.112 527.895 231.418 526.455 232.032C525.015 232.618 523.842 233.458 522.935 234.552H522.855V231.672H514.615V261.192ZM523.095 242.552C523.095 240.845 523.615 239.498 524.655 238.512C525.695 237.525 527.188 237.032 529.135 237.032C531.082 237.032 532.562 237.498 533.575 238.432C534.615 239.365 535.135 240.738 535.135 242.552C535.135 244.338 534.615 245.712 533.575 246.672C532.562 247.605 531.082 248.072 529.135 248.072C527.188 248.072 525.695 247.578 524.655 246.592C523.615 245.605 523.095 244.258 523.095 242.552ZM554.953 240.112C555.22 238.778 555.86 237.712 556.873 236.912C557.913 236.085 559.366 235.672 561.233 235.672C563.1 235.672 564.54 236.085 565.553 236.912C566.593 237.712 567.246 238.778 567.513 240.112H554.953ZM566.873 246.912C566.286 247.658 565.593 248.258 564.793 248.712C564.02 249.138 563.006 249.352 561.753 249.352C559.673 249.352 558.073 248.925 556.953 248.072C555.86 247.192 555.193 246.005 554.953 244.512H576.233V243.872C576.233 239.472 574.913 236.192 572.273 234.032C569.66 231.872 565.966 230.792 561.193 230.792C556.58 230.792 552.926 231.805 550.233 233.832C547.566 235.832 546.233 238.712 546.233 242.472C546.233 246.418 547.526 249.365 550.113 251.312C552.7 253.258 556.473 254.232 561.433 254.232C563.646 254.232 565.606 254.018 567.313 253.592C569.02 253.192 570.46 252.645 571.633 251.952C572.806 251.258 573.726 250.485 574.393 249.632C575.086 248.778 575.566 247.872 575.833 246.912H566.873ZM579.931 253.352H588.411V244.952C588.411 242.925 588.985 241.352 590.131 240.232C591.305 239.112 593.065 238.552 595.411 238.552C596.185 238.552 597.011 238.618 597.891 238.752C598.798 238.885 599.531 239.058 600.091 239.272V231.352C599.265 231.192 598.305 231.112 597.211 231.112C595.318 231.112 593.585 231.552 592.011 232.432C590.438 233.312 589.225 234.485 588.371 235.952H588.291V231.672H579.931V253.352Z" fill="#044ADC"/>
<path d="M117.243 53.5164C117.916 54.6826 118.022 56.3103 117.303 58.4673C116.584 60.6221 115.093 63.1292 112.872 65.8292C108.437 71.2199 101.303 77.1245 92.5054 82.2039C83.7077 87.2833 75.0273 90.509 68.1413 91.6543C64.6925 92.228 61.7756 92.2659 59.5503 91.8107C57.3226 91.355 55.9658 90.4498 55.2925 89.2836C54.6192 88.1174 54.5136 86.4898 55.2329 84.3327C55.9513 82.1779 57.4426 79.6708 59.6638 76.9709C64.0987 71.5801 71.2324 65.6755 80.0302 60.5961C88.8279 55.5167 97.5083 52.2911 104.394 51.1457C107.843 50.572 110.76 50.5341 112.985 50.9893C115.213 51.445 116.57 52.3503 117.243 53.5164Z" stroke="#044ADC" stroke-width="3"/>
<circle cx="81.9033" cy="64.3867" r="11.624" fill="#044ADC"/>
</svg>
