<svg width="633" height="300" viewBox="0 0 633 300" fill="none" xmlns="http://www.w3.org/2000/svg">
<rect width="633" height="300" rx="10" fill="#17181C"/>
<path d="M331.469 247.569C331.315 247.301 331.041 247.13 330.745 247.038C330.052 246.823 329.458 246.358 329.093 245.726C328.29 244.335 328.784 242.54 330.195 241.726C331.606 240.911 333.407 241.38 334.211 242.772C334.576 243.405 334.681 244.151 334.521 244.858C334.452 245.16 334.464 245.483 334.619 245.751L338.15 251.867C338.638 252.713 339.911 252.427 339.97 251.451C340.28 246.346 340.356 239.325 338.743 236.531C336.963 233.449 333.618 231.573 330.015 231.637C329.926 231.638 329.845 231.586 329.808 231.506L325.216 221.532C324.97 220.997 324.318 220.789 323.808 221.084L315.512 225.873C315.002 226.168 314.856 226.836 315.196 227.317L321.54 236.279C321.591 236.352 321.595 236.448 321.55 236.524C319.691 239.614 319.643 243.449 321.423 246.531C323.035 249.325 329.153 252.77 333.73 255.054C334.605 255.49 335.489 254.532 335 253.685L331.469 247.569Z" fill="#FF0099"/>
<path d="M369.653 253.352H389.053C391.24 253.352 393.213 253.125 394.973 252.672C396.733 252.218 398.28 251.458 399.613 250.392C400.973 249.298 402.027 247.818 402.773 245.952C403.52 244.085 403.893 241.792 403.893 239.072C403.893 234.325 402.733 230.765 400.413 228.392C398.12 225.992 394.747 224.792 390.293 224.792H369.653V253.352ZM379.173 231.192H386.373C391.493 231.192 394.053 233.805 394.053 239.032C394.053 240.098 393.933 241.098 393.693 242.032C393.48 242.965 393.107 243.805 392.573 244.552C392.067 245.272 391.36 245.858 390.453 246.312C389.547 246.738 388.44 246.952 387.133 246.952H379.173V231.192ZM415.289 240.112C415.556 238.778 416.196 237.712 417.209 236.912C418.249 236.085 419.702 235.672 421.569 235.672C423.436 235.672 424.876 236.085 425.889 236.912C426.929 237.712 427.582 238.778 427.849 240.112H415.289ZM427.209 246.912C426.622 247.658 425.929 248.258 425.129 248.712C424.356 249.138 423.342 249.352 422.089 249.352C420.009 249.352 418.409 248.925 417.289 248.072C416.196 247.192 415.529 246.005 415.289 244.512H436.569V243.872C436.569 239.472 435.249 236.192 432.609 234.032C429.996 231.872 426.302 230.792 421.529 230.792C416.916 230.792 413.262 231.805 410.569 233.832C407.902 235.832 406.569 238.712 406.569 242.472C406.569 246.418 407.862 249.365 410.449 251.312C413.036 253.258 416.809 254.232 421.769 254.232C423.982 254.232 425.942 254.018 427.649 253.592C429.356 253.192 430.796 252.645 431.969 251.952C433.142 251.258 434.062 250.485 434.729 249.632C435.422 248.778 435.902 247.872 436.169 246.912H427.209ZM438.947 246.592C439.001 248.138 439.467 249.432 440.347 250.472C441.227 251.485 442.361 252.272 443.747 252.832C445.161 253.365 446.667 253.725 448.267 253.912C449.867 254.125 451.534 254.232 453.267 254.232C457.827 254.232 461.281 253.618 463.627 252.392C465.974 251.138 467.147 249.245 467.147 246.712C467.147 244.632 466.441 243.085 465.027 242.072C463.641 241.032 461.441 240.352 458.427 240.032L451.107 239.232C450.094 239.125 449.387 238.938 448.987 238.672C448.587 238.405 448.387 238.085 448.387 237.712C448.387 236.992 448.707 236.472 449.347 236.152C450.014 235.832 450.987 235.672 452.267 235.672C453.547 235.672 454.561 235.832 455.307 236.152C456.241 236.498 456.747 237.112 456.827 237.992H466.347C466.241 236.525 465.761 235.312 464.907 234.352C464.081 233.392 463.014 232.658 461.707 232.152C460.401 231.618 459.001 231.258 457.507 231.072C456.041 230.885 454.481 230.792 452.827 230.792C450.721 230.792 448.867 230.925 447.267 231.192C445.667 231.458 444.294 231.885 443.147 232.472C442.027 233.058 441.161 233.858 440.547 234.872C439.961 235.858 439.667 237.072 439.667 238.512C439.667 240.325 440.281 241.712 441.507 242.672C442.734 243.605 444.614 244.232 447.147 244.552L454.707 245.472C455.801 245.605 456.561 245.792 456.987 246.032C457.414 246.245 457.627 246.632 457.627 247.192C457.627 247.912 457.254 248.418 456.507 248.712C455.787 248.978 454.867 249.112 453.747 249.112C452.014 249.112 450.761 248.885 449.987 248.432C449.321 248.085 448.921 247.472 448.787 246.592H438.947ZM470.619 253.352H479.099V231.672H470.619V253.352ZM470.619 229.192H479.099V224.072H470.619V229.192ZM504.34 234.432H504.26C503.407 233.312 502.207 232.485 500.66 231.952C499.14 231.392 497.393 231.112 495.42 231.112C493.313 231.112 491.447 231.392 489.82 231.952C488.193 232.512 486.847 233.285 485.78 234.272C484.713 235.232 483.913 236.352 483.38 237.632C482.847 238.912 482.58 240.285 482.58 241.752C482.58 243.272 482.82 244.672 483.3 245.952C483.807 247.232 484.567 248.365 485.58 249.352C486.62 250.312 487.953 251.058 489.58 251.592C491.233 252.125 493.18 252.392 495.42 252.392C497.18 252.392 498.847 252.165 500.42 251.712C501.993 251.232 503.22 250.538 504.1 249.632V251.152C504.1 253.178 503.633 254.618 502.7 255.472C501.767 256.352 500.127 256.792 497.78 256.792C496.393 256.792 495.233 256.592 494.3 256.192C493.367 255.792 492.807 255.138 492.62 254.232H483.26C483.473 255.698 483.953 256.912 484.7 257.872C485.473 258.858 486.487 259.618 487.74 260.152C488.993 260.712 490.473 261.098 492.18 261.312C493.887 261.552 495.873 261.672 498.14 261.672C503.313 261.672 507.007 260.872 509.22 259.272C511.46 257.672 512.58 255.045 512.58 251.392V231.672H504.34V234.432ZM491.54 241.872C491.54 240.352 492.06 239.112 493.1 238.152C494.167 237.192 495.727 236.712 497.78 236.712C499.887 236.712 501.46 237.192 502.5 238.152C503.567 239.085 504.1 240.352 504.1 241.952C504.1 243.472 503.607 244.698 502.62 245.632C501.633 246.565 500.02 247.032 497.78 247.032C495.727 247.032 494.167 246.552 493.1 245.592C492.06 244.632 491.54 243.392 491.54 241.872ZM517.06 253.352H525.54V242.712C525.54 241.005 526.02 239.712 526.98 238.832C527.967 237.952 529.247 237.512 530.82 237.512C533.754 237.512 535.22 238.885 535.22 241.632V253.352H543.7V239.072C543.7 236.458 542.86 234.485 541.18 233.152C539.5 231.792 537.274 231.112 534.5 231.112C532.447 231.112 530.634 231.445 529.06 232.112C527.514 232.778 526.287 233.672 525.38 234.792H525.3V231.672H517.06V253.352ZM555.953 240.112C556.22 238.778 556.86 237.712 557.873 236.912C558.913 236.085 560.366 235.672 562.233 235.672C564.1 235.672 565.54 236.085 566.553 236.912C567.593 237.712 568.246 238.778 568.513 240.112H555.953ZM567.873 246.912C567.286 247.658 566.593 248.258 565.793 248.712C565.02 249.138 564.006 249.352 562.753 249.352C560.673 249.352 559.073 248.925 557.953 248.072C556.86 247.192 556.193 246.005 555.953 244.512H577.233V243.872C577.233 239.472 575.913 236.192 573.273 234.032C570.66 231.872 566.966 230.792 562.193 230.792C557.58 230.792 553.926 231.805 551.233 233.832C548.566 235.832 547.233 238.712 547.233 242.472C547.233 246.418 548.526 249.365 551.113 251.312C553.7 253.258 557.473 254.232 562.433 254.232C564.646 254.232 566.606 254.018 568.313 253.592C570.02 253.192 571.46 252.645 572.633 251.952C573.806 251.258 574.726 250.485 575.393 249.632C576.086 248.778 576.566 247.872 576.833 246.912H567.873ZM580.931 253.352H589.411V244.952C589.411 242.925 589.985 241.352 591.131 240.232C592.305 239.112 594.065 238.552 596.411 238.552C597.185 238.552 598.011 238.618 598.891 238.752C599.798 238.885 600.531 239.058 601.091 239.272V231.352C600.265 231.192 599.305 231.112 598.211 231.112C596.318 231.112 594.585 231.552 593.011 232.432C591.438 233.312 590.225 234.485 589.371 235.952H589.291V231.672H580.931V253.352Z" fill="#FF0099"/>
<path d="M118.243 53.5164C118.916 54.6826 119.022 56.3103 118.303 58.4673C117.584 60.6221 116.093 63.1292 113.872 65.8292C109.437 71.2199 102.303 77.1245 93.5054 82.2039C84.7077 87.2833 76.0273 90.509 69.1413 91.6543C65.6925 92.228 62.7756 92.2659 60.5503 91.8107C58.3226 91.355 56.9658 90.4498 56.2925 89.2836C55.6192 88.1174 55.5136 86.4898 56.2329 84.3327C56.9513 82.1779 58.4426 79.6708 60.6638 76.9709C65.0987 71.5801 72.2324 65.6755 81.0302 60.5961C89.8279 55.5167 98.5083 52.2911 105.394 51.1457C108.843 50.572 111.76 50.5341 113.985 50.9893C116.213 51.445 117.57 52.3503 118.243 53.5164Z" stroke="#FF0099" stroke-width="3"/>
<circle cx="82.9023" cy="64.3867" r="11.624" fill="#FF0099"/>
</svg>
