<svg width="633" height="300" viewBox="0 0 633 300" fill="none" xmlns="http://www.w3.org/2000/svg">
<rect width="633" height="300" rx="10" fill="#17181C"/>
<path d="M344 255.327V248.673C344 248.301 344.31 248 344.695 248H354.305C354.69 248 355 248.301 355 248.673V255.327C355 255.699 354.69 256 354.305 256H344.695C344.31 256 344 255.699 344 255.327Z" fill="#C0FF0D"/>
<path d="M358 255.327V248.673C358 248.301 358.31 248 358.695 248H368.305C368.69 248 369 248.301 369 248.673V255.327C369 255.699 368.69 256 368.305 256H358.695C358.313 256 358 255.699 358 255.327Z" fill="#C0FF0D"/>
<path d="M356 231.357V223.643C356 223.287 356.371 223 356.83 223H370.17C370.629 223 371 223.287 371 223.643V231.357C371 231.713 370.629 232 370.17 232H356.83C356.371 232 356 231.713 356 231.357Z" fill="#C0FF0D"/>
<path d="M372 255.327V248.673C372 248.301 372.31 248 372.695 248H382.305C382.69 248 383 248.301 383 248.673V255.327C383 255.699 382.69 256 382.305 256H372.695C372.313 256 372 255.699 372 255.327Z" fill="#C0FF0D"/>
<path d="M378.311 253.541H377.255C376.816 253.541 376.463 253.197 376.463 252.77V239.514C376.463 239.087 376.109 238.743 375.67 238.743H351.386C350.947 238.743 350.593 239.087 350.593 239.514V252.77C350.593 253.197 350.239 253.541 349.801 253.541H348.744C348.306 253.541 347.952 253.197 347.952 252.77V236.943C347.952 236.516 348.306 236.171 348.744 236.171H378.311C378.75 236.171 379.104 236.516 379.104 236.943V252.77C379.104 253.197 378.747 253.541 378.311 253.541Z" fill="#C0FF0D"/>
<path d="M364.058 253.542H363.001C362.563 253.542 362.209 253.197 362.209 252.77V229.743C362.209 229.316 362.563 228.972 363.001 228.972H364.058C364.496 228.972 364.85 229.316 364.85 229.743V252.77C364.85 253.197 364.494 253.542 364.058 253.542Z" fill="#C0FF0D"/>
<path d="M118.243 53.5164C118.916 54.6826 119.022 56.3103 118.303 58.4673C117.584 60.6221 116.093 63.1292 113.872 65.8292C109.437 71.2199 102.303 77.1245 93.5054 82.2039C84.7077 87.2833 76.0273 90.509 69.1413 91.6543C65.6925 92.228 62.7756 92.2659 60.5503 91.8107C58.3226 91.355 56.9658 90.4498 56.2925 89.2836C55.6192 88.1174 55.5136 86.4898 56.2329 84.3327C56.9513 82.1779 58.4426 79.6708 60.6638 76.9709C65.0987 71.5801 72.2324 65.6755 81.0302 60.5961C89.8279 55.5167 98.5083 52.2911 105.394 51.1457C108.843 50.572 111.76 50.5341 113.985 50.9893C116.213 51.445 117.57 52.3503 118.243 53.5164Z" stroke="#C0FF0D" stroke-width="3"/>
<circle cx="82.9023" cy="64.3867" r="11.124" fill="#C0FF0D" stroke="#C0FF0D"/>
<path d="M414.681 230.712H423.161C424.495 230.712 425.455 231.005 426.041 231.592C426.655 232.152 426.961 233.058 426.961 234.312C426.961 235.565 426.655 236.485 426.041 237.072C425.455 237.632 424.495 237.912 423.161 237.912H414.681V230.712ZM405.161 253.352H414.681V243.832H426.721C428.561 243.832 430.135 243.578 431.441 243.072C432.748 242.538 433.788 241.818 434.561 240.912C435.361 240.005 435.935 238.992 436.281 237.872C436.628 236.752 436.801 235.565 436.801 234.312C436.801 232.898 436.601 231.618 436.201 230.472C435.828 229.325 435.228 228.325 434.401 227.472C433.575 226.618 432.481 225.965 431.121 225.512C429.788 225.032 428.175 224.792 426.281 224.792H405.161V253.352ZM440.228 253.352H448.708V224.072H440.228V253.352ZM462.149 238.472C462.363 237.538 462.869 236.858 463.669 236.432C464.469 235.978 465.643 235.752 467.189 235.752C469.029 235.752 470.376 235.952 471.229 236.352C472.109 236.725 472.549 237.298 472.549 238.072C472.549 238.658 472.376 239.085 472.029 239.352C471.709 239.592 471.029 239.752 469.989 239.832L461.549 240.392C458.376 240.605 456.016 241.245 454.469 242.312C452.949 243.378 452.189 245.098 452.189 247.472C452.189 251.978 455.723 254.232 462.789 254.232C465.163 254.232 467.163 254.018 468.789 253.592C470.443 253.192 471.843 252.445 472.989 251.352C473.043 252.125 473.189 252.792 473.429 253.352H481.909C481.563 252.738 481.323 252.165 481.189 251.632C481.083 251.072 481.029 250.338 481.029 249.432V238.472C481.029 237.005 480.683 235.792 479.989 234.832C479.323 233.845 478.376 233.085 477.149 232.552C475.949 232.018 474.523 231.645 472.869 231.432C471.243 231.218 469.363 231.112 467.229 231.112C465.336 231.112 463.643 231.205 462.149 231.392C460.683 231.578 459.336 231.925 458.109 232.432C456.909 232.938 455.909 233.685 455.109 234.672C454.336 235.658 453.856 236.925 453.669 238.472H462.149ZM472.789 244.552C472.789 246.045 472.123 247.218 470.789 248.072C469.483 248.925 467.616 249.352 465.189 249.352C464.043 249.352 463.123 249.125 462.429 248.672C461.736 248.192 461.389 247.538 461.389 246.712C461.389 245.432 462.203 244.698 463.829 244.512L469.549 243.832C471.043 243.645 472.123 243.445 472.789 243.232V244.552ZM485.928 253.352H494.408V242.712C494.408 241.005 494.888 239.712 495.848 238.832C496.834 237.952 498.114 237.512 499.688 237.512C502.621 237.512 504.088 238.885 504.088 241.632V253.352H512.568V239.072C512.568 236.458 511.728 234.485 510.048 233.152C508.368 231.792 506.141 231.112 503.368 231.112C501.314 231.112 499.501 231.445 497.928 232.112C496.381 232.778 495.154 233.672 494.247 234.792H494.168V231.672H485.928V253.352ZM517.06 253.352H525.54V242.712C525.54 241.005 526.02 239.712 526.98 238.832C527.967 237.952 529.247 237.512 530.82 237.512C533.754 237.512 535.22 238.885 535.22 241.632V253.352H543.7V239.072C543.7 236.458 542.86 234.485 541.18 233.152C539.5 231.792 537.274 231.112 534.5 231.112C532.447 231.112 530.634 231.445 529.06 232.112C527.514 232.778 526.287 233.672 525.38 234.792H525.3V231.672H517.06V253.352ZM555.953 240.112C556.22 238.778 556.86 237.712 557.873 236.912C558.913 236.085 560.366 235.672 562.233 235.672C564.1 235.672 565.54 236.085 566.553 236.912C567.593 237.712 568.246 238.778 568.513 240.112H555.953ZM567.873 246.912C567.286 247.658 566.593 248.258 565.793 248.712C565.02 249.138 564.006 249.352 562.753 249.352C560.673 249.352 559.073 248.925 557.953 248.072C556.86 247.192 556.193 246.005 555.953 244.512H577.233V243.872C577.233 239.472 575.913 236.192 573.273 234.032C570.66 231.872 566.966 230.792 562.193 230.792C557.58 230.792 553.926 231.805 551.233 233.832C548.566 235.832 547.233 238.712 547.233 242.472C547.233 246.418 548.526 249.365 551.113 251.312C553.7 253.258 557.473 254.232 562.433 254.232C564.646 254.232 566.606 254.018 568.313 253.592C570.02 253.192 571.46 252.645 572.633 251.952C573.806 251.258 574.726 250.485 575.393 249.632C576.086 248.778 576.566 247.872 576.833 246.912H567.873ZM580.931 253.352H589.411V244.952C589.411 242.925 589.985 241.352 591.131 240.232C592.305 239.112 594.065 238.552 596.411 238.552C597.185 238.552 598.011 238.618 598.891 238.752C599.798 238.885 600.531 239.058 601.091 239.272V231.352C600.265 231.192 599.305 231.112 598.211 231.112C596.318 231.112 594.585 231.552 593.011 232.432C591.438 233.312 590.225 234.485 589.371 235.952H589.291V231.672H580.931V253.352Z" fill="#C0FF0D"/>
</svg>
