<svg width="633" height="300" viewBox="0 0 633 300" fill="none" xmlns="http://www.w3.org/2000/svg">
<rect width="633" height="300" rx="10" fill="#17181C"/>
<path d="M505.907 253.607H516.107L517.827 248.967H530.307L532.027 253.607H542.227L529.947 225.047H518.307L505.907 253.607ZM528.067 243.047H520.067L524.027 232.247H524.107L528.067 243.047ZM543.969 253.607H570.889V246.967H553.489V225.047H543.969V253.607ZM574.36 253.607H601.28V246.967H583.88V225.047H574.36V253.607Z" fill="#9C00FF"/>
<path d="M118.614 53.5164C119.287 54.6826 119.393 56.3103 118.674 58.4673C117.955 60.6221 116.464 63.1292 114.243 65.8292C109.808 71.2199 102.674 77.1245 93.8765 82.2039C85.0787 87.2833 76.3984 90.509 69.5124 91.6543C66.0636 92.228 63.1467 92.2659 60.9214 91.8107C58.6937 91.355 57.3369 90.4498 56.6636 89.2836C55.9903 88.1174 55.8847 86.4898 56.6039 84.3327C57.3224 82.1779 58.8137 79.6708 61.0349 76.9709C65.4698 71.5801 72.6035 65.6755 81.4013 60.5961C90.199 55.5167 98.8794 52.2911 105.765 51.1457C109.214 50.572 112.131 50.5341 114.356 50.9893C116.584 51.445 117.941 52.3503 118.614 53.5164Z" stroke="#9148BF" stroke-width="3"/>
<circle cx="83.2734" cy="64.3867" r="11.624" fill="#C160FF"/>
</svg>
