<svg width="181" height="180" viewBox="0 0 181 180" fill="none" xmlns="http://www.w3.org/2000/svg">
<path d="M74.1618 140C83.3618 140 90.8285 132.533 90.8285 123.333V106.667H74.1618C64.9618 106.667 57.4951 114.133 57.4951 123.333C57.4951 132.533 64.9618 140 74.1618 140Z" fill="#0ACF83"/>
<path d="M57.4951 89.9999C57.4951 80.7999 64.9618 73.3333 74.1618 73.3333H90.8285V106.667H74.1618C64.9618 106.667 57.4951 99.1999 57.4951 89.9999Z" fill="#A259FF"/>
<path d="M57.4951 56.6667C57.4951 47.4667 64.9618 40 74.1618 40H90.8285V73.3333H74.1618C64.9618 73.3333 57.4951 65.8667 57.4951 56.6667Z" fill="#F24E1E"/>
<path d="M90.8281 40H107.495C116.695 40 124.162 47.4667 124.162 56.6667C124.162 65.8667 116.695 73.3333 107.495 73.3333H90.8281V40Z" fill="#FF7262"/>
<path d="M124.162 89.9999C124.162 99.1999 116.695 106.667 107.495 106.667C98.2948 106.667 90.8281 99.1999 90.8281 89.9999C90.8281 80.7999 98.2948 73.3333 107.495 73.3333C116.695 73.3333 124.162 80.7999 124.162 89.9999Z" fill="#1ABCFE"/>
</svg>
